<svg width="22" height="17" viewBox="0 0 22 17" fill="none" xmlns="http://www.w3.org/2000/svg">
<path d="M0 2.82509V13.9461C0 15.4784 1.2501 16.7285 2.78248 16.7285H11.7707C13.3031 16.7285 14.5532 15.4784 14.5532 13.9461V12.1448C14.5532 11.8402 14.3067 11.5937 14.002 11.5937C13.6974 11.5937 13.4509 11.8402 13.4509 12.1448V13.9461C13.4509 14.8736 12.6937 15.6308 11.7662 15.6308H2.78248C1.85499 15.6308 1.09776 14.8736 1.09776 13.9461V2.82509C1.09776 1.89759 1.85499 1.14036 2.78248 1.14036H11.7707C12.6982 1.14036 13.4554 1.89759 13.4554 2.82509V4.62631C13.4554 4.93099 13.7018 5.17743 14.0065 5.17743C14.3112 5.17743 14.5576 4.93099 14.5576 4.62631V2.82509C14.5576 1.2927 13.3075 0.0426025 11.7752 0.0426025H2.78248C1.2501 0.0426025 0 1.28822 0 2.82509Z" fill="#005CA4"/>
<path d="M17.2684 12.5302C17.3759 12.6377 17.5148 12.6915 17.6582 12.6915C17.8016 12.6915 17.9405 12.6377 18.048 12.5302L21.8073 8.77092C22.0223 8.55585 22.0223 8.21084 21.8073 7.99577L18.048 4.2365C17.8329 4.02143 17.4879 4.02143 17.2729 4.2365C17.0578 4.45157 17.0578 4.79658 17.2729 5.01165L20.0957 7.83446H9.79465C9.48997 7.83446 9.24353 8.0809 9.24353 8.38558C9.24353 8.69027 9.48997 8.9367 9.79465 8.9367H20.0912L17.2684 11.7595C17.0533 11.9701 17.0533 12.3196 17.2684 12.5302Z" fill="#005CA4"/>
</svg>
