<svg width="23" height="17" viewBox="0 0 23 17" fill="none" xmlns="http://www.w3.org/2000/svg">
<path fill-rule="evenodd" clip-rule="evenodd" d="M11.5112 8.63878C12.738 9.03862 13.8625 9.69913 14.8073 10.5914C16.4455 12.1387 17.3478 14.1958 17.3478 16.384H15.9925C15.9925 12.5727 12.7094 9.472 8.67388 9.472C4.63839 9.472 1.35529 12.5727 1.35529 16.384H0C0 14.1958 0.902253 12.1387 2.54053 10.5914C3.48527 9.69913 4.60976 9.03862 5.83664 8.63878C4.52258 7.78403 3.65929 6.35354 3.65929 4.736C3.65929 2.12458 5.90884 0 8.67388 0C11.4389 0 13.6885 2.12458 13.6885 4.736C13.6885 6.35354 12.8252 7.78403 11.5112 8.63878ZM5.01459 4.736C5.01459 6.64166 6.65615 8.192 8.67388 8.192C10.6916 8.192 12.3332 6.64166 12.3332 4.736C12.3332 2.83034 10.6916 1.28 8.67388 1.28C6.65615 1.28 5.01459 2.83034 5.01459 4.736Z" fill="#90979D"/>
<path d="M19.3263 3V9.65261" stroke="#8E969E" stroke-width="1.2"/>
<path d="M22.6526 6.32629H16" stroke="#8E969E" stroke-width="1.2"/>
</svg>
