<svg width="40" height="40" viewBox="0 0 40 40" fill="none" xmlns="http://www.w3.org/2000/svg">
<rect width="40" height="40" fill="white"/>
<circle cx="20" cy="20" r="20" fill="#C4C4C4"/>
<path fill-rule="evenodd" clip-rule="evenodd" d="M27.5 29C27.5 29 29 29 29 27.5C29 26 27.5 21.5 20 21.5C12.5 21.5 11 26 11 27.5C11 29 12.5 29 12.5 29H27.5ZM12.5075 27.584V27.581V27.584ZM12.533 27.5H27.467C27.474 27.4992 27.481 27.4982 27.488 27.497L27.5 27.494C27.4985 27.125 27.269 26.015 26.252 24.998C25.274 24.02 23.4335 23 20 23C16.565 23 14.726 24.02 13.748 24.998C12.731 26.015 12.503 27.125 12.5 27.494C12.511 27.4961 12.522 27.4981 12.533 27.5ZM27.494 27.584V27.581V27.584ZM20 18.5C20.7956 18.5 21.5587 18.1839 22.1213 17.6213C22.6839 17.0587 23 16.2956 23 15.5C23 14.7044 22.6839 13.9413 22.1213 13.3787C21.5587 12.8161 20.7956 12.5 20 12.5C19.2044 12.5 18.4413 12.8161 17.8787 13.3787C17.3161 13.9413 17 14.7044 17 15.5C17 16.2956 17.3161 17.0587 17.8787 17.6213C18.4413 18.1839 19.2044 18.5 20 18.5ZM24.5 15.5C24.5 16.6935 24.0259 17.8381 23.182 18.682C22.3381 19.5259 21.1935 20 20 20C18.8065 20 17.6619 19.5259 16.818 18.682C15.9741 17.8381 15.5 16.6935 15.5 15.5C15.5 14.3065 15.9741 13.1619 16.818 12.318C17.6619 11.4741 18.8065 11 20 11C21.1935 11 22.3381 11.4741 23.182 12.318C24.0259 13.1619 24.5 14.3065 24.5 15.5Z" fill="white"/>
</svg>
