<svg width="20" height="21" viewBox="0 0 20 21" fill="none" xmlns="http://www.w3.org/2000/svg">
<path fill-rule="evenodd" clip-rule="evenodd" d="M15.4545 7.03252V5.06993C15.4545 2.27448 13.0075 0 10 0C6.9925 0 4.54545 2.27448 4.54545 5.06993V7.03252C3.38602 7.23741 2.5 8.27378 2.5 9.52098V16.3538C2.5 17.7472 3.60557 18.8811 4.96443 18.8811H15.0356C16.3944 18.8811 17.5 17.7472 17.5 16.3535V9.52063C17.5 8.27378 16.614 7.23741 15.4545 7.03252ZM5.22727 5.06993C5.22727 2.65979 7.36818 0.699301 10 0.699301C12.6318 0.699301 14.7727 2.65979 14.7727 5.06993V6.99301H5.22727V5.06993ZM15.0356 18.1818C16.0184 18.1818 16.8182 17.3615 16.8182 16.3535V9.52063C16.8182 8.51259 16.0184 7.69231 15.0356 7.69231H4.96443C3.98159 7.69231 3.18182 8.51259 3.18182 9.52063V16.3535C3.18182 17.3615 3.98159 18.1818 4.96443 18.1818H15.0356Z" fill="#9FA1A6"/>
<path fill-rule="evenodd" clip-rule="evenodd" d="M8.63647 11.1886C8.63647 10.4173 9.24807 9.79004 10.0001 9.79004C10.7522 9.79004 11.3637 10.4173 11.3637 11.1886V13.2865C11.3637 14.0579 10.7522 14.6851 10.0001 14.6851C9.24807 14.6851 8.63647 14.0579 8.63647 13.2865V11.1886ZM10.0001 13.9858C10.3761 13.9858 10.6819 13.6722 10.6819 13.2865V11.1886C10.6819 10.803 10.3761 10.4893 10.0001 10.4893C9.62409 10.4893 9.31829 10.803 9.31829 11.1886V13.2865C9.31829 13.6722 9.62409 13.9858 10.0001 13.9858Z" fill="#9FA1A6"/>
<path d="M1.14661 18.1253C0.741598 18.5407 0.741597 19.2032 1.14661 19.6186C1.56639 20.0491 2.25846 20.0491 2.67824 19.6186L18.8533 3.02878C19.2583 2.61338 19.2583 1.95084 18.8533 1.53544C18.4335 1.1049 17.7415 1.1049 17.3217 1.53544L1.14661 18.1253Z" fill="#9FA1A6" stroke="white" stroke-linejoin="round"/>
</svg>
