<svg width="20" height="25" viewBox="0 0 20 25" fill="none" xmlns="http://www.w3.org/2000/svg">
<path fill-rule="evenodd" clip-rule="evenodd" d="M17.2727 9.14227V6.59091C17.2727 2.95682 14.01 0 10 0C5.99 0 2.72727 2.95682 2.72727 6.59091V9.14227C1.18136 9.40864 0 10.7559 0 12.3773V21.26C0 23.0714 1.47409 24.5455 3.28591 24.5455H16.7141C18.5259 24.5455 20 23.0714 20 21.2595V12.3768C20 10.7559 18.8186 9.40864 17.2727 9.14227ZM3.63636 6.59091C3.63636 3.45773 6.49091 0.909091 10 0.909091C13.5091 0.909091 16.3636 3.45773 16.3636 6.59091V9.09091H3.63636V6.59091ZM16.7141 23.6364C18.0245 23.6364 19.0909 22.57 19.0909 21.2595V12.3768C19.0909 11.0664 18.0245 10 16.7141 10H3.28591C1.97545 10 0.909091 11.0664 0.909091 12.3768V21.2595C0.909091 22.57 1.97545 23.6364 3.28591 23.6364H16.7141Z" fill="currentColor"/>
<path fill-rule="evenodd" clip-rule="evenodd" d="M8.18188 14.5452C8.18188 13.5425 8.99734 12.7271 10.0001 12.7271C11.0028 12.7271 11.8182 13.5425 11.8182 14.5452V17.2725C11.8182 18.2752 11.0028 19.0907 10.0001 19.0907C8.99734 19.0907 8.18188 18.2752 8.18188 17.2725V14.5452ZM10.0001 18.1816C10.5014 18.1816 10.9092 17.7739 10.9092 17.2725V14.5452C10.9092 14.0439 10.5014 13.6361 10.0001 13.6361C9.4987 13.6361 9.09098 14.0439 9.09098 14.5452V17.2725C9.09098 17.7739 9.4987 18.1816 10.0001 18.1816Z" fill="currentColor"/>
</svg>
