<svg width="21" height="20" viewBox="0 0 21 20" fill="none" xmlns="http://www.w3.org/2000/svg">
<path fill-rule="evenodd" clip-rule="evenodd" d="M19.263 2.19107V5.8397C20.2393 6.02511 20.8511 6.90174 20.8511 8.18253V9.77062C20.8511 11.051 20.2393 11.9276 19.263 12.1131V14.3308C19.263 14.6938 19.0975 15.037 18.8134 15.263C18.5293 15.4889 18.1577 15.573 17.804 15.4913L8.49777 13.3438H8.39176L10.8839 18.3272C10.9456 18.4504 10.9391 18.5967 10.8666 18.7139C10.7942 18.831 10.6663 18.9023 10.5285 18.9021H8.1464C7.99592 18.9022 7.85833 18.8172 7.79107 18.6826L5.1064 13.3129C4.7089 13.222 4.3855 12.9341 4.24923 12.5498H2.98511C1.88931 12.5485 1.00131 11.6605 1 10.5647V7.38849C1.00131 6.29269 1.88931 5.40469 2.98511 5.40338H4.24923C4.41688 4.92919 4.8643 4.61142 5.36725 4.60933H8.46958L17.6444 1.07941C18.0106 0.938527 18.4228 0.987096 18.7463 1.20925C19.0697 1.43141 19.263 1.79865 19.263 2.19107ZM2.98511 11.7557H4.17618V6.19742H2.98511C2.3273 6.19742 1.79404 6.73068 1.79404 7.38849V10.5647C1.79404 11.2225 2.3273 11.7557 2.98511 11.7557ZM4.97022 12.1528V5.8004C4.97022 5.58113 5.14798 5.40338 5.36725 5.40338H8.1464V12.5498H5.36725C5.14798 12.5498 4.97022 12.372 4.97022 12.1528ZM8.39176 18.1081H9.88615L7.50402 13.3438H6.00963L8.39176 18.1081ZM18.469 14.3308C18.469 14.4519 18.4137 14.5663 18.3189 14.6416C18.2241 14.7169 18.1002 14.7449 17.9822 14.7175L8.94045 12.6328V5.27871L17.9294 1.82144C18.0514 1.77454 18.1886 1.79063 18.2963 1.86446C18.4041 1.9383 18.4687 2.06043 18.469 2.19107V14.3308ZM19.263 11.298C19.9713 11.0605 20.0571 10.1811 20.0571 9.77062V8.18253C20.0571 7.77161 19.9713 6.893 19.263 6.65479V11.298Z" fill="currentColor"/>
<path d="M19.263 5.8397H19.163V5.9225L19.2444 5.93795L19.263 5.8397ZM19.263 2.19107H19.363V2.19107L19.263 2.19107ZM19.263 12.1131L19.2444 12.0148L19.163 12.0303V12.1131H19.263ZM19.263 14.3308L19.363 14.3308V14.3308H19.263ZM17.804 15.4913L17.8265 15.3939L17.8265 15.3939L17.804 15.4913ZM8.49777 13.3438L8.52025 13.2464L8.50916 13.2438H8.49777V13.3438ZM8.39176 13.3438V13.2438H8.22995L8.30232 13.3885L8.39176 13.3438ZM10.8839 18.3272L10.7944 18.372L10.7945 18.372L10.8839 18.3272ZM10.5285 18.9021L10.5286 18.8021H10.5285V18.9021ZM8.1464 18.9021V18.8021H8.14636L8.1464 18.9021ZM7.79107 18.6826L7.88052 18.6379L7.88051 18.6379L7.79107 18.6826ZM5.1064 13.3129L5.19585 13.2681L5.17473 13.2259L5.12869 13.2154L5.1064 13.3129ZM4.24923 12.5498L4.34348 12.5164L4.31987 12.4498H4.24923V12.5498ZM2.98511 12.5498L2.98499 12.6498H2.98511V12.5498ZM1 10.5647H0.9L0.9 10.5648L1 10.5647ZM1 7.38849L0.9 7.38837V7.38849H1ZM2.98511 5.40338V5.30338H2.98499L2.98511 5.40338ZM4.24923 5.40338V5.50338H4.31994L4.34351 5.43671L4.24923 5.40338ZM5.36725 4.60933V4.50933L5.36683 4.50933L5.36725 4.60933ZM8.46958 4.60933V4.70933H8.48815L8.50549 4.70266L8.46958 4.60933ZM17.6444 1.07941L17.6085 0.986072L17.6085 0.986075L17.6444 1.07941ZM4.17618 11.7557V11.8557H4.27618V11.7557H4.17618ZM4.17618 6.19742H4.27618V6.09742H4.17618V6.19742ZM8.1464 5.40338H8.2464V5.30338H8.1464V5.40338ZM8.1464 12.5498V12.6498H8.2464V12.5498H8.1464ZM9.88615 18.1081V18.2081H10.048L9.9756 18.0634L9.88615 18.1081ZM8.39176 18.1081L8.30232 18.1528L8.32996 18.2081H8.39176V18.1081ZM7.50402 13.3438L7.59346 13.2991L7.56582 13.2438H7.50402V13.3438ZM6.00963 13.3438V13.2438H5.84782L5.92019 13.3885L6.00963 13.3438ZM18.469 14.3308L18.569 14.3308V14.3308H18.469ZM17.9822 14.7175L18.0048 14.6201L18.0047 14.6201L17.9822 14.7175ZM8.94045 12.6328H8.84045V12.7123L8.91798 12.7302L8.94045 12.6328ZM8.94045 5.27871L8.90455 5.18538L8.84045 5.21003V5.27871H8.94045ZM17.9294 1.82144L17.9653 1.91478L17.9653 1.91477L17.9294 1.82144ZM18.2963 1.86446L18.3529 1.78196V1.78196L18.2963 1.86446ZM18.469 2.19107H18.569V2.19083L18.469 2.19107ZM19.263 11.298H19.163V11.437L19.2948 11.3928L19.263 11.298ZM19.263 6.65479L19.2949 6.56001L19.163 6.51565V6.65479H19.263ZM19.363 5.8397V2.19107H19.163V5.8397H19.363ZM20.9511 8.18253C20.9511 6.87051 20.3199 5.93864 19.2817 5.74146L19.2444 5.93795C20.1587 6.11159 20.7511 6.93296 20.7511 8.18253H20.9511ZM20.9511 9.77062V8.18253H20.7511V9.77062H20.9511ZM19.2817 12.2113C20.3199 12.0141 20.9511 11.0823 20.9511 9.77062H20.7511C20.7511 11.0198 20.1587 11.8412 19.2444 12.0148L19.2817 12.2113ZM19.363 14.3308V12.1131H19.163V14.3308H19.363ZM18.8756 15.3412C19.1836 15.0963 19.363 14.7243 19.363 14.3308L19.163 14.3308C19.163 14.6633 19.0114 14.9777 18.7511 15.1847L18.8756 15.3412ZM17.7815 15.5888C18.1649 15.6773 18.5677 15.5862 18.8756 15.3412L18.7511 15.1847C18.4909 15.3917 18.1505 15.4687 17.8265 15.3939L17.7815 15.5888ZM8.47528 13.4413L17.7815 15.5888L17.8265 15.3939L8.52025 13.2464L8.47528 13.4413ZM8.39176 13.4438H8.49777V13.2438H8.39176V13.4438ZM10.9733 18.2825L8.4812 13.2991L8.30232 13.3885L10.7944 18.372L10.9733 18.2825ZM10.9517 18.7664C11.0424 18.6198 11.0505 18.4366 10.9733 18.2824L10.7945 18.372C10.8406 18.4642 10.8357 18.5736 10.7816 18.6613L10.9517 18.7664ZM10.5284 19.0021C10.7009 19.0023 10.861 18.9131 10.9517 18.7664L10.7816 18.6613C10.7274 18.7489 10.6317 18.8022 10.5286 18.8021L10.5284 19.0021ZM8.1464 19.0021H10.5285V18.8021H8.1464V19.0021ZM7.70161 18.7273C7.78582 18.8958 7.95806 19.0022 8.14645 19.0021L8.14636 18.8021C8.03378 18.8022 7.93084 18.7386 7.88052 18.6379L7.70161 18.7273ZM5.01696 13.3576L7.70162 18.7273L7.88051 18.6379L5.19585 13.2681L5.01696 13.3576ZM4.15498 12.5832C4.30269 12.9998 4.65324 13.3118 5.08412 13.4103L5.12869 13.2154C4.76455 13.1321 4.46831 12.8684 4.34348 12.5164L4.15498 12.5832ZM2.98511 12.6498H4.24923V12.4498H2.98511V12.6498ZM0.9 10.5648C0.901379 11.7157 1.83405 12.6484 2.98499 12.6498L2.98523 12.4498C1.94456 12.4485 1.10125 11.6052 1.1 10.5645L0.9 10.5648ZM0.9 7.38849V10.5647H1.1V7.38849H0.9ZM2.98499 5.30338C1.83405 5.30475 0.901379 6.23743 0.9 7.38837L1.1 7.38861C1.10125 6.34794 1.94456 5.50462 2.98523 5.50338L2.98499 5.30338ZM4.24923 5.30338H2.98511V5.50338H4.24923V5.30338ZM5.36683 4.50933C4.82166 4.51159 4.33667 4.85605 4.15495 5.37004L4.34351 5.43671C4.49708 5.00234 4.90694 4.71124 5.36766 4.70933L5.36683 4.50933ZM8.46958 4.50933H5.36725V4.70933H8.46958V4.50933ZM17.6085 0.986075L8.43367 4.516L8.50549 4.70266L17.6803 1.17274L17.6085 0.986075ZM18.8029 1.12682C18.4522 0.886012 18.0055 0.833366 17.6085 0.986072L17.6803 1.17274C18.0158 1.04369 18.3933 1.08818 18.6896 1.29169L18.8029 1.12682ZM19.363 2.19107C19.363 1.7657 19.1535 1.36763 18.8029 1.12682L18.6896 1.29169C18.986 1.49519 19.163 1.8316 19.163 2.19107L19.363 2.19107ZM4.17618 11.6557H2.98511V11.8557H4.17618V11.6557ZM4.07618 6.19742V11.7557H4.27618V6.19742H4.07618ZM2.98511 6.29742H4.17618V6.09742H2.98511V6.29742ZM1.89404 7.38849C1.89404 6.78591 2.38253 6.29742 2.98511 6.29742V6.09742C2.27208 6.09742 1.69404 6.67545 1.69404 7.38849H1.89404ZM1.89404 10.5647V7.38849H1.69404V10.5647H1.89404ZM2.98511 11.6557C2.38253 11.6557 1.89404 11.1672 1.89404 10.5647H1.69404C1.69404 11.2777 2.27208 11.8557 2.98511 11.8557V11.6557ZM4.87022 5.8004V12.1528H5.07022V5.8004H4.87022ZM5.36725 5.30338C5.09275 5.30338 4.87022 5.5259 4.87022 5.8004H5.07022C5.07022 5.63636 5.20321 5.50338 5.36725 5.50338V5.30338ZM8.1464 5.30338H5.36725V5.50338H8.1464V5.30338ZM8.2464 12.5498V5.40338H8.0464V12.5498H8.2464ZM5.36725 12.6498H8.1464V12.4498H5.36725V12.6498ZM4.87022 12.1528C4.87022 12.4273 5.09275 12.6498 5.36725 12.6498V12.4498C5.2032 12.4498 5.07022 12.3168 5.07022 12.1528H4.87022ZM9.88615 18.0081H8.39176V18.2081H9.88615V18.0081ZM7.41458 13.3885L9.79671 18.1528L9.9756 18.0634L7.59346 13.2991L7.41458 13.3885ZM6.00963 13.4438H7.50402V13.2438H6.00963V13.4438ZM8.4812 18.0634L6.09907 13.2991L5.92019 13.3885L8.30232 18.1528L8.4812 18.0634ZM18.3811 14.7199C18.4998 14.6257 18.569 14.4824 18.569 14.3308L18.369 14.3308C18.369 14.4214 18.3276 14.507 18.2567 14.5633L18.3811 14.7199ZM17.9596 14.8149C18.1073 14.8492 18.2625 14.8142 18.3811 14.7199L18.2567 14.5633C18.1858 14.6197 18.0931 14.6406 18.0048 14.6201L17.9596 14.8149ZM8.91798 12.7302L17.9598 14.815L18.0047 14.6201L8.96291 12.5353L8.91798 12.7302ZM8.84045 5.27871V12.6328H9.04045V5.27871H8.84045ZM17.8935 1.72811L8.90455 5.18538L8.97634 5.37205L17.9653 1.91478L17.8935 1.72811ZM18.3529 1.78196C18.2179 1.68953 18.0462 1.66939 17.8935 1.72811L17.9653 1.91477C18.0566 1.87969 18.1592 1.89172 18.2398 1.94696L18.3529 1.78196ZM18.569 2.19083C18.5686 2.02729 18.4878 1.87439 18.3529 1.78196L18.2398 1.94696C18.3205 2.0022 18.3688 2.09356 18.369 2.1913L18.569 2.19083ZM18.569 14.3308V2.19107H18.369V14.3308H18.569ZM19.9571 9.77062C19.9571 9.97073 19.9359 10.2799 19.8317 10.5649C19.728 10.8487 19.5466 11.0974 19.2312 11.2032L19.2948 11.3928C19.6877 11.2611 19.9034 10.9514 20.0196 10.6335C20.1353 10.3169 20.1571 9.98103 20.1571 9.77062H19.9571ZM19.9571 8.18253V9.77062H20.1571V8.18253H19.9571ZM19.2311 6.74957C19.5466 6.85568 19.728 7.10448 19.8317 7.38824C19.9359 7.6732 19.9571 7.98222 19.9571 8.18253H20.1571C20.1571 7.97193 20.1353 7.63618 20.0196 7.31956C19.9034 7.00173 19.6877 6.69212 19.2949 6.56001L19.2311 6.74957ZM19.363 11.298V6.65479H19.163V11.298H19.363Z" fill="currentColor"/>
</svg>
