<svg width="51" height="14" viewBox="0 0 51 14" fill="none" xmlns="http://www.w3.org/2000/svg">
<path d="M37.9338 3.70435L37.0953 5.25614L35.8569 7.54796H37.0953H38.3338L37.9724 3.70435H37.9338Z" fill="#005CA9"/>
<path d="M0 0V1.89878H2.73522V2.24148H0V4.08672H2.73522V4.43049H0V6.33356H2.73522V6.67626H0V8.60931H2.73522V8.95309H0V10.8047H2.73522V11.1485H0V13.0291H50.9302V0H0ZM12.4163 4.61362H9.85045C9.93837 4.25486 9.88047 3.98498 9.69069 3.79328C9.5127 3.60158 9.20068 3.49877 8.76429 3.49877C8.17457 3.49877 7.57949 3.88324 7.48192 4.34375C7.33824 5.0238 8.11238 5.2412 8.75357 5.42112C10.2225 5.81844 12.4463 5.97158 11.9155 8.47009C11.5006 10.4181 9.37974 11.3424 7.23746 11.3424C5.0823 11.3424 3.31529 10.7126 3.81173 8.20129H6.37754C6.18025 9.07196 6.71958 9.54639 7.64383 9.54639C8.23569 9.54639 9.05701 9.23903 9.18782 8.62324C9.45587 7.36702 7.49908 7.63583 5.67309 6.7523C4.8239 6.34213 4.54405 5.49608 4.75528 4.49689C5.32355 2.30574 7.37684 1.70387 9.31327 1.70387C11.2261 1.70601 13.0435 2.38392 12.4163 4.61362ZM20.2788 7.39486H16.1476L15.7305 9.35576H20.2198L19.8371 11.1496H12.7808L14.7505 1.89771H21.5472H21.8067L21.5472 3.11537L21.4239 3.69154H16.9335L16.5282 5.60103H20.6595L20.2788 7.39486ZM26.7657 11.1496L25.1306 4.06316H25.1049L23.5973 11.1496H21.5483H21.2888L21.5483 9.92979L23.2574 1.89878H26.8494L28.4877 8.79245L28.5177 8.76674L29.9802 1.89878H31.7794H32.2887L31.7794 4.29448L30.3201 11.1507H26.7657V11.1496ZM38.8121 11.1496L38.5815 9.34291H37.0954H34.8223L33.8338 11.1496H31.7783H31.268L31.7783 10.311L36.8939 1.89878H37.0954H40.0247L41.7113 11.1507H38.8121V11.1496ZM45.2529 11.1496H42.6871L44.6567 1.89771H47.2225L45.2529 11.1496ZM50.9292 11.1475H48.194V10.8047H50.9292V11.1475ZM50.9292 8.95202H48.194V8.60931H50.9292V8.95202ZM50.9292 6.67519H48.194V6.33249H50.9292V6.67519ZM50.9292 4.42942H48.194V4.08565H50.9292V4.42942ZM50.9292 2.24148H48.194V1.89878H50.9292V2.24148Z" fill="#005CA9"/>
</svg>
