<svg width="18" height="14" viewBox="0 0 18 14" fill="none"   xmlns="http://www.w3.org/2000/svg">
<path fill-rule="evenodd" clip-rule="evenodd" d="M16.2805 0.0332031H1.6842C0.755475 0.0332031 0 0.788678 0 1.7174V11.8225C0 12.7513 0.755475 13.5067 1.6842 13.5067H16.2805C17.2092 13.5067 17.9647 12.7513 17.9647 11.8225V1.7174C17.9647 0.788678 17.2092 0.0332031 16.2805 0.0332031ZM16.2805 1.15599C16.3568 1.15599 16.4293 1.17182 16.4957 1.19945L8.98234 7.71129L1.46899 1.19945C1.53532 1.17185 1.60789 1.15599 1.68416 1.15599H16.2805ZM1.12279 11.8225C1.12279 12.1323 1.37445 12.3839 1.6842 12.3839H16.2805C16.5902 12.3839 16.8419 12.1323 16.8419 11.8225V2.38569L9.35021 8.87848C9.24439 8.97005 9.11336 9.01554 8.98234 9.01554C8.85131 9.01554 8.72029 8.97002 8.61446 8.87848L1.12279 2.38569V11.8225Z" fill="currentColor"/>
</svg>
