<svg width="24" height="24" viewBox="0 0 24 24" fill="none" xmlns="http://www.w3.org/2000/svg">
<path d="M12.0671 7.33325C9.46706 7.33325 7.40039 9.39992 7.40039 11.9999C7.40039 14.5999 9.46706 16.6666 12.0671 16.6666C14.6671 16.6666 16.7337 14.5999 16.7337 11.9999C16.7337 9.39992 14.6671 7.33325 12.0671 7.33325ZM12.0671 15.3333C10.2004 15.3333 8.73372 13.8666 8.73372 11.9999C8.73372 10.1333 10.2004 8.66659 12.0671 8.66659C13.9337 8.66659 15.4004 10.1333 15.4004 11.9999C15.4004 13.8666 13.9337 15.3333 12.0671 15.3333Z" fill="currentColor"/>
<path d="M21.8673 9.79992L20.0007 9.19992L19.6007 8.19992L20.534 6.46659C20.734 6.06659 20.6673 5.53325 20.334 5.19992L18.734 3.59992C18.4007 3.26659 17.8673 3.19992 17.4673 3.39992L15.734 4.33325L14.734 3.93325L14.134 2.06659C14.0007 1.66659 13.6007 1.33325 13.134 1.33325H10.8673C10.4007 1.33325 10.0007 1.66659 9.93398 2.13325L9.33398 3.99992C8.93398 4.06659 8.60065 4.19992 8.26732 4.39992L6.53398 3.46659C6.13398 3.26659 5.60065 3.33325 5.26732 3.66659L3.66732 5.26659C3.33398 5.59992 3.26732 6.13325 3.46732 6.53325L4.33398 8.19992C4.20065 8.53325 4.06732 8.93325 3.93398 9.26659L2.06732 9.86659C1.66732 9.99992 1.33398 10.3999 1.33398 10.8666V13.1333C1.33398 13.5999 1.66732 13.9999 2.13398 14.1333L4.00065 14.7333L4.40065 15.7333L3.46732 17.4666C3.26732 17.8666 3.33398 18.3999 3.66732 18.7333L5.26732 20.3333C5.60065 20.6666 6.13398 20.7333 6.53398 20.5333L8.26732 19.5999L9.26732 19.9999L9.86732 21.9333C10.0007 22.3333 10.4007 22.6666 10.8673 22.6666H13.134C13.6007 22.6666 14.0007 22.3333 14.134 21.9333L14.734 19.9999L15.734 19.5999L17.4673 20.5333C17.8673 20.7333 18.4007 20.6666 18.734 20.3333L20.334 18.7333C20.6673 18.3999 20.734 17.8666 20.534 17.4666L19.6007 15.7333L20.0007 14.7333L21.934 14.1333C22.334 13.9999 22.6673 13.5999 22.6673 13.1333V10.8666C22.6673 10.3999 22.334 9.93325 21.8673 9.79992ZM21.334 12.9333L18.934 13.6666L18.8673 13.9999L18.2673 15.3999L18.0673 15.7333L19.2673 17.9333L17.934 19.2666L15.734 18.0666L15.4007 18.2666C14.934 18.5333 14.4673 18.7333 14.0007 18.8666L13.6673 18.9333L12.934 21.3333H11.0673L10.334 18.9333L10.0007 18.8666L8.60065 18.2666L8.26732 18.0666L6.06732 19.2666L4.73398 17.9333L5.93398 15.7333L5.73398 15.3999C5.46732 14.9333 5.26732 14.4666 5.13398 13.9999L5.06732 13.6666L2.66732 12.9333V11.0666L4.93398 10.3999L5.06732 10.0666C5.20065 9.53325 5.40065 9.06659 5.66732 8.59992L5.86732 8.26659L4.73398 6.06659L6.06732 4.73325L8.20065 5.93325L8.53398 5.73325C9.00065 5.46659 9.46732 5.26659 10.0007 5.13325L10.334 4.99992L11.0673 2.66659H12.934L13.6673 4.99992L14.0007 5.13325C14.4673 5.26659 14.934 5.46659 15.4007 5.73325L15.734 5.93325L17.934 4.73325L19.2673 6.06659L18.0673 8.26659L18.2673 8.59992C18.534 9.06659 18.734 9.53325 18.8673 9.99992L18.934 10.3333L21.334 11.0666V12.9333Z" fill="currentColor"/>
</svg>
