<svg width="26" height="17" viewBox="0 0 26 17" fill="none"   xmlns="http://www.w3.org/2000/svg">
<path fill-rule="evenodd" clip-rule="evenodd" d="M21.7566 7.60019C22.4594 7.11405 22.9248 6.30539 22.9248 5.39389C22.9248 3.90277 21.6996 2.69679 20.1848 2.69679C18.67 2.69679 17.4448 3.90277 17.4448 5.39389C17.4448 6.30539 17.9054 7.11405 18.613 7.60019C18.0099 7.80586 17.459 8.12371 16.9937 8.53506C16.3526 7.99751 15.5975 7.58616 14.7713 7.3431C15.7732 6.74478 16.4476 5.65566 16.4476 4.41695C16.4476 2.52851 14.8947 1 12.9763 1C11.0578 1 9.50495 2.53319 9.50495 4.41695C9.50495 5.65566 10.1745 6.74478 11.1812 7.3431C10.3645 7.58616 9.61892 7.99283 8.98259 8.52103C8.51721 8.11904 7.97586 7.80586 7.38227 7.60486C8.08508 7.11873 8.55046 6.31007 8.55046 5.39857C8.55046 3.90745 7.32529 2.70146 5.81045 2.70146C4.29561 2.70146 3.07044 3.90745 3.07044 5.39857C3.07044 6.31007 3.53106 7.11873 4.23862 7.60486C2.35338 8.24525 1 10.0075 1 12.0782V12.3867C1 12.3961 1.0095 12.4054 1.01899 12.4054H6.82667C6.79343 12.6625 6.77444 12.9289 6.77444 13.1954V13.5132C6.77444 14.8875 7.90463 16 9.30075 16H16.6613C18.0574 16 19.1876 14.8875 19.1876 13.5132V13.1954C19.1876 12.9289 19.1686 12.6625 19.1353 12.4054H24.981C24.9905 12.4054 25 12.3961 25 12.3867V12.0782C24.9905 10.0028 23.6419 8.24057 21.7566 7.60019ZM18.2046 5.38922C18.2046 4.31412 19.0926 3.44001 20.1848 3.44001C21.277 3.44001 22.165 4.31412 22.165 5.38922C22.165 6.4503 21.296 7.31505 20.2228 7.33842H20.1848H20.1468C19.0689 7.31973 18.2046 6.45497 18.2046 5.38922ZM12.9668 1.7479C11.4709 1.7479 10.2552 2.94453 10.2552 4.41695C10.2552 5.83796 11.3902 7.00187 12.8101 7.08133H12.9668H13.1235C14.5433 7.00187 15.6783 5.83796 15.6783 4.41695C15.6783 2.94453 14.4626 1.7479 12.9668 1.7479ZM3.81599 5.38922C3.81599 4.31412 4.704 3.44001 5.7962 3.44001C6.88841 3.44001 7.77641 4.31412 7.77641 5.38922C7.77641 6.4503 6.9074 7.31505 5.83419 7.33842H5.7962H5.75821C4.685 7.31973 3.81599 6.45497 3.81599 5.38922ZM1.76929 11.6529H6.95964C7.22082 10.6619 7.72893 9.76441 8.41274 9.03521C7.71468 8.45092 6.81243 8.09099 5.82469 8.08632H5.7962H5.76771C3.69252 8.10034 1.98298 9.66158 1.76929 11.6529ZM18.4183 13.5132C18.4183 14.4715 17.6252 15.2521 16.6518 15.2521H9.29125C8.31777 15.2521 7.52473 14.4715 7.52473 13.5132V13.1954C7.52473 10.2926 9.88009 7.91804 12.8101 7.8339C12.8623 7.83858 12.9193 7.83858 12.9715 7.83858C13.0237 7.83858 13.0807 7.83858 13.133 7.8339C16.0629 7.91804 18.4183 10.2926 18.4183 13.1954V13.5132ZM17.5445 9.05391C18.2236 9.78311 18.7222 10.6666 18.9834 11.6529H24.2117C23.998 9.66158 22.2885 8.10034 20.2133 8.08632H20.1848H20.1563C19.1591 8.09567 18.2473 8.45559 17.5445 9.05391Z" fill="currentColor"/>
<path d="M21.7566 7.60019L21.6713 7.47682L21.4262 7.64636L21.7084 7.74222L21.7566 7.60019ZM18.613 7.60019L18.6614 7.74216L18.9442 7.64573L18.6979 7.47655L18.613 7.60019ZM16.9937 8.53506L16.8973 8.65L16.9962 8.73297L17.093 8.64745L16.9937 8.53506ZM14.7713 7.3431L14.6944 7.21431L14.3998 7.39019L14.7289 7.487L14.7713 7.3431ZM11.1812 7.3431L11.224 7.48687L11.5523 7.38916L11.2579 7.21415L11.1812 7.3431ZM8.98259 8.52103L8.88453 8.63455L8.98066 8.71758L9.07839 8.63645L8.98259 8.52103ZM7.38227 7.60486L7.29694 7.4815L7.05154 7.65124L7.33416 7.74694L7.38227 7.60486ZM4.23862 7.60486L4.28687 7.74689L4.57017 7.65066L4.32357 7.48123L4.23862 7.60486ZM6.82667 12.4054L6.97543 12.4247L6.99732 12.2554H6.82667V12.4054ZM19.1353 12.4054V12.2554H18.9647L18.9866 12.4247L19.1353 12.4054ZM25 12.0782H25.15L25.15 12.0775L25 12.0782ZM20.2228 7.33842V7.48846L20.2261 7.48839L20.2228 7.33842ZM20.1468 7.33842L20.1442 7.48842H20.1468V7.33842ZM12.8101 7.08133L12.8017 7.23133H12.8101V7.08133ZM13.1235 7.08133V7.23157L13.1318 7.2311L13.1235 7.08133ZM5.83419 7.33842V7.48846L5.83746 7.48839L5.83419 7.33842ZM5.75821 7.33842L5.7556 7.48842H5.75821V7.33842ZM6.95964 11.6529V11.8029H7.07522L7.10468 11.6911L6.95964 11.6529ZM1.76929 11.6529L1.62015 11.6368L1.60233 11.8029H1.76929V11.6529ZM8.41274 9.03521L8.52216 9.13782L8.63072 9.02205L8.50902 8.92019L8.41274 9.03521ZM5.82469 8.08632L5.8254 7.93632H5.82469V8.08632ZM5.76771 8.08632V7.93632L5.7667 7.93632L5.76771 8.08632ZM12.8101 7.8339L12.8234 7.6845L12.8146 7.68371L12.8057 7.68397L12.8101 7.8339ZM13.133 7.8339L13.1373 7.68397L13.1284 7.68371L13.1196 7.6845L13.133 7.8339ZM18.9834 11.6529L18.8384 11.6912L18.8679 11.8029H18.9834V11.6529ZM17.5445 9.05391L17.4473 8.93969L17.3279 9.04136L17.4347 9.15614L17.5445 9.05391ZM24.2117 11.6529V11.8029H24.3787L24.3609 11.6368L24.2117 11.6529ZM20.2133 8.08632L20.2143 7.93632H20.2133V8.08632ZM20.1563 8.08632V7.93631L20.1549 7.93633L20.1563 8.08632ZM22.7748 5.39389C22.7748 6.25309 22.3362 7.01692 21.6713 7.47682L21.842 7.72355C22.5827 7.21119 23.0748 6.35769 23.0748 5.39389H22.7748ZM20.1848 2.84679C21.619 2.84679 22.7748 3.98784 22.7748 5.39389H23.0748C23.0748 3.81771 21.7802 2.54679 20.1848 2.54679V2.84679ZM17.5948 5.39389C17.5948 3.98784 18.7506 2.84679 20.1848 2.84679V2.54679C18.5894 2.54679 17.2948 3.81771 17.2948 5.39389H17.5948ZM18.6979 7.47655C18.029 7.01699 17.5948 6.25354 17.5948 5.39389H17.2948C17.2948 6.35724 17.7818 7.21112 18.528 7.72382L18.6979 7.47655ZM17.093 8.64745C17.5431 8.2496 18.0765 7.94161 18.6614 7.74216L18.5646 7.45822C17.9432 7.6701 17.375 7.99783 16.8943 8.42267L17.093 8.64745ZM14.7289 7.487C15.535 7.72412 16.2717 8.12545 16.8973 8.65L17.09 8.42012C16.4335 7.86956 15.6601 7.44821 14.8136 7.19919L14.7289 7.487ZM16.2976 4.41695C16.2976 5.59981 15.6537 6.64147 14.6944 7.21431L14.8482 7.47188C15.8928 6.84809 16.5976 5.7115 16.5976 4.41695H16.2976ZM12.9763 1.15C14.8141 1.15 16.2976 2.61358 16.2976 4.41695H16.5976C16.5976 2.44345 14.9753 0.85 12.9763 0.85V1.15ZM9.65495 4.41695C9.65495 2.61812 11.1385 1.15 12.9763 1.15V0.85C10.977 0.85 9.35495 2.44825 9.35495 4.41695H9.65495ZM11.2579 7.21415C10.2943 6.64151 9.65495 5.60013 9.65495 4.41695H9.35495C9.35495 5.71118 10.0547 6.84805 11.1046 7.47204L11.2579 7.21415ZM9.07839 8.63645C9.69957 8.12083 10.4272 7.724 11.224 7.48687L11.1385 7.19933C10.3017 7.44833 9.53826 7.86484 8.88678 8.40562L9.07839 8.63645ZM7.33416 7.74694C7.9091 7.94162 8.43356 8.24499 8.88453 8.63455L9.08064 8.40752C8.60087 7.99309 8.04262 7.6701 7.43038 7.46279L7.33416 7.74694ZM8.40045 5.39857C8.40045 6.25777 7.96183 7.02159 7.29694 7.4815L7.4676 7.72823C8.20833 7.21586 8.70046 6.36236 8.70046 5.39857H8.40045ZM5.81045 2.85146C7.24468 2.85146 8.40045 3.99251 8.40045 5.39857H8.70046C8.70046 3.82238 7.40589 2.55146 5.81045 2.55146V2.85146ZM3.22044 5.39857C3.22044 3.99251 4.37621 2.85146 5.81045 2.85146V2.55146C4.21501 2.55146 2.92044 3.82238 2.92044 5.39857H3.22044ZM4.32357 7.48123C3.65468 7.02167 3.22044 6.25821 3.22044 5.39857H2.92044C2.92044 6.36192 3.40745 7.21579 4.15368 7.72849L4.32357 7.48123ZM1.15 12.0782C1.15 10.0749 2.45939 8.36766 4.28687 7.74689L4.19038 7.46283C2.24738 8.12284 0.85 9.94004 0.85 12.0782H1.15ZM1.15 12.3867V12.0782H0.85V12.3867H1.15ZM1.01899 12.2554C1.0622 12.2554 1.09344 12.2752 1.11116 12.2927C1.12874 12.31 1.15 12.3418 1.15 12.3867H0.85C0.85 12.441 0.87601 12.4822 0.900709 12.5065C0.925555 12.5309 0.966291 12.5554 1.01899 12.5554V12.2554ZM6.82667 12.2554H1.01899V12.5554H6.82667V12.2554ZM6.92444 13.1954C6.92444 12.936 6.94294 12.676 6.97543 12.4247L6.67791 12.3862C6.64392 12.649 6.62444 12.9219 6.62444 13.1954H6.92444ZM6.92444 13.5132V13.1954H6.62444V13.5132H6.92444ZM9.30075 15.85C7.98523 15.85 6.92444 14.8024 6.92444 13.5132H6.62444C6.62444 14.9726 7.82403 16.15 9.30075 16.15V15.85ZM16.6613 15.85H9.30075V16.15H16.6613V15.85ZM19.0376 13.5132C19.0376 14.8024 17.9768 15.85 16.6613 15.85V16.15C18.138 16.15 19.3376 14.9726 19.3376 13.5132H19.0376ZM19.0376 13.1954V13.5132H19.3376V13.1954H19.0376ZM18.9866 12.4247C19.0191 12.676 19.0376 12.936 19.0376 13.1954H19.3376C19.3376 12.9219 19.3181 12.649 19.2841 12.3862L18.9866 12.4247ZM24.981 12.2554H19.1353V12.5554H24.981V12.2554ZM24.85 12.3867C24.85 12.3418 24.8713 12.31 24.8888 12.2927C24.9066 12.2752 24.9378 12.2554 24.981 12.2554V12.5554C25.0337 12.5554 25.0744 12.5309 25.0993 12.5065C25.124 12.4822 25.15 12.441 25.15 12.3867H24.85ZM24.85 12.0782V12.3867H25.15V12.0782H24.85ZM21.7084 7.74222C23.5355 8.36285 24.8408 10.07 24.85 12.0789L25.15 12.0775C25.1402 9.93558 23.7483 8.1183 21.8049 7.45816L21.7084 7.74222ZM20.1848 3.29001C19.012 3.29001 18.0546 4.22905 18.0546 5.38922H18.3546C18.3546 4.39918 19.1732 3.59001 20.1848 3.59001V3.29001ZM22.315 5.38922C22.315 4.22905 21.3576 3.29001 20.1848 3.29001V3.59001C21.1964 3.59001 22.015 4.39918 22.015 5.38922H22.315ZM20.2261 7.48839C21.3779 7.4633 22.315 6.53476 22.315 5.38922H22.015C22.015 6.36583 21.2141 7.1668 20.2195 7.18846L20.2261 7.48839ZM20.1848 7.48842H20.2228V7.18842H20.1848V7.48842ZM20.1468 7.48842H20.1848V7.18842H20.1468V7.48842ZM18.0546 5.38922C18.0546 6.53885 18.9865 7.46832 20.1442 7.4884L20.1494 7.18845C19.1512 7.17113 18.3546 6.37109 18.3546 5.38922H18.0546ZM10.4052 4.41695C10.4052 3.0296 11.5515 1.8979 12.9668 1.8979V1.5979C11.3903 1.5979 10.1052 2.85947 10.1052 4.41695H10.4052ZM12.8184 6.93157C11.4754 6.8564 10.4052 5.75576 10.4052 4.41695H10.1052C10.1052 5.92015 11.305 7.14734 12.8017 7.2311L12.8184 6.93157ZM12.9668 6.93133H12.8101V7.23133H12.9668V6.93133ZM13.1235 6.93133H12.9668V7.23133H13.1235V6.93133ZM15.5283 4.41695C15.5283 5.75576 14.4581 6.8564 13.1151 6.93157L13.1318 7.2311C14.6285 7.14734 15.8283 5.92015 15.8283 4.41695H15.5283ZM12.9668 1.8979C14.382 1.8979 15.5283 3.0296 15.5283 4.41695H15.8283C15.8283 2.85947 14.5432 1.5979 12.9668 1.5979V1.8979ZM5.7962 3.29001C4.62339 3.29001 3.66599 4.22905 3.66599 5.38922H3.96599C3.96599 4.39918 4.7846 3.59001 5.7962 3.59001V3.29001ZM7.92641 5.38922C7.92641 4.22905 6.96901 3.29001 5.7962 3.29001V3.59001C6.8078 3.59001 7.62641 4.39918 7.62641 5.38922H7.92641ZM5.83746 7.48839C6.98929 7.4633 7.92641 6.53476 7.92641 5.38922H7.62641C7.62641 6.36583 6.82551 7.1668 5.83092 7.18846L5.83746 7.48839ZM5.7962 7.48842H5.83419V7.18842H5.7962V7.48842ZM5.75821 7.48842H5.7962V7.18842H5.75821V7.48842ZM3.66599 5.38922C3.66599 6.53909 4.60289 7.46832 5.7556 7.4884L5.76082 7.18845C4.76711 7.17113 3.96599 6.37085 3.96599 5.38922H3.66599ZM6.95964 11.5029H1.76929V11.8029H6.95964V11.5029ZM8.30333 8.93261C7.60296 9.67946 7.08229 10.5989 6.81459 11.6146L7.10468 11.6911C7.35934 10.7249 7.8549 9.84937 8.52216 9.13782L8.30333 8.93261ZM5.82398 8.23632C6.77509 8.24082 7.6439 8.58729 8.31646 9.15024L8.50902 8.92019C7.78546 8.31455 6.84976 7.94117 5.8254 7.93632L5.82398 8.23632ZM5.7962 8.23632H5.82469V7.93632H5.7962V8.23632ZM5.76771 8.23632H5.7962V7.93632H5.76771V8.23632ZM1.91844 11.6689C2.12389 9.75432 3.76887 8.24983 5.76872 8.23632L5.7667 7.93632C3.61617 7.95086 1.84207 9.56884 1.62015 11.6368L1.91844 11.6689ZM16.6518 15.4021C17.7059 15.4021 18.5683 14.5566 18.5683 13.5132H18.2683C18.2683 14.3864 17.5446 15.1021 16.6518 15.1021V15.4021ZM9.29125 15.4021H16.6518V15.1021H9.29125V15.4021ZM7.37473 13.5132C7.37473 14.5566 8.23717 15.4021 9.29125 15.4021V15.1021C8.39837 15.1021 7.67473 14.3864 7.67473 13.5132H7.37473ZM7.37473 13.1954V13.5132H7.67473V13.1954H7.37473ZM12.8057 7.68397C9.79694 7.77037 7.37473 10.2092 7.37473 13.1954H7.67473C7.67473 10.376 9.96325 8.06572 12.8144 7.98384L12.8057 7.68397ZM12.9715 7.68858C12.9179 7.68858 12.8678 7.68847 12.8234 7.6845L12.7967 7.98331C12.8568 7.98869 12.9207 7.98858 12.9715 7.98858V7.68858ZM13.1196 7.6845C13.0752 7.68847 13.0251 7.68858 12.9715 7.68858V7.98858C13.0223 7.98858 13.0862 7.98869 13.1463 7.98331L13.1196 7.6845ZM18.5683 13.1954C18.5683 10.2092 16.1461 7.77037 13.1373 7.68397L13.1287 7.98384C15.9798 8.06572 18.2683 10.376 18.2683 13.1954H18.5683ZM18.5683 13.5132V13.1954H18.2683V13.5132H18.5683ZM19.1284 11.6145C18.8607 10.6036 18.3497 9.69843 17.6543 8.95169L17.4347 9.15614C18.0975 9.86779 18.5837 10.7295 18.8384 11.6912L19.1284 11.6145ZM24.2117 11.5029H18.9834V11.8029H24.2117V11.5029ZM20.2123 8.23632C22.2121 8.24983 23.8571 9.75432 24.0626 11.6689L24.3609 11.6368C24.1389 9.56884 22.3648 7.95086 20.2143 7.93632L20.2123 8.23632ZM20.1848 8.23632H20.2133V7.93632H20.1848V8.23632ZM20.1563 8.23632H20.1848V7.93632H20.1563V8.23632ZM17.6418 9.16813C18.3183 8.59218 19.1963 8.24533 20.1577 8.23631L20.1549 7.93633C19.1219 7.94601 18.1764 8.31901 17.4473 8.93969L17.6418 9.16813Z" fill="currentColor"/>
</svg>
