<svg width="18" height="24" viewBox="0 0 18 24" fill="none"   xmlns="http://www.w3.org/2000/svg">
<path fill-rule="evenodd" clip-rule="evenodd" d="M1 8.20487C1 4.23207 4.58878 1 9.00005 1C13.4112 1 17 4.23207 17 8.20487C17 12.0229 9.72972 22.3543 9.42024 22.7922C9.32882 22.9216 9.17034 23 9.00005 23C8.82976 23 8.67128 22.9216 8.57981 22.7922C8.27033 22.3543 1 12.023 1 8.20487ZM5.6862 16.8048C7.00776 19.0264 8.34238 21.0314 9.00002 22C9.65762 21.0314 10.9922 19.0263 12.3138 16.8048C14.7253 12.7507 16 9.83362 16 8.36878C16 4.857 12.8599 2 9.00002 2C5.14019 2 1.99995 4.857 2 8.36878C2 9.83362 3.27466 12.7507 5.6862 16.8048Z" fill="currentColor"/>
<path d="M9.42024 22.7922L9.33857 22.7345L9.33856 22.7345L9.42024 22.7922ZM8.57981 22.7922L8.49815 22.8499L8.49816 22.8499L8.57981 22.7922ZM9.00002 22L8.91729 22.0562L9.00003 22.178L9.08276 22.0562L9.00002 22ZM5.6862 16.8048L5.60025 16.8559L5.60025 16.8559L5.6862 16.8048ZM12.3138 16.8048L12.3997 16.8559L12.3997 16.8559L12.3138 16.8048ZM2 8.36878H2.1V8.36878L2 8.36878ZM9.00005 0.9C4.54366 0.9 0.9 4.16725 0.9 8.20487H1.1C1.1 4.29689 4.6339 1.1 9.00005 1.1V0.9ZM17.1 8.20487C17.1 4.16725 13.4563 0.9 9.00005 0.9V1.1C13.3661 1.1 16.9 4.29689 16.9 8.20487H17.1ZM9.5019 22.8499C9.6572 22.6302 11.5539 19.9354 13.4121 16.8173C14.3411 15.2584 15.2616 13.5917 15.9502 12.0746C16.6368 10.562 17.1 9.18296 17.1 8.20487H16.9C16.9 9.13581 16.4544 10.48 15.7681 11.992C15.0839 13.4995 14.1675 15.159 13.2403 16.7149C11.386 19.8264 9.49276 22.5163 9.33857 22.7345L9.5019 22.8499ZM9.00005 23.1C9.19998 23.1 9.39017 23.0081 9.50191 22.8499L9.33856 22.7345C9.26746 22.8351 9.1407 22.9 9.00005 22.9V23.1ZM8.49816 22.8499C8.60994 23.0081 8.80012 23.1 9.00005 23.1V22.9C8.85941 22.9 8.73263 22.8351 8.66147 22.7345L8.49816 22.8499ZM0.9 8.20487C0.9 9.18297 1.36318 10.562 2.04977 12.0747C2.73837 13.5918 3.65891 15.2584 4.58795 16.8173C6.44618 19.9354 8.34285 22.6302 8.49815 22.8499L8.66148 22.7345C8.50729 22.5163 6.61406 19.8265 4.75975 16.7149C3.83252 15.159 2.91614 13.4995 2.23188 11.992C1.54561 10.48 1.1 9.13582 1.1 8.20487H0.9ZM9.08276 21.9438C8.42567 20.9761 7.09228 18.9729 5.77214 16.7536L5.60025 16.8559C6.92325 19.0799 8.25909 21.0868 8.91729 22.0562L9.08276 21.9438ZM12.2279 16.7536C10.9077 18.9728 9.57433 20.9761 8.91729 21.9438L9.08276 22.0562C9.74092 21.0868 11.0768 19.0799 12.3997 16.8559L12.2279 16.7536ZM15.9 8.36878C15.9 9.07897 15.5891 10.1581 14.9696 11.5758C14.3517 12.9897 13.4324 14.7286 12.2279 16.7536L12.3997 16.8559C13.6067 14.8269 14.5305 13.0802 15.1528 11.6558C15.7736 10.2353 16.1 9.12343 16.1 8.36878H15.9ZM9.00002 2.1C12.8137 2.1 15.9 4.92091 15.9 8.36878H16.1C16.1 4.79309 12.906 1.9 9.00002 1.9V2.1ZM2.1 8.36878C2.09995 4.92091 5.18632 2.1 9.00002 2.1V1.9C5.09407 1.9 1.89995 4.79309 1.9 8.36878L2.1 8.36878ZM5.77214 16.7536C4.56756 14.7286 3.64825 12.9897 3.03041 11.5758C2.41093 10.1581 2.1 9.07897 2.1 8.36878H1.9C1.9 9.12343 2.2264 10.2353 2.84714 11.6558C3.46951 13.0802 4.3933 14.8269 5.60025 16.8559L5.77214 16.7536Z" fill="#979797"/>
<path fill-rule="evenodd" clip-rule="evenodd" d="M5.22559 8.45178C5.22559 6.42718 6.91875 4.78003 8.99995 4.78003C11.0811 4.78003 12.7743 6.42718 12.7743 8.45178C12.7743 10.4763 11.0811 12.1234 8.99995 12.1234C6.91875 12.1234 5.22559 10.4763 5.22559 8.45178ZM6.21937 8.45173C6.21937 9.9283 7.46678 11.1295 8.99995 11.1295C10.5332 11.1295 11.7805 9.9283 11.7805 8.45173C11.7805 6.97511 10.5331 5.77377 8.99995 5.77377C7.46678 5.77377 6.21937 6.97511 6.21937 8.45173Z" fill="currentColor"/>
<path d="M8.99995 4.68003C6.86614 4.68003 5.12559 6.36938 5.12559 8.45178H5.32559C5.32559 6.48499 6.97137 4.88003 8.99995 4.88003V4.68003ZM12.8743 8.45178C12.8743 6.36938 11.1338 4.68003 8.99995 4.68003V4.88003C11.0285 4.88003 12.6743 6.48499 12.6743 8.45178H12.8743ZM8.99995 12.2234C11.1337 12.2234 12.8743 10.5341 12.8743 8.45178H12.6743C12.6743 10.4185 11.0285 12.0234 8.99995 12.0234V12.2234ZM5.12559 8.45178C5.12559 10.5341 6.86615 12.2234 8.99995 12.2234V12.0234C6.97136 12.0234 5.32559 10.4185 5.32559 8.45178H5.12559ZM8.99995 11.0295C7.51842 11.0295 6.31937 9.86956 6.31937 8.45173H6.11937C6.11937 9.98705 7.41513 11.2295 8.99995 11.2295V11.0295ZM11.6805 8.45173C11.6805 9.86956 10.4815 11.0295 8.99995 11.0295V11.2295C10.5848 11.2295 11.8805 9.98705 11.8805 8.45173H11.6805ZM8.99995 5.87377C10.4815 5.87377 11.6805 7.03385 11.6805 8.45173H11.8805C11.8805 6.91637 10.5848 5.67377 8.99995 5.67377V5.87377ZM6.31937 8.45173C6.31937 7.03385 7.51843 5.87377 8.99995 5.87377V5.67377C7.41513 5.67377 6.11937 6.91637 6.11937 8.45173H6.31937Z" fill="#979797"/>
</svg>
