<svg width="257" height="168" viewBox="0 0 257 168" fill="none" xmlns="http://www.w3.org/2000/svg">
<path d="M86.7076 167H11.0978C11.0978 167 9.56519 144.384 18.6333 144.127C27.7013 143.87 26.6796 154.15 38.0466 140.015C49.4136 125.879 63.2073 126.65 64.9953 135.003C66.7834 143.356 61.5469 150.038 71.1259 147.982C80.7048 145.926 94.4985 151.323 86.7076 167Z" fill="#F2F2F2"/>
<path d="M48.2616 167L48 166.99C48.6101 152.153 51.7874 142.62 54.3454 137.236C57.1229 131.39 59.7993 129.023 59.826 129L60 129.191C59.9737 129.214 57.3284 131.558 54.5733 137.364C52.0294 142.726 48.8694 152.219 48.2616 167Z" fill="#F2F2F2"/>
<path d="M75.2416 167L75 166.927C77.9098 156.591 84.7619 150.065 84.8309 150L85 150.193C84.9317 150.257 78.1308 156.737 75.2416 167Z" fill="#F2F2F2"/>
<path d="M23.7102 168L23.4569 167.964C24.4595 160.493 22.6484 154.696 20.9525 151.149C19.1162 147.309 17.021 145.211 17 145.191L17.1769 145C17.1982 145.021 19.3258 147.151 21.1817 151.032C22.8935 154.613 24.7217 160.463 23.7102 168Z" fill="#F2F2F2"/>
<path fill-rule="evenodd" clip-rule="evenodd" d="M3.15268 167H97.0423L97.1366 166.813C101.813 157.52 99.8997 151.854 97.4713 148.736C92.9576 142.942 83.9652 141.773 77.5205 143.139C74.352 143.811 72.4269 143.735 71.4625 142.9C70.3071 141.899 70.4693 139.692 70.6748 136.897V136.897L70.6748 136.896C70.8667 134.284 71.1056 131.033 70.3556 127.573C69.5634 123.919 66.8569 121.29 62.93 120.359C56.8523 118.92 46.28 121.509 36.4814 133.542C27.4364 144.65 24.9486 143.184 21.1829 140.964L21.1828 140.964L21.1654 140.954C19.1705 139.778 16.6964 138.32 12.7662 138.431C10.9066 138.483 9.27818 139.259 7.92636 140.738C1.87933 147.355 3.07704 165.898 3.13102 166.684L3.15268 167ZM96.6198 166.322H3.79344C3.66031 163.815 2.99674 147.14 8.43152 141.194C9.65371 139.857 11.1185 139.155 12.7855 139.108C16.5158 139.003 18.8123 140.355 20.8348 141.547C24.7597 143.86 27.5961 145.532 37.0119 133.969C46.6111 122.18 56.888 119.624 62.7718 121.019C66.4329 121.886 68.9539 124.327 69.6885 127.716C70.4179 131.081 70.183 134.278 69.994 136.847L69.994 136.848C69.7748 139.832 69.6016 142.188 71.0141 143.411C72.1692 144.411 74.2204 144.532 77.6628 143.802C84.1042 142.436 92.7911 143.836 96.9317 149.151C100.213 153.364 100.104 159.298 96.6198 166.322Z" fill="#CFCCE0"/>
<path d="M189.716 119L162 114.346C166.954 104.423 169.218 94.6188 167.284 85L195 89.654C190.689 98.8448 188.871 108.944 189.716 119Z" fill="#DE8181"/>
<path d="M173.178 91.3146L187.319 93.7827L187.205 94.4429L173.063 91.9748L173.178 91.3146Z" fill="#3F3D56"/>
<path d="M172.721 93.9554L186.862 96.4236L186.748 97.0838L172.606 94.6157L172.721 93.9554Z" fill="#3F3D56"/>
<path d="M172.263 96.5975L186.404 99.0657L186.29 99.7259L172.148 97.2578L172.263 96.5975Z" fill="#3F3D56"/>
<path d="M171.806 99.2372L185.947 101.705L185.833 102.366L171.691 99.8974L171.806 99.2372Z" fill="#3F3D56"/>
<path d="M171.348 101.878L185.49 104.346L185.376 105.006L171.234 102.538L171.348 101.878Z" fill="#3F3D56"/>
<path d="M170.89 104.519L185.032 106.987L184.918 107.647L170.776 105.179L170.89 104.519Z" fill="#3F3D56"/>
<path d="M170.433 107.16L184.575 109.628L184.461 110.288L170.319 107.82L170.433 107.16Z" fill="#3F3D56"/>
<path d="M169.975 109.801L184.117 112.269L184.003 112.929L169.861 110.461L169.975 109.801Z" fill="#3F3D56"/>
<path d="M201.716 129L174 124.346C178.954 114.423 181.218 104.619 179.284 95L207 99.654C202.689 108.845 200.871 118.944 201.716 129Z" fill="#E09D9D"/>
<path d="M185.335 100.963L199.477 103.431L199.362 104.092L185.22 101.623L185.335 100.963Z" fill="#3F3D56"/>
<path d="M184.878 103.604L199.02 106.072L198.905 106.732L184.763 104.264L184.878 103.604Z" fill="#3F3D56"/>
<path d="M184.421 106.246L198.563 108.714L198.448 109.375L184.306 106.906L184.421 106.246Z" fill="#3F3D56"/>
<path d="M183.963 108.886L198.105 111.354L197.99 112.014L183.848 109.546L183.963 108.886Z" fill="#3F3D56"/>
<path d="M183.506 111.527L197.648 113.995L197.533 114.655L183.391 112.187L183.506 111.527Z" fill="#3F3D56"/>
<path d="M183.048 114.168L197.19 116.636L197.075 117.296L182.933 114.828L183.048 114.168Z" fill="#3F3D56"/>
<path d="M182.591 116.808L196.733 119.277L196.618 119.937L182.476 117.469L182.591 116.808Z" fill="#3F3D56"/>
<path d="M182.133 119.449L196.275 121.917L196.16 122.578L182.018 120.11L182.133 119.449Z" fill="#3F3D56"/>
<path fill-rule="evenodd" clip-rule="evenodd" d="M160.362 167H209.638L212 100H158L160.353 166.726L160.362 167ZM209.085 166.433H160.915L158.592 100.567H211.408L209.085 166.433Z" fill="#3F3D56"/>
<path d="M206.895 164H163.105L161 104H209L206.895 164Z" fill="#CCCCCC"/>
<g opacity="0.2">
<rect x="169.23" y="113.088" width="3.66321" height="45.7452" fill="white"/>
<rect x="183.654" y="113.088" width="3.66321" height="45.7452" fill="white"/>
<rect x="198.078" y="113.088" width="3.66321" height="45.7452" fill="white"/>
</g>
<path d="M180.768 82.2317L185.715 74.3768L245.973 112.614L241.026 120.469L180.768 82.2317Z" fill="#CCCCCC"/>
<path d="M221.876 83.6638C218.245 81.4211 213.61 81.4476 210.007 83.7317C206.404 86.0159 204.494 90.1392 205.116 94.2887L208.031 96.0877C206.527 92.6779 207.473 88.7092 210.365 86.2982C213.257 83.8871 217.42 83.5958 220.635 85.5797C223.849 87.5636 225.365 91.36 224.375 94.9444C223.384 98.5287 220.117 101.065 216.316 101.201L219.231 103C223.338 101.769 226.335 98.3162 226.903 94.1593C227.471 90.0024 225.508 85.9031 221.876 83.6638L221.876 83.6638Z" fill="#CCCCCC"/>
<rect y="167" width="257" height="1" fill="#2E2F34"/>
<path d="M135.404 71C135.404 71 146.436 79.3494 141.91 80.789C137.384 82.2285 131.727 75.8945 132.01 74.167C132.293 72.4396 135.404 71 135.404 71Z" fill="#FFB8B8"/>
<path d="M125.907 61L138 71.2778L133.163 76L125 70.4444L125.907 61Z" fill="#005CA4"/>
<path d="M150.89 103L128 88.2286C136.27 80.8926 142.097 72.6521 144.11 63L167 77.7714C159.588 84.6709 154.044 93.3528 150.89 103Z" fill="#EC4C47"/>
<path d="M147.14 70.7287L159.219 78.5119L158.859 79.0758L146.779 71.2926L147.14 70.7287Z" fill="white"/>
<path d="M145.698 72.9843L157.777 80.7675L157.416 81.3314L145.337 73.5483L145.698 72.9843Z" fill="white"/>
<path d="M144.255 75.2399L156.335 83.0231L155.974 83.587L143.895 75.8039L144.255 75.2399Z" fill="white"/>
<path d="M142.812 77.4958L154.891 85.2789L154.531 85.8429L142.451 78.0597L142.812 77.4958Z" fill="white"/>
<path d="M141.369 79.7514L153.449 87.5346L153.088 88.0985L141.009 80.3153L141.369 79.7514Z" fill="white"/>
<path d="M139.927 82.0073L152.006 89.7904L151.646 90.3544L139.566 82.5712L139.927 82.0073Z" fill="white"/>
<path d="M138.485 84.2629L150.564 92.046L150.203 92.61L138.124 84.8268L138.485 84.2629Z" fill="white"/>
<path d="M137.041 86.5187L149.121 94.3019L148.76 94.8658L136.681 87.0827L137.041 86.5187Z" fill="white"/>
<path d="M85.2897 139L81 148.103L93 151L92.6657 142.224L85.2897 139Z" fill="#FFB8B8"/>
<path d="M128 150.5L129.413 161L141 156.5L135.913 149L128 150.5Z" fill="#FFB8B8"/>
<path d="M103.288 58C103.288 58 101.507 69.4351 101.992 74.8734C102.476 80.3118 100.566 103.257 100.566 103.257C100.566 103.257 92.0226 112.58 90.0833 123.227C88.8086 129.935 86.7673 136.474 84 142.713L94.0667 146L114.016 108.112C114.016 108.112 128.322 76.7024 126.901 73.7101C125.479 70.7179 123.25 58.6617 123.25 58.6617L103.288 58Z" fill="#2E3641"/>
<path d="M84.1388 146.421C84.1388 146.421 84.1266 141.364 82.3165 143.547C80.5065 145.73 74.5971 149.945 78.0771 152.893C81.557 155.842 101.88 171.821 102.974 167.151C103.581 164.557 93.4451 147.054 93.4451 147.054C93.4451 147.054 90.0604 147.263 89.8257 148.12C89.591 148.976 84.1388 146.421 84.1388 146.421Z" fill="#2E3641"/>
<path d="M119.788 12L112 20.9322L119.788 29L127 18.0508L119.788 12Z" fill="#FFB8B8"/>
<path d="M133 11.4971C133.002 15.5003 129.859 18.7991 125.86 18.9912C121.861 19.1834 118.417 16.2011 118.035 12.2162C117.653 8.23129 120.468 4.64881 124.43 4.07758C128.392 3.50636 132.105 6.14781 132.864 10.0784C132.954 10.5459 133 11.021 133 11.4971Z" fill="#FFB8B8"/>
<path d="M119.78 6.81861C122.441 5.68919 125.577 5.83341 128.384 6.61499C129.976 7.05837 131.548 7.72676 132.662 8.85607C133.777 9.98537 134.35 11.649 133.771 13.0741L131.45 11.4712L131.237 12.884C129.705 10.7016 126.796 9.75344 124.098 8.94929C123.254 8.69778 122.133 8.52606 121.647 9.20413C121.442 9.48991 121.418 9.86287 121.2 10.1405C120.791 10.6607 119.937 10.6148 119.311 10.9034C118.725 11.1736 118.37 11.7252 118.054 12.2508C117.738 12.7763 117.878 13.5123 117.305 13.806C115.01 14.9836 116.363 10.4487 116.737 9.65631C117.477 8.09133 118.093 7.53485 119.78 6.81861Z" fill="#2F2E41"/>
<path d="M98 74.5387C98 74.5387 102.84 85.0774 106.257 89.3498C109.674 93.6223 120.778 113.845 120.778 113.845C120.778 113.845 118.785 126.378 123.056 136.347C125.702 142.657 127.613 149.252 128.75 156L139 153.152L134.729 110.427C134.729 110.427 129.319 76.2477 126.472 74.5387C123.625 72.8297 115.083 64 115.083 64L98 74.5387Z" fill="#2E3641"/>
<path d="M122.402 28.4853C122.402 28.4853 117.622 15.8195 111.154 19.76C104.686 23.7004 99.6246 58.8832 99.6246 58.8832C99.6246 58.8832 93.7193 74.9265 99.6246 76.6153C105.53 78.304 110.31 80.5557 111.154 77.4596C111.998 74.3636 111.435 69.0158 112.841 71.8304C114.247 74.645 113.685 78.0226 116.497 78.0226C119.309 78.0226 130.276 76.6153 129.995 74.645C129.713 72.6748 122.402 28.4853 122.402 28.4853Z" fill="#005CA4"/>
<path d="M98.2675 78.1045C98.2675 78.1045 94.6375 89 99.6637 89C104.69 89 103.963 78 103.963 78L98.2675 78.1045Z" fill="#FFB8B8"/>
<path d="M131.039 158.449C131.039 158.449 128.238 154.328 127.958 157.075C127.678 159.822 125.158 166.415 129.638 166.964C134.119 167.514 159.601 169.711 157.921 165.316C156.988 162.876 139.019 154 139.019 154C139.019 154 136.359 155.976 136.639 156.8C136.919 157.625 131.039 158.449 131.039 158.449Z" fill="#2E3641"/>
<path d="M137.847 13.7121C137.847 13.7121 136.475 14.851 134.694 12.5983C134.228 11.9854 133.829 11.327 133.504 10.6339C132.071 9.25758 130.15 8.46014 128.13 8.40355C127.994 8.39797 127.855 8.39517 127.713 8.39516C123.949 8.39516 123.08 5.87661 123.08 5.87661L117 7.83548C117 7.83548 117.869 0 126.265 0C134.662 0 134.952 6.71613 134.952 6.71613C134.952 6.71613 141.611 9.23467 137.847 13.7121Z" fill="#005CA4"/>
<path opacity="0.2" d="M135.498 13C135.036 12.3729 134.641 11.6992 134.32 10.9901C132.901 9.58198 130.999 8.7661 129 8.7082C131.095 8.05255 134.738 7.29096 136.326 9.27223C137.788 11.096 136.573 12.3386 135.498 13Z" fill="black"/>
<path d="M110.701 21.1221C110.701 21.1221 103.131 19.7105 101.168 26.4864C99.2055 33.2624 95 53.3079 95 53.3079L97.5233 73.918L97.2429 79H105.374V73.6357C105.374 73.071 106.495 51.0492 106.495 51.0492L115.747 29.8744C115.747 29.8744 117.71 23.0984 110.701 21.1221Z" fill="#005CA4"/>
<path opacity="0.2" d="M116 33L106.202 51.4979L105 78L108.28 51.2133L116 33Z" fill="black"/>
<path opacity="0.2" d="M127 61L130 72L128.5 61.9927L127 61Z" fill="black"/>
<path opacity="0.2" d="M103 87L116 104.429L114.64 107L103 87Z" fill="black"/>
</svg>
