<svg width="248" height="168" viewBox="0 0 248 168" fill="none" xmlns="http://www.w3.org/2000/svg">
<path d="M226.63 58.6264C226.382 58.8432 226.103 59.0599 225.856 59.2457H160.149C159.653 59.0599 159.158 58.8432 158.693 58.6264C151.757 55.6229 145.317 51.5975 139.526 46.7051C135.687 43.4538 132.157 40.1096 129.618 36.9822C126.057 32.6162 122.775 27.8167 121.257 22.3979C119.74 16.9481 120.174 10.7242 123.58 6.20342C124.632 4.81001 125.933 3.63336 127.419 2.70442C127.667 2.5496 127.915 2.39478 128.162 2.27092C132.25 -0.0204588 137.39 -0.577821 142.004 0.598832C148.568 2.30188 154.049 7.03946 157.95 12.6131C161.852 18.1867 164.391 24.5654 166.868 30.8822C169.407 19.6111 177.086 9.48566 187.429 4.37651C197.802 -0.763608 210.652 -0.701679 220.808 4.87194C223.998 6.63692 226.877 8.89734 229.355 11.5913C229.602 11.8699 229.85 12.1176 230.067 12.3963C235.021 18.1248 238.118 25.4634 238.365 33.0187C238.644 42.7416 234.154 52.5264 226.63 58.6264Z" fill="#F2F2F2"/>
<path d="M162.781 59.2458H161.852C161.852 59.0291 161.821 58.8433 161.821 58.6266C161.511 54.5702 160.83 50.5758 159.777 46.6433C157.424 37.6635 153.398 29.2102 147.918 21.7168C142.437 14.2234 135.563 7.84468 127.636 3.01421C127.512 2.95228 127.45 2.82842 127.419 2.70456C127.388 2.45684 127.543 2.20913 127.791 2.17816C127.884 2.1472 128.007 2.17816 128.1 2.24009C128.131 2.24009 128.131 2.27106 128.162 2.27106C132.652 4.99594 136.832 8.24722 140.579 11.901C147.329 18.4655 152.748 26.2686 156.588 34.8458C159.963 42.3702 162.037 50.4209 162.719 58.6575C162.75 58.8433 162.75 59.0601 162.781 59.2458Z" fill="white"/>
<path d="M230.036 12.3654C229.324 12.4893 228.642 12.6131 227.992 12.7679C222.449 13.9136 217.031 15.5548 211.798 17.6913C206.565 19.8279 201.548 22.4289 196.78 25.4325C192.011 28.436 187.49 31.8731 183.341 35.6817C179.161 39.4904 175.321 43.6396 171.884 48.0985C169.314 51.4427 166.961 54.9726 164.886 58.6574C164.762 58.8742 164.639 59.06 164.546 59.2767H163.493C163.617 59.06 163.71 58.8742 163.834 58.6574C166.373 54.1676 169.252 49.8635 172.504 45.8691C176.095 41.4102 180.059 37.2919 184.363 33.5761C188.636 29.8604 193.25 26.5162 198.111 23.5746C203.004 20.6329 208.113 18.1248 213.439 16.0812C218.61 14.0994 223.936 12.6131 229.386 11.5913C229.54 11.5603 229.695 11.5294 229.85 11.4984C230.345 11.3745 230.593 12.2416 230.036 12.3654Z" fill="white"/>
<path d="M61.2169 61.104C62.8581 57.9766 63.1367 53.9202 61.0931 51.0405C59.8855 49.3375 57.9657 48.2227 55.953 47.5725C53.9403 46.9222 51.8347 46.7674 49.7291 46.6126C47.6545 46.4578 45.5489 46.3339 43.5052 46.7984C41.4615 47.2628 39.5108 48.4085 38.5199 50.2354C36.8478 53.3319 38.3651 57.2954 37.1575 60.5776C36.0427 63.6121 32.8224 65.3771 29.695 66.0893C26.5676 66.8015 23.2544 66.7396 20.127 67.4208C16.9995 68.102 13.7792 69.867 12.6335 72.9015C11.7975 75.069 12.231 77.5771 13.3148 79.6518C14.3985 81.7264 16.1016 83.3675 17.9285 84.8538C20.6224 87.0523 23.7808 88.9102 27.2798 89.096C30.9336 89.2818 34.5255 87.5477 37.1575 85.0086C39.7895 82.4696 41.5854 79.1563 43.0098 75.7812C43.9077 73.6447 44.7747 71.3533 46.6017 69.8979C47.9331 68.8451 49.6362 68.3807 51.2773 67.9162L53.1352 67.4208C56.5723 66.5228 59.452 64.2624 61.155 61.135C61.186 61.1659 61.186 61.135 61.2169 61.104Z" fill="#2F2E41"/>
<path d="M46.4778 163.689H42.6691L40.8732 149.043H46.4778V163.689Z" fill="#FFB8B8"/>
<path d="M39.9753 162.605H47.2829V167.188H35.3616C35.3616 164.649 37.4052 162.605 39.9753 162.605Z" fill="#2F2E41"/>
<path d="M78.0616 163.689H74.253L72.457 149.043H78.0616V163.689Z" fill="#FFB8B8"/>
<path d="M71.559 162.605H78.8667V167.188H66.9453C66.9453 164.649 68.989 162.605 71.559 162.605Z" fill="#2F2E41"/>
<path d="M53.7545 152.047C53.6926 152.047 53.6616 152.047 53.5997 152.047L38.1483 150.406C37.3433 150.313 36.7859 149.6 36.8478 148.795C36.8478 148.733 36.8788 148.672 36.8788 148.61L50.5651 96.5892C50.689 96.0628 51.1225 95.6293 51.6489 95.5054L64.3444 91.9754C64.8708 91.8516 65.3972 92.0374 65.7378 92.4399C73.8815 101.636 80.0434 122.042 84.6881 147.743C84.8429 148.517 84.3165 149.291 83.5114 149.446C83.4805 149.446 83.4495 149.446 83.4495 149.446L70.785 151.056C70.0418 151.149 69.3606 150.653 69.1748 149.941L63.0129 122.506C62.889 121.887 62.2697 121.516 61.6504 121.639C61.2169 121.732 60.8763 122.073 60.7834 122.506L55.1169 150.901C55.055 151.551 54.4667 152.047 53.7545 152.047Z" fill="#2F2E41"/>
<path d="M51.4321 68.256C55.639 68.256 59.0494 64.8457 59.0494 60.6388C59.0494 56.4319 55.639 53.0215 51.4321 53.0215C47.2252 53.0215 43.8148 56.4319 43.8148 60.6388C43.8148 64.8457 47.2252 68.256 51.4321 68.256Z" fill="#FFB8B8"/>
<path d="M51.2153 96.7448C50.565 96.7448 49.9767 96.3113 49.8219 95.6611L45.2391 78.4758C44.5579 75.9057 45.8894 73.2427 48.3666 72.2828C52.0513 70.8585 55.5503 70.3011 58.8016 70.7036C61.6813 71.0443 65.2422 88.0748 64.9945 88.4463L66.1402 91.8525C66.3879 92.6266 65.9854 93.4316 65.2113 93.6794C65.1494 93.7103 65.1184 93.7103 65.0565 93.7103L51.5249 96.6829C51.4321 96.7139 51.3082 96.7448 51.2153 96.7448Z" fill="#CCCCCC"/>
<path d="M55.3027 114.299C55.5505 113.03 54.7144 111.791 53.4449 111.544C53.321 111.513 53.1662 111.513 53.0423 111.513L50.4103 103.555L47.7164 106.961L50.6271 113.99C50.689 115.29 51.8038 116.312 53.1043 116.219C54.188 116.188 55.117 115.383 55.3027 114.299Z" fill="#FFB8B8"/>
<path d="M89.209 95.1942C88.6207 94.0485 87.1963 93.584 86.0196 94.1724C85.8958 94.2343 85.7719 94.2962 85.679 94.3891L78.681 89.7754V94.1414L85.3074 97.8571C86.1745 98.848 87.6607 98.9409 88.6516 98.0739C89.4877 97.3617 89.7044 96.1851 89.209 95.1942Z" fill="#FFB8B8"/>
<path d="M49.791 110.647C49.1717 110.647 48.6144 110.245 48.3976 109.657L42.2047 96.5895C41.957 95.8154 41.8331 95.0103 41.8331 94.2052L43.691 77.2057C43.691 75.1311 45.3631 73.459 47.4377 73.459C49.3266 73.459 50.9057 74.8834 51.1535 76.7412L48.3047 96.125L52.8255 108.015C52.9804 108.666 52.6707 109.347 52.0514 109.626L50.4103 110.431C50.2245 110.586 50.0078 110.647 49.791 110.647Z" fill="#CCCCCC"/>
<path d="M82.7992 96.9287C82.5824 96.9287 82.3347 96.8667 82.1489 96.7738L69.856 90.5809C69.1438 90.2094 68.4626 89.7449 67.9052 89.1566L55.9219 77.1114C54.4666 75.656 54.4666 73.2717 55.9219 71.8164C57.2534 70.4849 59.39 70.3611 60.8763 71.5377L73.8814 85.9672L84.1926 92.5007C84.7499 92.8723 84.9977 93.5535 84.7809 94.2038L84.1926 95.9378C83.9758 96.5261 83.4185 96.9287 82.7992 96.9287Z" fill="#CCCCCC"/>
<path d="M42.7621 56.7061C44.0626 58.4091 45.9205 59.5548 47.9951 59.9883C50.1007 60.4218 52.2992 60.1122 54.219 59.0904C55.7362 58.2543 56.9748 57.0157 58.1824 55.8081C58.6779 55.3127 59.2043 54.7244 59.2043 54.0122C59.1733 52.9284 57.8728 52.3401 56.7581 52.1233C53.1042 51.3492 49.2956 51.7827 45.9205 53.331C44.4032 54.0431 42.824 55.3127 43.0717 56.8919" fill="#2F2E41"/>
<path d="M242.484 58.627H93.2343C90.3236 58.627 87.9703 60.9803 87.9703 63.8909V121.485C87.9703 124.396 90.3236 126.749 93.2343 126.749H242.484C245.394 126.749 247.747 124.396 247.747 121.485V63.8909C247.747 61.0112 245.394 58.6579 242.484 58.627ZM247.128 121.485C247.128 124.055 245.054 126.13 242.484 126.13H93.2343C90.6643 126.13 88.5896 124.055 88.5896 121.485V63.8909C88.5896 61.3209 90.6643 59.2462 93.2343 59.2462H242.484C245.054 59.2462 247.128 61.3209 247.128 63.8909V121.485Z" fill="#3F3D56"/>
<path d="M120.328 110.645C110.42 110.645 102.369 102.595 102.369 92.686C102.369 82.7773 110.42 74.7266 120.328 74.7266C130.237 74.7266 138.288 82.7773 138.288 92.686C138.288 102.626 130.268 110.645 120.328 110.645ZM120.328 75.3459C110.76 75.3459 102.988 83.118 102.988 92.686C102.988 102.254 110.76 110.026 120.328 110.026C129.896 110.026 137.669 102.254 137.669 92.686C137.669 83.118 129.896 75.3768 120.328 75.3459Z" fill="#3F3D56"/>
<path d="M229.169 81.2305H157.641C155.566 81.2305 153.863 82.8716 153.77 84.9462C153.77 85.0081 153.77 85.0391 153.77 85.101C153.77 87.2376 155.504 88.9716 157.641 88.9716H229.169C231.305 88.9716 233.039 87.2376 233.039 85.101C233.039 82.9645 231.305 81.2305 229.169 81.2305Z" fill="#E09D9D"/>
<path d="M127.171 102.347C126.428 102.347 125.716 102.069 125.19 101.511L120.328 96.6498L115.467 101.511C114.94 102.038 114.228 102.316 113.485 102.316C112.742 102.316 112.03 102.038 111.503 101.511C111.472 101.48 111.411 101.418 111.38 101.387C110.389 100.273 110.42 98.6006 111.472 97.5478L116.334 92.6863L111.472 87.8249C110.389 86.7411 110.389 84.9452 111.472 83.8614C111.503 83.8305 111.534 83.7995 111.596 83.7685C112.123 83.3041 112.773 83.0563 113.454 83.0563C114.197 83.0563 114.91 83.335 115.436 83.8614L120.297 88.7229L125.159 83.8614C125.685 83.335 126.397 83.0254 127.141 83.0254C127.884 83.0254 128.596 83.3041 129.122 83.8614C129.649 84.3878 129.958 85.1 129.958 85.8432C129.958 86.5863 129.68 87.2985 129.122 87.8249L124.261 92.6863L129.122 97.5478C129.649 98.0742 129.958 98.7864 129.958 99.5295C129.958 100.273 129.68 100.985 129.122 101.511C128.627 102.069 127.946 102.347 127.171 102.347Z" fill="#EC4C47"/>
<path d="M229.169 96.4023H157.641C155.566 96.4023 153.863 98.0435 153.77 100.118C153.77 100.18 153.77 100.211 153.77 100.273C153.77 102.409 155.504 104.143 157.641 104.143H229.169C231.305 104.143 233.039 102.409 233.039 100.273C233.039 98.1364 231.305 96.4023 229.169 96.4023Z" fill="#E09D9D"/>
<path d="M118.285 167.621H0.309646C0.123858 167.621 0 167.497 0 167.312C0 167.126 0.123858 167.002 0.309646 167.002H118.285C118.47 167.002 118.594 167.126 118.594 167.312C118.594 167.497 118.47 167.621 118.285 167.621Z" fill="#3F3D56"/>
<path d="M211.581 44.6921C205.109 43.7941 198.545 43.9489 192.135 45.1256C185.725 46.3023 179.563 48.4698 173.804 51.5353C170.584 53.2693 167.518 55.282 164.669 57.5734C164.205 57.9449 164.855 58.5952 165.32 58.2236C170.336 54.2292 175.972 51.0708 181.979 48.8723C187.955 46.6738 194.21 45.4043 200.588 45.0946C204.18 44.9398 207.803 45.0946 211.364 45.5901C211.612 45.652 211.859 45.4972 211.921 45.2804C211.952 45.0017 211.828 44.754 211.581 44.6921Z" fill="white"/>
</svg>
