<svg width="226" height="190" viewBox="0 0 226 190" fill="none" xmlns="http://www.w3.org/2000/svg">
<ellipse opacity="0.1" cx="20.5" cy="162" rx="9.5" ry="1" fill="#6C63FF"/>
<ellipse opacity="0.1" cx="158.5" cy="164" rx="9.5" ry="1" fill="#6C63FF"/>
<ellipse opacity="0.1" cx="136.5" cy="178" rx="9.5" ry="1" fill="#6C63FF"/>
<ellipse opacity="0.1" cx="51.5" cy="150" rx="9.5" ry="1" fill="#6C63FF"/>
<ellipse opacity="0.1" cx="55.5" cy="178.5" rx="55.5" ry="11.5" fill="#005CA4"/>
<path opacity="0.1" d="M219.289 131.022C217.804 134.58 215.857 137.991 213.132 140.607C209.811 143.795 205.687 145.534 201.272 146.365C199.97 146.606 198.656 146.775 197.335 146.872C193.846 147.139 190.273 146.962 186.846 146.591C178.452 145.679 170.173 143.917 162.139 141.333C160.82 140.909 159.507 140.463 158.203 139.995C156.235 139.293 154.284 138.54 152.352 137.735C144.479 134.463 136.34 130.289 127.965 131.584C123.906 132.212 120.092 134.117 116.024 134.684C113.168 135.057 110.267 134.852 107.493 134.08C106.151 133.723 104.835 133.271 103.557 132.728C100.676 131.482 97.9347 129.939 95.3785 128.122C89.2424 123.857 83.7361 118.569 77.2758 114.875C70.1533 110.801 62.269 108.864 54.2364 107.42C52.9289 107.185 51.6168 106.96 50.3001 106.747C46.5837 106.137 42.858 105.572 39.1856 104.905C35.6475 104.255 32.0469 103.461 28.9672 101.507C26.7698 100.114 24.922 98.1841 23.2271 96.1505C20.1004 92.3821 17.4185 88.2695 15.2339 83.8933C15.1181 83.663 15.0047 83.4327 14.8935 83.2024C11.492 76.2609 9.20431 68.6929 7.80111 60.8623C7.75943 60.632 7.72007 60.4017 7.68071 60.1714C6.36086 52.4951 5.87924 44.5587 6.02511 36.6797L6.03901 35.9888C6.12931 32.0989 6.37244 28.225 6.73366 24.4065C6.993 21.7211 7.34032 18.9343 8.7389 16.6773C10.1375 14.4202 12.4159 12.9716 14.6851 11.7648C24.7206 6.45151 34.3323 4.97292 45.1179 7.54779C46.8499 7.96004 48.575 8.40454 50.3001 8.86516C51.613 9.21523 52.9259 9.57682 54.2364 9.94071C63.297 12.4534 72.3345 15.1273 81.7008 15.9288C82.6053 16.0071 83.5107 16.067 84.4169 16.1084C86.2091 16.1913 88.0013 16.2098 89.7935 16.1637C94.4101 16.0348 99.0107 15.5637 103.557 14.7542C104.872 14.5285 106.184 14.2782 107.493 14.0034C113.143 12.8311 118.742 11.2673 124.251 9.53767C125.376 9.18452 126.5 8.82524 127.622 8.45981C130.151 7.63761 132.679 6.79928 135.212 5.98398C142.775 3.54499 150.374 1.31789 158.203 0.419681C158.873 0.344447 159.543 0.277657 160.213 0.219311C160.854 0.164037 161.498 0.120278 162.139 0.0880345C174.284 -0.556834 186.568 2.35659 197.335 8.31933C198.672 9.05785 199.984 9.84398 201.272 10.6777C203.058 11.8339 204.789 13.0775 206.465 14.4087C209.902 17.1379 213.118 20.2448 215.568 23.9781C217.955 27.6147 219.504 31.6981 220.395 35.9911C220.444 36.2214 220.49 36.4517 220.532 36.682C221.84 43.6121 221.433 51.0442 219.965 57.988C219.81 58.7158 219.645 59.4459 219.474 60.1737C219.421 60.404 219.365 60.6343 219.309 60.8646C217.726 67.4308 215.702 73.9785 216.23 80.692C216.297 81.5373 216.403 82.3756 216.542 83.2047C216.582 83.435 216.621 83.6653 216.665 83.8957C217.698 89.3724 220.046 94.5682 221.454 99.992C224.096 110.299 223.337 121.177 219.289 131.022Z" fill="#005CA4"/>
<path opacity="0.1" fill-rule="evenodd" clip-rule="evenodd" d="M199.694 36.6485H219C218.958 36.4179 218.912 36.1872 218.863 35.9566H199.694V10.6054C198.403 9.77201 197.088 8.98472 195.748 8.24355V35.9566H160.473V0C159.83 0.0322915 159.185 0.0761156 158.542 0.131472C157.899 0.186829 157.198 0.256025 156.527 0.332141V35.9566H106.167L106.046 35.8251L133.485 5.90242C131.952 6.39526 130.421 6.8965 128.891 7.39753L128.891 7.39773C127.886 7.72671 126.882 8.05559 125.877 8.38194L105.703 30.384V13.9338C104.389 14.2075 103.074 14.4581 101.757 14.6857V31.1428L87.9628 16.0973C86.1666 16.1404 84.3703 16.1219 82.574 16.0419L100.713 35.8251L100.592 35.9566H52.3206V9.86735C51.007 9.50292 49.6912 9.14079 48.3753 8.7902V35.9566H4.01392L4 36.6485H48.3799V60.1752H5.65934L5.65937 60.1753C5.69882 60.4059 5.73826 60.6365 5.78002 60.8671H48.3799V83.2405H12.8885C12.9999 83.4711 13.1136 83.7018 13.2297 83.9324H48.3799V106.827C49.6981 107.042 51.0132 107.267 52.3252 107.501V83.9324H101.757V132.831C103.039 133.375 104.357 133.827 105.703 134.185V83.9324H156.527V140.113C157.836 140.583 159.151 141.03 160.473 141.453V83.9324H195.748V147C197.072 146.904 198.389 146.734 199.694 146.493V83.9324H215.122C215.078 83.7026 215.039 83.4727 214.999 83.2428L214.999 83.2405H199.682V60.8671H217.761L217.762 60.8629C217.817 60.6336 217.872 60.4044 217.925 60.1752H199.694V36.6485ZM195.748 36.6485V60.1752H160.473V36.6485H195.748ZM105.703 60.1752H156.527V36.6485H105.703V60.1752ZM52.3252 36.6485H101.061L101.757 37.2782V60.1752H52.3252V36.6485ZM52.3252 60.8671V83.2405H101.757V60.8671H52.3252ZM105.703 83.2405V60.8671H156.527V83.2405H105.703ZM160.473 83.2405H195.748V60.8671H160.473V83.2405Z" fill="#6C63FF"/>
<path opacity="0.1" d="M179.669 20.7952H179.356C179.58 20.6415 179.723 20.3638 179.738 20.0568C179.738 19.4763 179.138 19 178.406 19H169.074C168.342 19 167.741 19.4763 167.741 20.0568C167.741 20.6402 168.342 21.1165 169.074 21.1165H169.387C169.164 21.2706 169.02 21.5481 169.006 21.8549C169.006 22.3509 169.441 22.7708 170.024 22.8835H167.333C166.599 22.8835 166 23.3598 166 23.9403C166 24.5209 166.599 25 167.333 25H176.668C177.402 25 178.001 24.5237 178.001 23.9403C178.001 23.4443 177.566 23.0272 176.981 22.9145H179.669C180.401 22.9145 181 22.4382 181 21.8549C181 21.2715 180.401 20.7952 179.669 20.7952Z" fill="#6C63FF"/>
<path opacity="0.1" d="M80.6689 28.798H80.3562C80.5784 28.6424 80.7213 28.3658 80.7376 28.0597C80.7376 27.4763 80.1383 27 79.4041 27H70.0696C69.3354 27 68.7361 27.4763 68.7361 28.0597C68.7361 28.6402 69.3354 29.1165 70.0696 29.1165H70.3799C70.1583 29.2724 70.0163 29.5491 70.0009 29.8549C70.0009 30.3537 70.4368 30.7708 71.0194 30.8835H68.3335C67.5992 30.8835 67 31.3598 67 31.9432C67 32.5265 67.5992 33 68.3335 33H77.6679C78.4022 33 79.0014 32.5237 79.0014 31.9432C79.0014 31.4443 78.5632 31.0272 77.9806 30.9145H80.6689C81.4008 30.9145 82 30.4382 82 29.8549C82 29.2715 81.4008 28.798 80.6689 28.798Z" fill="#6C63FF"/>
<path opacity="0.1" d="M193.669 63.7961H193.356C193.578 63.6404 193.721 63.3636 193.738 63.0573C193.738 62.4765 193.138 62 192.404 62H183.07C182.335 62 181.736 62.4765 181.736 63.0573C181.736 63.6382 182.335 64.1147 183.07 64.1147H183.38C183.158 64.2703 183.016 64.5473 183.001 64.8534C183.001 65.3496 183.437 65.7697 184.019 65.8825H181.331C180.599 65.8825 180 66.359 180 66.9398C180 67.5207 180.599 68 181.331 68H190.668C191.4 68 192.001 67.5235 192.001 66.9398C192.001 66.4436 191.563 66.0263 190.981 65.9135H193.669C194.401 65.9135 195 65.437 195 64.8534C195 64.2697 194.401 63.7961 193.669 63.7961Z" fill="#6C63FF"/>
<path d="M52.271 139L159 150.685V154L52 141.918L52.271 139Z" fill="#EAECF0"/>
<path d="M52 151H51V101L51.7197 101.44L51.7277 102.939L52 151Z" fill="#EAECF0"/>
<path d="M53 150.203L52.3889 151L52.0111 103.483L52 102H52.7222L52.7317 103.571L53 150.203Z" fill="#D3DAE1"/>
<path d="M23 148.123L52 138V138.957L23 149V148.123Z" fill="#D3DAE1"/>
<path d="M23.5185 151L23 148.756L52 139V140.934L23.5185 151Z" fill="#EAECF0"/>
<path d="M159 97V164H158.05L158.001 101.846L158 99.8586L159 97Z" fill="#EAECF0"/>
<path d="M160 97V163.431L159 164V97.3254L160 97Z" fill="#D3DAE1"/>
<path d="M135 162.521L157.416 150L159 150.92L135 164V162.521Z" fill="#D3DAE1"/>
<path d="M135.701 165L135 162.356L159 150V152.564L135.701 165Z" fill="#EAECF0"/>
<path d="M134 108.799L134.071 178H136L135.714 108L134 108.799Z" fill="#EAECF0"/>
<path d="M136 108V177.445L135.235 178L135 108.634L135.094 108.575L136 108Z" fill="#D3DAE1"/>
<path d="M21 163H19.5161L19.0074 101.067L19 100H20.4194L20.4304 101.218L21 163Z" fill="#EAECF0"/>
<path d="M21 162.52L20.3604 163L20.0069 101.218L20 100H20.6808L20.6865 101.337L21 162.52Z" fill="#D3DAE1"/>
<path opacity="0.1" d="M135 108.372L136 108V109.744L135.026 110L135 108.372Z" fill="black"/>
<path opacity="0.1" d="M160 97V101.927L159.177 102.372L158.002 103L158 100.695L159.177 97.3792L160 97Z" fill="black"/>
<path d="M160 90V101.612L134.166 110L134 97.581L160 90Z" fill="#D48A9B"/>
<path d="M19 88.4269L51.9609 82L160 89.2515L134.759 97L19 88.4269Z" fill="#EFC6CD"/>
<path opacity="0.1" d="M20.9927 100L21 101L20.1328 100.911L19.0058 100.798L19 100H20.9927Z" fill="black"/>
<path opacity="0.1" d="M53 103L52.167 102.956L51 102.894V102L52.1541 102.217H52.989L53 103Z" fill="black"/>
<path d="M17 88V98.3888L134 108L133.838 96.0625L17 88Z" fill="#D48A9B"/>
<path d="M110 102H95V96L110 97.1644V102Z" fill="#D48A9B"/>
<path opacity="0.1" d="M110 102H95V96L110 97.1644V102Z" fill="black"/>
<path opacity="0.1" d="M74 95V104.276L133 109V99.1224L109.988 97.7475L107.702 99.8958L98.3184 99.2083L94.9736 96.6303L74 95Z" fill="black"/>
<path d="M74 94V103.277L133 108V98.1241L109.988 96.7494L107.704 98.8974L98.3184 98.2101L94.9736 95.6325L74 94Z" fill="white"/>
<path d="M39.3818 93L53 94.0857L52.8406 99H43.9486L38 96.3451L39.3818 93Z" fill="#D48A9B"/>
<path opacity="0.1" d="M39.3818 93L53 94.0857L52.8406 99H43.9486L38 96.3451L39.3818 93Z" fill="black"/>
<path opacity="0.1" d="M20 91V98.8128L73 103V94.7038L52.5584 93.4976L50.3784 95.1067L42.1366 94.6256L38.7443 92.5308L20 91Z" fill="black"/>
<path d="M20 91V98.8128L73 103V94.7061L52.5584 93.4976L50.3784 95.109L42.1366 94.6256L38.7443 92.5308L20 91Z" fill="white"/>
<path opacity="0.1" d="M23.8182 149.094L24.1818 149L23.9988 150.951L23.8182 151V149.094Z" fill="black"/>
<path opacity="0.1" d="M133.403 91L141 91.4671L128.411 95L122 94.5639L133.403 91Z" fill="black"/>
<path d="M133.403 91L141 91.4673L128.411 95L122 94.5659L133.403 91Z" fill="white"/>
<path d="M134 90.8141C134.231 90.6899 134.477 90.9245 134.728 90.9843C134.868 91.0188 135.014 90.9843 135.154 91.0188C135.441 91.0671 135.727 91.3109 136 91.1867" fill="#D3DAE1"/>
<path d="M132 90.8159C132.229 90.6894 132.477 90.9241 132.728 90.9839C132.868 91.0184 133.014 90.9839 133.156 91.0184C133.443 91.0667 133.727 91.3105 134 91.1863" fill="#D3DAE1"/>
<path d="M132 92.8141C132.231 92.6899 132.479 92.9245 132.728 92.9843C132.868 93.0188 133.014 92.9843 133.156 93.0188C133.443 93.0671 133.727 93.3109 134 93.1867" fill="#D3DAE1"/>
<circle cx="11" cy="169" r="2" fill="#535461"/>
<circle cx="16" cy="179" r="2" fill="#535461"/>
<circle cx="54" cy="180" r="2" fill="#535461"/>
<circle cx="63" cy="169" r="2" fill="#535461"/>
<rect x="35" y="132" width="2" height="16" fill="#535461"/>
<rect opacity="0.1" x="35" y="146" width="2" height="2" fill="black"/>
<rect x="35" y="146" width="4" height="19" fill="#3A3768"/>
<path d="M63.1273 165.018L39 164V168H67C66.4302 166.278 64.8918 165.093 63.1273 165.018Z" fill="#3A3768"/>
<path d="M13.8727 165.018L38 164V168H10C10.5692 166.277 12.108 165.092 13.8727 165.018Z" fill="#3A3768"/>
<path d="M34.2669 164.383L14.749 173.617C13.0651 174.419 11.9999 176.067 12 177.872V178.153L34.7938 168.615L38.001 168.384L56.9553 180C57.2018 178.25 56.4154 176.513 54.9142 175.493L38.001 164L34.2669 164.383Z" fill="#3A3768"/>
<path opacity="0.1" d="M37 131V131.984C36.6497 131.995 36.2925 132 35.9286 132C35.6139 132 35.3044 132 35 131.988V131H37Z" fill="black"/>
<ellipse cx="37" cy="131" rx="10" ry="3" fill="#3A3768"/>
<path opacity="0.1" d="M47 131.002C46.9806 131.34 46.8263 131.654 46.5736 131.871C45.3383 133.106 41.5195 134 37.0023 134C32.5842 134 28.8391 133.139 27.5139 131.949C27.2168 131.725 27.0292 131.38 27 131.002C27 129.346 31.478 128 37.0023 128C42.5266 128 47 129.344 47 131.002Z" fill="black"/>
<path opacity="0.1" d="M47 129.037C46.9806 129.378 46.8263 129.697 46.5736 129.916C45.3015 129.585 44.4211 129.312 44.4211 129.312C44.4211 129.312 35.6057 129.825 27.5139 130C27.2168 129.773 27.0292 129.423 27 129.041C27 127.364 31.478 126 37.0023 126C42.5266 126 47 127.357 47 129.037Z" fill="black"/>
<path d="M11.0922 90.9548C11.0922 90.9548 14.4096 99.9755 14.2478 105.371C14.0859 110.766 11.4968 120.913 11.4968 120.913C11.4968 120.913 8.90992 129.128 15.5424 129.853C22.1748 130.578 43.8498 129.369 43.8498 129.369C43.8498 129.369 51.941 131.784 54.5255 130.737C55.5311 130.332 56.4027 129.438 57.0916 128.497C57.8539 127.46 58.1549 126.157 57.9241 124.893C57.6933 123.628 56.951 122.514 55.871 121.81C54.6635 121.061 53.3484 120.499 51.971 120.144C51.6811 120.065 51.3814 120.029 51.081 120.036L22.8198 120.59C22.8198 120.59 19.6665 120.107 20.2329 116.967C20.7993 113.828 21.7679 104.162 21.7679 104.162C21.7679 104.162 21.9297 92.4049 16.2682 89.1042C10.6067 85.8034 11.0922 90.9548 11.0922 90.9548Z" fill="#3A3768"/>
<path opacity="0.1" d="M11.0922 90.9573C11.0922 90.9573 14.4096 99.9743 14.2478 105.369C14.0859 110.763 11.4968 120.91 11.4968 120.91C11.4968 120.91 8.90993 129.122 15.5423 129.847C22.1748 130.572 43.8497 129.361 43.8497 129.361C43.8497 129.361 51.9409 131.778 54.5254 130.742C55.531 130.335 56.4025 129.442 57.0914 128.503C57.8539 127.466 58.1549 126.162 57.9242 124.898C57.6934 123.633 56.951 122.519 55.8708 121.815C54.6624 121.067 53.3476 120.506 51.9709 120.149C51.6811 120.07 51.3812 120.034 51.0809 120.043L22.8197 120.588C22.8197 120.588 19.6665 120.105 20.2329 116.963C20.7993 113.822 21.7679 104.163 21.7679 104.163C21.7679 104.163 21.9297 92.4072 16.2682 89.1046C10.6068 85.8021 11.0922 90.9573 11.0922 90.9573Z" fill="black"/>
<path d="M13.0924 90.9543C13.0924 90.9543 16.4098 99.9734 16.2479 105.368C16.0861 110.762 13.497 120.907 13.497 120.907C13.497 120.907 10.9101 129.12 17.5402 129.845C24.1703 130.57 45.8476 129.362 45.8476 129.362C45.8476 129.362 53.9387 131.776 56.5255 130.743C57.5312 130.335 58.4027 129.443 59.0916 128.501C59.8539 127.465 60.1549 126.162 59.9241 124.897C59.6934 123.633 58.951 122.519 57.871 121.816C56.6642 121.062 55.3491 120.497 53.9711 120.138C53.6811 120.06 53.3814 120.023 53.081 120.03L24.8199 120.585C24.8199 120.585 21.6667 120.101 22.2331 116.962C22.7994 113.823 23.7681 104.16 23.7681 104.16C23.7681 104.16 23.9299 92.4042 18.2684 89.104C12.6069 85.8038 13.0924 90.9543 13.0924 90.9543Z" fill="#3A3768"/>
<path d="M69.1294 169.744V172.742C69.1294 172.742 83.2398 173 86.3477 173C89.4556 173 93.7334 171.45 93.9879 170.208C94.2424 168.966 90.4223 167.933 88.9956 167.883C87.5689 167.834 87.5199 167.263 85.6846 166.279C84.6502 165.725 83.0787 164.115 81.9065 162.819C81.0029 161.819 80.3374 161.006 80.3374 161.006C80.3374 161.006 72.7463 160.852 70.5561 162.092C70.0517 162.378 69.7038 162.938 69.4656 163.632C68.6764 165.947 69.1294 169.744 69.1294 169.744Z" fill="#434175"/>
<path opacity="0.1" d="M69 163C70.536 162.573 79.5225 162.408 81 162.382C80.1284 161.622 79.4865 161.005 79.4865 161.005C79.4865 161.005 72.1644 160.888 70.0518 161.829C69.5653 162.047 69.2297 162.471 69 163Z" fill="black"/>
<path d="M31 115.99L31.8052 116.478L32.1071 116.662L33.2806 117.369C39.5529 121.162 56.6608 131.44 57.5987 131.367C57.8435 131.346 58.58 131.236 59.598 131.069C59.8679 131.025 60.1584 130.979 60.4626 130.926C64.3811 130.272 70.8935 129.09 71.6209 128.765C72.6182 128.306 72.4192 130.316 72.0189 132.019C71.6186 133.721 71.3212 141.886 71.7696 142.933C72.2179 143.979 72.0189 145.686 72.0189 145.686L71.4219 154.847L71.8222 156.793C71.8222 156.793 70.4749 157.895 71.0239 158.544C71.5729 159.193 71.0742 162 71.0742 162C72.6754 161.399 83.4997 161.199 83.4997 161.199C83.4997 161.199 83.0422 157.192 83.4494 156.242C83.8566 155.292 83.5501 149.633 83.5501 149.633C83.5501 149.633 83.7994 145.328 83.3511 144.328C82.9027 143.327 83.4997 136.918 83.4997 136.918C83.4997 136.918 83.9 133.113 83.9984 125.352C84.0968 117.591 79.6065 117.344 79.6065 117.344C79.6065 117.344 79.0094 117.295 78.099 117.208C76.3217 117.036 73.3571 116.71 71.3761 116.29C70.9704 116.205 70.5695 116.097 70.1752 115.969C67.7299 115.134 59.4973 115.101 58.15 115.703C56.853 116.281 55.556 115.746 55.4599 115.703L54.4123 114L44.4023 114.856L43.3432 114.948L33.4888 115.79L32.8025 115.85L31 115.99Z" fill="#565387"/>
<path opacity="0.1" d="M71.4093 123.74C74.1567 125.232 76.7787 119.945 78 116.963C76.3204 116.782 73.519 116.44 71.647 116C70.4171 118.289 68.7743 122.313 71.4093 123.74Z" fill="black"/>
<path d="M61.0004 89.063C61.0594 89.4173 61.1759 89.7581 61.3448 90.0704C62.3961 92.3216 65.4404 96.9566 65.4404 96.9566C66.3456 97.5557 67.1105 98.3643 67.6771 99.3214C68.507 100.818 68.7508 104.325 68.7508 104.325C68.7508 104.325 70.6051 112.115 71.4819 113.2C71.9292 113.742 71.7257 114.063 71.4215 114.25C70.7978 114.617 70.2693 115.141 69.8826 115.775C68.6032 117.949 66.561 122.264 69.4352 123.745C73.3384 125.757 77 115.21 77 115.21C77 115.21 76.2663 107.73 76.0717 106.442C75.8771 105.153 74.7051 99.8369 74.7051 99.8369C74.7051 99.8369 73.8752 97.5667 73.3876 95.9681C72.9 94.3695 71.4371 92.5108 71.4371 92.5108C71.4371 92.5108 68.8 86.9394 68.0686 86.1141C67.7286 85.731 67.2521 85.2486 66.8406 84.8419C66.3641 84.3689 65.9705 84 65.9705 84C65.9705 84 60.9512 87.8286 61.0004 89.063Z" fill="#EE8E9E"/>
<path d="M27 167.937L36.3847 171.944C36.3847 171.944 48.5469 172.191 50.6744 171.647C52.8019 171.103 52.3291 168.828 49.5397 168.382C46.7503 167.935 46.0861 166.751 45.1571 166.207C44.5306 165.84 42.3062 163.466 40.9281 161.962C40.2638 161.239 39.7934 160.715 39.7934 160.715C39.7934 160.715 37.9874 156.114 32.9854 157.153C32.0708 157.344 31.228 157.771 30.5482 158.388C27.851 160.783 27.617 165.52 27.617 165.52L27 167.937Z" fill="#434175"/>
<path opacity="0.1" d="M31 116.946L32.1468 117.669C38.2768 121.553 54.9967 132.075 55.9132 132C56.1525 131.978 56.8723 131.866 57.8671 131.694C58.1309 131.65 58.4149 131.603 58.7122 131.549L58.7457 131.49C59.2376 130.588 59.6135 129.622 59.8635 128.617C60.8874 124.517 55.8149 121.391 55.8149 121.391L54.7418 120.514C53.5234 118.358 44.7443 116.319 44.7443 116.319L43.6131 115.508L43.0073 115.081L42.8485 114.97L41.4759 114L34.5993 114.512L32.556 115.891L32.3324 116.037L31.5857 116.551L31 116.946Z" fill="black"/>
<path opacity="0.1" d="M32 157.579C33.7122 165.064 40.8647 162.618 40.8647 162.618L41 161.67C40.4238 160.843 40.0157 160.245 40.0157 160.245C40.0157 160.245 38.4491 154.988 34.11 156.174C33.3188 156.392 32.5893 156.877 32 157.579H32Z" fill="black"/>
<path d="M28.1899 128.054C31.2124 128.054 38.9928 131.656 38.9928 131.656C40.5804 132.875 42.7316 132.468 42.7316 132.468C42.7316 132.468 38.9482 136.273 39.0539 137.847C39.1596 139.422 36.9003 142.008 36.9003 142.008L29.9325 155.655C30.4468 165.346 40.4864 162.658 40.4864 162.658L40.8974 160.374C41.5127 160.069 42.4357 157.025 42.4357 157.025C42.4357 157.025 42.4357 155.809 43.0486 155.453C43.6616 155.097 44.9438 151.443 44.9438 151.443C44.9438 151.443 47.7103 146.827 47.5553 146.22C47.4003 145.613 49.5538 142.517 49.5538 142.517C49.5538 142.517 53.1916 138.966 53.0366 138.331C52.8816 137.696 55.9628 134.447 55.9628 134.447C57.0766 133.594 58.0021 132.524 58.6823 131.303C59.1985 130.411 59.5933 129.455 59.8565 128.461C60.7231 125.191 57.4353 122.547 56.1225 121.642C55.8054 121.424 55.6035 121.307 55.6035 121.307L54.4762 120.44C53.8938 119.468 51.6698 118.519 49.4153 117.777C47.7901 117.24 46.1509 116.807 45.1012 116.549C44.3966 116.379 43.9739 116.284 43.9739 116.284L42.7856 115.493L42.3676 115.214L41.9848 114.961L40.5405 114L37.3278 114.233L33.3166 114.514L31.1725 115.881L30.1485 116.533L26.1444 119.091C26.1444 119.091 26.0387 120.065 26.0059 121.377C26.0059 121.477 26.0059 121.579 26.0059 121.686C25.9518 124.321 26.2407 128.054 28.1899 128.054Z" fill="#565387"/>
<path d="M44 72.8079L45.0434 76.5224C45.0434 76.5224 46.8762 82.9138 47.0736 83.3588C47.2709 83.8038 52.0638 88.313 52.2703 88.4107C52.4767 88.5083 55.0807 90 55.0807 90C55.0807 90 55.2871 81.8262 55.0807 79.4513C55.0637 78.9289 55.1071 78.4062 55.21 77.8938C55.5253 76.0297 56.3237 73.2983 56.9861 71.1936C57.5395 69.4294 58 68.108 58 68.108C58 68.108 46.4203 67.6107 46.8172 68.7505C46.9669 69.1819 46.917 69.9016 46.7741 70.6237C46.5337 71.8134 46.0369 73.0031 45.7285 72.9123C45.4271 72.8434 45.1189 72.8092 44.8098 72.8101C44.3879 72.792 44 72.8079 44 72.8079Z" fill="#EE8E9E"/>
<path opacity="0.1" d="M46 70.2748C48.8465 72.3769 52.9132 72.5777 56.0061 70.7689C56.5486 69.2393 57 68.0936 57 68.0936C57 68.0936 45.6487 67.6625 46.0378 68.6507C46.189 69.0247 46.1401 69.6488 46 70.2748Z" fill="black"/>
<path d="M43.0001 62.9975C42.9991 66.6378 45.1913 69.9202 48.5542 71.314C51.9171 72.7077 55.7885 71.9383 58.3629 69.3646C60.9373 66.7909 61.7078 62.9197 60.3149 59.5564C58.922 56.1931 55.6402 54.0001 51.9999 54.0001C49.6099 53.9886 47.3145 54.9328 45.6243 56.6226C43.934 58.3123 42.9893 60.6075 43.0001 62.9975Z" fill="#EE8E9E"/>
<path opacity="0.1" d="M43 73.006L44.0239 76.4616C44.0239 76.4616 45.8223 82.4076 46.016 82.8216C46.2096 83.2357 50.9128 87.4306 51.1153 87.5214C51.3179 87.6122 53.8731 89 53.8731 89C53.8731 89 54.0757 81.3959 53.8731 79.1865C53.8565 78.7004 53.899 78.2142 54 77.7374L53.3323 80.2912L53.3812 85.4071L53.7685 85.6838L52.896 86.9279V86.0048C52.896 86.0048 49.7798 83.149 49.3013 81.9493C48.8227 80.7495 47.0755 78.5823 47.0755 78.5823C47.0755 78.5823 45.0722 75.414 45.0366 74.8542C44.9988 74.4318 44.1619 73.4263 43.7946 73.0081C43.3806 72.9912 43 73.006 43 73.006Z" fill="black"/>
<path opacity="0.1" d="M61.0004 91.0031C61.0609 91.3537 61.1805 91.691 61.3538 92C62.4486 91.8877 66.1737 91.1763 67 86.8331C66.5111 86.3651 66.1072 86 66.1072 86C66.1072 86 60.9499 89.7816 61.0004 91.0031Z" fill="black"/>
<path opacity="0.1" d="M26 122C27.0178 121.244 27.9871 120.215 28.5654 119.932C29.4237 119.508 30.7353 118.134 30.7353 118.134C30.7353 118.134 31.0684 117.892 31.5796 117.582C32.5165 117.008 34.0525 116.175 35.2277 116.073C36.2802 115.981 39.7826 115.746 42.5354 115.567L46.1279 115.325C46.1279 115.325 49.4081 114.114 50.8215 114.901C51.8337 115.43 52.9 115.836 54 116.112C54 116.112 54 115.996 54 115.797L52.9405 114L41.7465 115L40.3239 114L33.2082 114.528L31.0962 115.952L29.2733 116.114L30.0876 116.63L26.1434 119.295C26.1434 119.295 26.0231 120.477 26 122Z" fill="black"/>
<path d="M24.6587 121.966C25.2037 121.809 25.7145 121.558 26.1662 121.225C27.2018 120.519 28.1879 119.557 28.7753 119.291C29.6506 118.894 30.9882 117.606 30.9882 117.606C30.9882 117.606 33.7176 115.822 35.5695 115.674C36.0744 115.633 37.1312 115.563 38.4004 115.483L42.602 115.225L44.7818 115.093L46.6856 114.982C46.6856 114.982 50.0308 113.846 51.4722 114.584C52.5043 115.08 53.5918 115.461 54.7136 115.72C54.7136 115.72 54.7655 112.252 55.1854 110.815C55.6053 109.378 56.1621 106.753 56.1621 106.753C56.1621 106.753 56.6339 103.139 57.0892 101.504C57.5445 99.8692 59.3539 90.7555 60.281 90.1515C61.2082 89.5476 61.7201 90.6056 61.7201 90.6056C61.7201 90.6056 67.8962 90.5057 68 83.9689C68 83.9689 65.1172 81.1944 64.9119 80.5019C64.7067 79.8094 61.9796 77.2324 61.9796 77.2324C61.9796 77.2324 60.4344 74.4578 58.6769 74.4079C57.8505 74.3616 57.0215 74.3867 56.1998 74.4828L54.7136 80.3021L54.7655 85.8012L55.1783 86.0987L54.2512 87.436V86.4619C54.2512 86.4619 50.9485 83.39 50.4436 82.1026C49.9388 80.8152 48.0845 78.4812 48.0845 78.4812C48.0845 78.4812 45.9755 75.0754 45.9236 74.4737C45.8717 73.8721 44.4303 72.2873 44.4303 72.2873C44.1396 72.2535 43.8458 72.2535 43.5551 72.2873C43.4253 72.2954 43.2952 72.2776 43.1729 72.235C42.3418 71.98 41.4572 71.9316 40.6015 72.0943C38.8227 72.4507 36.1192 73.1001 35.3737 73.8789C34.2414 75.0686 32.5947 76.2084 30.7405 81.1603L40.7241 84.6274L39.8702 86.1918L31.9247 100.723C31.9247 100.723 31.6605 101.136 31.3043 101.674C30.8325 102.374 30.2215 103.289 29.8133 103.79C29.0938 104.683 29.2991 107.505 29.2991 107.505C29.2991 107.505 29.1457 108.842 28.6314 109.339C28.1171 109.837 28.2162 111.664 28.2162 111.664L26.8786 116.469C26.8786 116.469 25.6425 117.559 25.6425 118.058C25.6425 118.558 24.6658 119.94 24.6658 119.94C24.6658 119.94 23.1725 122.311 24.6587 121.966Z" fill="#A7C4EE"/>
<path opacity="0.1" d="M32 100.766C32.0684 101.044 32.1209 101.325 32.1572 101.609C32.1572 101.609 36.2003 110.938 36.7118 111.493C36.8691 111.664 37.4651 112.503 38.2113 113.573L39.0678 114.819C40.6141 117.081 42.3529 119.652 42.3529 119.652L46.1402 122.929C46.1402 122.929 54.3813 123.579 57 120.944C56.6832 120.726 56.4814 120.611 56.4814 120.611L55.3551 119.749C54.7731 118.783 52.551 117.84 50.2983 117.102C48.224 117.116 46.5274 117.283 46.5274 117.283L45.9877 115.882L45.4245 114.421L42.5524 107.006C42.5524 107.006 40.7057 97.6292 40.0909 97.1739C39.4761 96.7185 39.6216 95.3086 39.6216 95.3086C39.6216 95.3086 40.7479 91.3262 40.3372 90.7714C39.9266 90.2167 41.0037 86.1302 41.0037 86.1302C40.8968 85.7317 40.7308 85.3508 40.5109 85L32.6078 99.7926C32.6078 99.7926 32.3543 100.211 32 100.766Z" fill="black"/>
<path d="M41.4628 86.2643C41.4628 86.2643 40.401 90.3325 40.8067 90.8851C41.2124 91.4377 40.0974 95.4047 40.0974 95.4047C40.0974 95.4047 39.9467 96.8114 40.561 97.2627C41.1753 97.7139 42.9929 107.057 42.9929 107.057L46.9108 117.305C46.9108 117.305 59.1721 116.098 57.9087 119.916C56.6452 123.733 46.5282 122.929 46.5282 122.929L42.7866 119.665C42.7866 119.665 37.7281 112.081 37.2227 111.528C36.7173 110.976 32.7206 101.683 32.7206 101.683C32.7206 101.683 32.5189 99.8252 31.6588 98.8697C30.7988 97.9142 31.4571 96.3026 31.4571 96.3026C31.4571 96.3026 30.3954 84.153 31.5081 82.6979C32.6209 81.2428 40.3037 81.8944 41.4628 86.2643Z" fill="#EE8E9E"/>
<path opacity="0.1" d="M77 127C77 127 73.9206 127.73 73.0965 128.769C72.2723 129.809 77 127 77 127Z" fill="black"/>
<path opacity="0.1" d="M74 122C73.9029 122.162 69.7521 126.767 70.0117 127.88C70.2713 128.993 74 122 74 122Z" fill="black"/>
<path opacity="0.1" d="M52 127C52 127 46.4943 128.332 46.0245 128.912C45.5547 129.493 52 127 52 127Z" fill="black"/>
<path opacity="0.1" d="M52 128C52 128 46.7576 129.563 46.0524 129.956C45.3471 130.348 52 128 52 128Z" fill="black"/>
<path opacity="0.1" d="M48 131.28C48 131.28 46.783 132.677 46.1121 131.58C45.4413 130.482 48 131.28 48 131.28Z" fill="black"/>
<path opacity="0.1" d="M55 95C54.9015 95.1477 48.7971 106.131 47.1854 106.961C45.5737 107.792 55 95 55 95Z" fill="black"/>
<path opacity="0.1" d="M56 100C56 100.26 50.061 113.836 49.0838 113.999C48.1066 114.161 56 100 56 100Z" fill="black"/>
<path opacity="0.1" d="M33 108C33 108 30.2321 114.598 29.1543 114.985C28.0764 115.372 33 108 33 108Z" fill="black"/>
<path opacity="0.1" d="M32 105C32 105 31.4161 107 31.0615 107C30.707 107 32 105 32 105Z" fill="black"/>
<path opacity="0.1" d="M43 62.8897C42.9993 63.9518 43.1923 65.0054 43.5698 66C43.5025 63.6682 44.4209 61.414 46.1048 59.7782C47.7887 58.1425 50.0861 57.2727 52.4457 57.3777C52.8819 57.3966 53.3993 57.4978 53.5757 57.8887C53.6451 58.0986 53.6813 58.3177 53.683 58.5385C53.8141 59.5368 54.8393 60.1608 55.8024 60.4857C56.7656 60.8106 57.8384 61.0178 58.5369 61.7501C59.1759 62.4211 59.357 63.3841 59.6717 64.2529C59.8487 64.7849 60.1492 65.2687 60.5491 65.6657C61.661 62.3271 60.6766 58.6551 58.0377 56.2973C55.3988 53.9394 51.601 53.3387 48.3484 54.7646C45.0959 56.1905 42.9995 59.3752 43 62.8897Z" fill="black"/>
<path d="M59.0326 54.2305C58.3241 53.2864 57.0671 52.959 55.9746 52.4835C53.2364 51.2657 51.2283 48.8711 50.5375 46C49.6405 47.2942 49.7791 49.026 50.8712 50.1669C48.8851 50.0345 46.691 49.8103 45.3449 48.3727C45.0386 49.4088 45.9551 50.5862 45.4546 51.5461C45.0249 52.3714 43.8547 52.4431 43.0982 53.0038C42.2915 53.5914 42.0241 54.6566 41.9738 55.6412C41.9235 56.6257 42.0286 57.6349 41.7315 58.5768C41.503 59.2922 41.0459 59.9493 41.0002 60.6961C40.995 61.2525 41.1201 61.8027 41.3658 62.3041C41.9298 63.64 42.694 64.8857 43.633 66C43.1151 63.5789 43.7668 61.0589 45.3985 59.1731C47.0302 57.2874 49.4587 56.2477 51.9773 56.3566C52.3956 56.3745 52.8915 56.4732 53.0606 56.8455C53.1276 57.0453 53.1623 57.2541 53.1635 57.4645C53.2892 58.4131 54.272 59.0074 55.1953 59.3169C56.1186 59.6264 57.1471 59.826 57.8167 60.5212C58.4292 61.1603 58.6029 62.0776 58.9046 62.9051C59.2063 63.7327 59.7891 64.5983 60.6782 64.6993C60.8816 63.4703 61.0873 62.2323 60.9616 60.9854C60.8244 59.651 59.9102 58.8953 59.5903 57.7336C59.2429 56.5158 59.9011 55.3878 59.0326 54.2305Z" fill="#603556"/>
<path opacity="0.1" d="M34.5423 78.7166L31.5331 80.6927C31.5331 80.6927 30.6724 83.8631 30 84.2683C30 84.2683 36.0207 80.6284 40.5586 89C40.5586 89 40.4162 87.9083 41.036 87.3886C41.6558 86.869 41.5135 84.633 41.5135 84.633C41.6806 84.2788 41.8269 83.9133 41.9515 83.5389C42.3676 82.4066 40.1228 75.8562 34.5423 78.7166Z" fill="black"/>
<path d="M33.543 79.7155L30.5326 81.689C30.5326 81.689 29.6721 84.8577 29 85.2743C29 85.2743 36.4133 82.415 40.9498 90.7784C40.9498 90.7784 40.4493 89.519 41.0711 89C41.6929 88.481 41.4628 86.2643 41.4628 86.2643C41.631 85.9118 40.8263 84.9195 40.9498 84.5459C41.3745 83.4031 39.1216 76.8586 33.543 79.7155Z" fill="#A7C4EE"/>
<g opacity="0.1">
<path d="M45.7034 50.1697C45.692 49.3418 45.2046 48.4302 45.4414 47.6116L45.4828 47.6558C45.5402 48.5023 46.0046 49.393 45.7034 50.1697Z" fill="black"/>
<path d="M42.1517 54.5348C42.1034 55.465 42.1862 56.3952 41.9793 57.2999C42.0552 56.5906 42.0138 55.8603 42.0506 55.1441C42.0658 54.8045 42.1096 54.4668 42.1816 54.1348C42.1678 54.2766 42.1563 54.4022 42.1517 54.5348Z" fill="black"/>
<path d="M41.0713 60.386C41.0844 60.2015 41.1175 60.019 41.1701 59.8418C41.1787 60.3965 41.3049 60.943 41.5402 61.4441C42.0594 62.7114 42.7478 63.9008 43.5862 64.979C43.6136 65.2836 43.6581 65.5865 43.7195 65.886C42.775 64.7305 42.0063 63.4387 41.4391 62.0534C41.1919 61.5334 41.066 60.963 41.0713 60.386Z" fill="black"/>
<path d="M51.1012 48.8627C50.908 48.8511 50.7103 48.8372 50.5149 48.8209C50.077 48.0224 49.9577 47.0846 50.1816 46.2C50.0962 47.1799 50.4311 48.1497 51.1012 48.8627Z" fill="black"/>
<path d="M45.5931 58.1953C47.2467 56.2559 49.6815 55.1814 52.2115 55.2744C52.6322 55.2953 53.131 55.3953 53.3034 55.7814C53.3694 55.9889 53.4043 56.2052 53.4069 56.4232C53.5333 57.4069 54.5195 58.0255 55.4506 58.3441C56.3816 58.6627 57.4115 58.872 58.0851 59.5953C58.7034 60.2581 58.8782 61.2093 59.1816 62.0651C59.4851 62.9209 60.069 63.8186 60.9609 63.9255L60.8644 64.5348C59.9701 64.4372 59.3839 63.5395 59.0805 62.6744C58.777 61.8093 58.6023 60.8651 57.9862 60.2023C57.3126 59.4814 56.2782 59.272 55.3494 58.9534C54.4207 58.6348 53.4322 58.0232 53.3057 57.0325C53.3045 56.8144 53.2696 56.5978 53.2023 56.3907C53.023 56.0046 52.5333 55.9023 52.1126 55.8837C48.0744 55.6931 44.5062 58.5206 43.7218 62.5325C43.9218 60.9352 44.5714 59.4297 45.5931 58.1953Z" fill="black"/>
</g>
<path d="M99 78V87L91 86.31V78H99Z" fill="#3A3768"/>
<path opacity="0.1" d="M99 86.4839V87L91 86.5161V86L99 86.4839Z" fill="black"/>
<path d="M102 87L88 86.6552C88 86.2933 88.6135 86 89.3702 86L100.63 86.3448C101.387 86.3448 102 86.6382 102 87Z" fill="#3A3768"/>
<path d="M118.594 80L72.4055 78.6011C72.0326 78.6017 71.6747 78.4513 71.411 78.1832C71.1473 77.915 70.9994 77.5511 71 77.1719V49.4269C71 49.048 71.1482 48.6848 71.4118 48.4171C71.6755 48.1494 72.033 47.9994 72.4055 48L118.594 49.3989C119.37 49.3989 119.999 50.0374 120 50.8258V78.5708C120 79.3601 119.371 80 118.594 80Z" fill="#3A3768"/>
<path d="M120 79L73 77.6222V53L120 54.3778V79Z" fill="#005CA4"/>
<circle cx="95.5" cy="51.5" r="0.5" fill="white"/>
<path opacity="0.1" d="M99 79.992L91 79.854V80.1461H99V79.992Z" fill="black"/>
<path opacity="0.1" d="M83.5711 88L95 88.7053L92.5648 92L80 90.7368L83.5711 88Z" fill="black"/>
<path d="M83.5711 88L95 88.7053L92.5648 92L80 90.7368L83.5711 88Z" fill="#3A3768"/>
<path d="M84.3337 88L95 88.7033L92.7289 92L81 90.7356L84.3337 88Z" fill="#D5E1F4"/>
<ellipse opacity="0.1" cx="204.5" cy="182" rx="14.5" ry="2" fill="#6C63FF"/>
<path d="M212.406 129C212.406 129 214.006 131.245 211.665 134.636C209.323 138.026 207.4 140.892 208.174 143C208.174 143 211.707 136.703 214.581 136.616C217.454 136.529 215.575 132.78 212.406 129Z" fill="#005CA4"/>
<path opacity="0.1" d="M212.365 129C212.505 129.217 212.616 129.453 212.694 129.703C215.532 133.238 217.044 136.534 214.317 136.616C211.777 136.693 208.731 141.506 208 142.723C208.024 142.817 208.053 142.909 208.086 143C208.086 143 211.659 136.703 214.565 136.616C217.471 136.529 215.571 132.78 212.365 129Z" fill="black"/>
<path d="M217.191 131.261C217.191 131.665 217.105 132 217.001 132C216.897 132 216.809 131.671 216.809 131.261C216.809 130.851 216.915 131.047 217.022 131.047C217.129 131.047 217.191 130.857 217.191 131.261Z" fill="#FFD037"/>
<path d="M217.759 131.504C217.37 131.856 217.03 132.069 217.002 131.98C216.974 131.89 217.264 131.531 217.653 131.179C218.041 130.828 217.889 131.085 217.923 131.179C217.956 131.274 218.149 131.153 217.759 131.504Z" fill="#FFD037"/>
<path d="M203.596 129C203.596 129 201.993 131.245 204.335 134.636C206.676 138.026 208.6 140.892 207.826 143C207.826 143 204.294 136.703 201.418 136.616C198.542 136.529 200.433 132.78 203.596 129Z" fill="#005CA4"/>
<path opacity="0.1" d="M203.636 129C203.495 129.216 203.383 129.453 203.305 129.703C200.469 133.238 198.957 136.534 201.684 136.616C204.224 136.693 207.271 141.506 208 142.723C207.977 142.817 207.948 142.91 207.914 143C207.914 143 204.342 136.703 201.434 136.616C198.526 136.529 200.437 132.78 203.636 129Z" fill="black"/>
<path d="M200.81 131.261C200.81 131.665 200.893 132 201 132C201.107 132 201.19 131.671 201.19 131.261C201.19 130.851 201.083 131.047 200.979 131.047C200.875 131.047 200.81 130.857 200.81 131.261Z" fill="#FFD037"/>
<path d="M200.24 131.504C200.63 131.856 200.968 132.069 200.998 131.98C201.028 131.89 200.728 131.531 200.347 131.179C199.965 130.828 200.112 131.085 200.077 131.179C200.042 131.274 199.852 131.153 200.24 131.504Z" fill="#FFD037"/>
<ellipse opacity="0.1" cx="209" cy="157" rx="17" ry="3" fill="#6C63FF"/>
<path d="M217.996 139.016L217.912 139.696L217.795 140.653L217.746 141.054L217.628 142.011L217.579 142.411L217.462 143.369L216.124 154.269C216.005 155.243 214.404 156 212.474 156H205.524C203.593 156 201.998 155.243 201.878 154.269L200.538 143.369L200.421 142.411L200.372 142.011L200.252 141.054L200.203 140.653L200.086 139.696L200.004 139.016C199.936 138.466 200.8 138 201.892 138H216.108C217.193 138 218.064 138.466 217.996 139.016Z" fill="#65617D"/>
<path d="M218 140L217.882 141H200.118L200 140H218Z" fill="#9D9CB5"/>
<path d="M218 141L217.879 142H200.123L200 141H218Z" fill="#9D9CB5"/>
<path d="M216 143L215.891 144H200.109L200 143H216Z" fill="#9D9CB5"/>
</svg>
