<svg width="298" height="179" viewBox="0 0 298 179" fill="none" xmlns="http://www.w3.org/2000/svg">
<path d="M202.282 102.224L204.85 101.783C205.096 101.741 205.341 101.688 205.587 101.644C197.217 96.4841 193.563 86.2539 196.787 77.0087C200.011 67.7635 209.253 61.9699 219.044 63.0571L215.679 71.01L223.651 64.0959C223.67 64.1005 223.688 64.1066 223.706 64.114C228.978 65.9584 233.297 69.8076 235.712 74.8147C238.127 79.8219 238.441 85.5768 236.584 90.8135C236.45 91.1905 236.291 91.5506 236.139 91.915C238.39 90.7918 240.549 89.4843 242.31 87.8101C245.874 84.4175 247.828 79.7359 250.01 73.968C254.334 62.5382 258.497 50.9429 262.494 39.3223C253.387 34.4278 249.212 23.6858 252.645 13.9831C252.859 13.3788 253.107 12.7969 253.37 12.2255C253.436 12.0824 253.502 11.9403 253.571 11.7994C253.838 11.2515 254.12 10.7147 254.43 10.1995C254.48 10.115 254.537 10.036 254.589 9.95245C254.858 9.51807 255.143 9.09655 255.442 8.68789C255.553 8.53446 255.664 8.38145 255.779 8.23166C256.118 7.79164 256.469 7.36347 256.839 6.95471C256.962 6.81794 257.094 6.69015 257.22 6.55691C257.505 6.25903 257.797 5.97014 258.097 5.69024C258.255 5.54288 258.411 5.39446 258.573 5.25233C258.615 5.21587 258.654 5.17607 258.696 5.1399C258.698 5.14257 258.699 5.14543 258.701 5.14807C266.362 -1.4823 277.697 -1.7352 285.65 4.54681L281.271 14.8961L289.153 8.06424C294.814 15.2282 295.13 25.2157 289.932 32.7182C289.939 32.7208 289.947 32.7227 289.954 32.7253C289.868 32.8509 289.77 32.9659 289.682 33.0892C289.515 33.3208 289.345 33.5483 289.171 33.7716C288.947 34.058 288.715 34.3348 288.477 34.6078C288.298 34.8138 288.121 35.0216 287.935 35.2198C287.662 35.5098 287.376 35.7844 287.088 36.0574C286.92 36.2167 286.759 36.384 286.587 36.5374C286.133 36.9394 285.665 37.3208 285.18 37.6816C285.01 37.808 284.831 37.9195 284.658 38.0405C284.318 38.2781 283.976 38.5123 283.623 38.7291C283.404 38.8636 283.179 38.9865 282.955 39.1129C282.631 39.2961 282.305 39.4735 281.972 39.6393C281.736 39.7568 281.499 39.8684 281.258 39.9771C280.917 40.1318 280.57 40.2753 280.221 40.4118C279.986 40.5034 279.752 40.5961 279.515 40.6793C279.122 40.8167 278.724 40.936 278.323 41.0502C278.121 41.1079 277.922 41.174 277.718 41.2256C277.117 41.3779 276.509 41.5075 275.894 41.6068C275.778 41.6256 275.661 41.6326 275.545 41.6494C275.035 41.723 274.522 41.7825 274.006 41.8188C273.784 41.8343 273.561 41.8366 273.338 41.8452C272.92 41.8613 272.502 41.8696 272.082 41.8606C271.837 41.8555 271.592 41.8429 271.347 41.8291C270.938 41.8061 270.528 41.7707 270.118 41.723C269.876 41.6951 269.634 41.6674 269.392 41.631C268.953 41.5648 268.514 41.4783 268.075 41.3835C268.047 41.3773 268.018 41.3735 267.989 41.3672C266.302 46.2697 264.584 51.1618 262.834 56.0433C267.147 52.1917 272.868 50.2768 278.648 50.75C284.428 51.2232 289.756 54.0427 293.375 58.5437L286.088 66.5475L295.955 62.6358C298.351 67.6268 298.654 73.3586 296.798 78.5717C296.155 80.4035 295.253 82.1355 294.121 83.7161C289.133 90.7234 280.342 93.9956 271.946 91.9707C263.549 89.9458 257.249 83.0345 256.052 74.5356C255.866 75.0275 255.687 75.5255 255.501 76.0168C253.575 81.1053 251.179 87.4378 246.367 92.0162C243.105 95.1194 239.092 97.0882 235.241 98.7528C232.734 99.8365 230.193 100.838 227.619 101.759C224.758 103.482 221.525 104.505 218.187 104.744C214.125 105.865 210.013 106.8 205.861 107.522L203.273 107.966C200.947 108.361 198.562 108.769 196.194 109.238C196.535 109.339 196.876 109.435 197.215 109.553C205.871 112.579 211.562 120.816 211.29 129.925L195.063 134.872L209.747 137.188C207.016 143.853 201.033 148.658 193.9 149.916C186.767 151.173 179.484 148.706 174.611 143.381C174.76 143.877 174.91 144.373 175.06 144.867C175.358 145.85 175.654 146.827 175.938 147.794C179.802 160.98 178.139 171.353 171.255 177L167.519 172.509C174.219 167.012 172.14 155.685 170.306 149.421C170.027 148.471 169.736 147.511 169.443 146.546C166.927 138.243 164.074 128.831 167.769 120.182C173.337 107.147 189.387 104.417 202.282 102.224Z" fill="#F2F2F2"/>
<path d="M197.022 178H83.9775C76.258 178 70 171.795 70 164.141V112.79C70 111.283 70.6248 109.842 71.7279 108.806L131.631 52.5056C136.604 47.8315 144.396 47.8315 149.369 52.5056L206.483 106.185C209.367 108.895 211 112.661 211 116.6V164.141C211 167.817 209.527 171.342 206.906 173.941C204.285 176.54 200.73 178 197.022 178Z" fill="#3D4356"/>
<path opacity="0.1" d="M70 113H210V169.549C210 174.217 206.217 178 201.549 178H78.4507C73.7835 178 70 174.217 70 169.549L70 113Z" fill="black"/>
<rect x="89" y="69" width="104" height="104" rx="26.1811" fill="#005CA4"/>
<path opacity="0.1" d="M193 116V173H89V116L141 141.065L193 116Z" fill="black"/>
<path d="M140.5 144.692L73.8793 112.271C73.0417 111.864 72.0547 111.918 71.2666 112.416C70.4785 112.914 70 113.785 70 114.722V170.502C70 172.756 70.8892 174.917 72.472 176.511C74.0549 178.105 76.2017 179 78.4401 179H202.56C204.798 179 206.945 178.105 208.528 176.511C210.111 174.917 211 172.756 211 170.502V115.677C211 114.534 210.416 113.471 209.454 112.864C208.493 112.256 207.288 112.19 206.266 112.687L140.5 144.692Z" fill="#3D4256"/>
<rect x="98" y="78" width="29" height="5" fill="#F2F2F2"/>
<rect x="96" y="94" width="87" height="2" fill="#F2F2F2"/>
<rect x="96" y="102" width="87" height="2" fill="#F2F2F2"/>
<rect x="96" y="110" width="87" height="2" fill="#F2F2F2"/>
<path d="M17 178H260" stroke="#3F3D56"/>
<path d="M0 142C0 159.135 10.7344 173 24 173L0 142Z" fill="#3D4256"/>
<path d="M24 173C24 155.865 36.0762 142 51 142L24 173Z" fill="#005CA4"/>
<path d="M9 143C9 159.582 15.709 173 24 173L9 143Z" fill="#005CA4"/>
<path d="M24 173C24 150.891 37.8652 133 55 133L24 173Z" fill="#3D4256"/>
<path d="M19 174.002C19 174.002 22.4937 173.888 23.5466 173.093C24.5995 172.298 28.9208 171.348 29.182 172.623C29.4432 173.898 34.4323 178.965 30.488 178.999C26.5436 179.033 21.323 178.347 20.2722 177.669C19.2213 176.99 19 174.002 19 174.002Z" fill="#A8A8A8"/>
<path opacity="0.2" d="M30.5592 177.555C26.6145 177.589 21.3936 176.904 20.3427 176.226C19.5423 175.709 19.2234 173.855 19.1166 173C19.0427 173.003 19 173.005 19 173.005C19 173.005 19.2213 175.991 20.2723 176.669C21.3232 177.348 26.5442 178.033 30.4888 177.999C31.6274 177.989 32.0208 177.56 31.9992 176.924C31.841 177.308 31.4067 177.548 30.5592 177.555Z" fill="black"/>
<path d="M210.957 48.0185C210.786 49.6225 209.62 50.9147 209.188 52.4639C208.538 54.7956 209.662 57.2978 211.2 59.1137C213.706 62.0423 217.225 63.7959 220.971 63.9832C221.516 64.0335 222.065 63.9707 222.586 63.7984C223.052 63.6017 223.472 63.3008 223.816 62.9168C224.974 61.6963 225.595 60.0054 225.843 58.3027C226.091 56.6 225.994 54.8653 225.898 53.1459C225.898 52.7905 225.837 52.4379 225.716 52.1058C225.558 51.7893 225.341 51.5095 225.078 51.2828C224.244 50.48 223.326 49.7798 222.341 49.1958C221.896 48.9864 221.503 48.671 221.194 48.2746C221.008 47.9351 220.887 47.5603 220.84 47.1718L220.537 45.5544C220.483 45.0884 220.332 44.6406 220.093 44.2434C219.559 43.487 218.537 43.3841 217.641 43.3472L214.357 43.212C213.335 43.1699 211.989 42.8625 210.992 43.073C210.061 43.2696 210.37 44.1703 210.54 44.9903C210.785 45.9804 210.925 46.996 210.957 48.0185Z" fill="#A0616A"/>
<path opacity="0.1" d="M210.957 48.0185C210.786 49.6225 209.62 50.9147 209.188 52.4639C208.538 54.7956 209.662 57.2978 211.2 59.1137C213.706 62.0423 217.225 63.7959 220.971 63.9832C221.516 64.0335 222.065 63.9707 222.586 63.7984C223.052 63.6017 223.472 63.3008 223.816 62.9168C224.974 61.6963 225.595 60.0054 225.843 58.3027C226.091 56.6 225.994 54.8653 225.898 53.1459C225.898 52.7905 225.837 52.4379 225.716 52.1058C225.558 51.7893 225.341 51.5095 225.078 51.2828C224.244 50.48 223.326 49.7798 222.341 49.1958C221.896 48.9864 221.503 48.671 221.194 48.2746C221.008 47.9351 220.887 47.5603 220.84 47.1718L220.537 45.5544C220.483 45.0884 220.332 44.6406 220.093 44.2434C219.559 43.487 218.537 43.3841 217.641 43.3472L214.357 43.212C213.335 43.1699 211.989 42.8625 210.992 43.073C210.061 43.2696 210.37 44.1703 210.54 44.9903C210.785 45.9804 210.925 46.996 210.957 48.0185Z" fill="black"/>
<path d="M232.785 118.777C232.328 124.02 231.871 129.262 231.414 134.503C231.056 138.628 230.691 142.77 229.989 146.842C229.747 148.245 229.463 149.641 229.126 151.025C228.189 154.867 226.829 158.623 226.39 162.562C226.377 162.675 226.365 162.791 226.353 162.907C226.304 163.778 226.147 164.639 225.885 165.467C225.665 166.068 225.328 166.617 225.091 167.211C224.617 168.399 224.555 169.713 224.497 171C222.833 170.021 221.01 169.369 219.121 169.078C218.209 168.935 217.193 168.834 216.572 168.121C215.884 167.334 215.96 166.129 216.076 165.071C216.438 161.787 216.8 158.504 217.161 155.222C217.279 153.811 217.508 152.412 217.846 151.039C217.971 150.583 218.121 150.134 218.273 149.685C218.484 149.066 218.696 148.448 218.855 147.813C219.085 146.787 219.245 145.745 219.335 144.695C219.707 141.391 220.155 138.095 220.547 134.793L220.568 134.619C221.157 129.615 221.605 124.587 221.475 119.547C221.457 118.801 221.427 118.054 221.381 117.306C221.316 116.221 221.221 115.647 222.08 114.968C223.029 114.219 224.278 113.695 225.363 113.205C225.947 112.939 232.379 110.551 232.529 111.075C232.831 112.193 232.989 113.348 233 114.509C233.004 115.935 232.933 117.359 232.785 118.777Z" fill="#5D6A82"/>
<path opacity="0.1" d="M230 146.098C229.731 147.487 229.416 148.869 229.042 150.239C228.002 154.042 226.493 157.759 226.006 161.658C225.991 161.771 225.978 161.885 225.966 162C222.784 157.759 220.105 153.198 217 148.912C217.233 148.3 217.469 147.688 217.646 147.059C217.9 146.044 218.078 145.012 218.178 143.973C218.591 140.703 219.088 137.44 219.523 134.172L219.546 134C219.728 134.694 219.989 135.368 220.322 136.01C222.407 139.964 227.362 141.963 229.785 145.747C229.859 145.864 229.931 145.981 230 146.098Z" fill="black"/>
<path d="M206.011 110.652C206.108 113.891 206.61 117.101 207.11 120.299L208.144 126.899C208.709 130.511 209.298 134.197 210.952 137.432C212.19 139.853 213.973 141.918 215.586 144.089C219.552 149.427 222.531 155.473 226.291 160.968C227.384 162.565 228.947 164.292 230.812 163.958C232.036 163.739 232.926 162.686 233.888 161.874C235.022 160.917 236.39 160.217 237.283 159.017C238.175 157.817 238.35 155.822 237.141 154.968C236.703 154.718 236.239 154.522 235.756 154.383C233.882 153.647 232.668 151.755 231.896 149.842C231.124 147.929 230.656 145.873 229.627 144.094C227.392 140.229 222.821 138.188 220.897 134.148C219.82 131.886 219.717 129.278 219.634 126.758L219.425 120.333C219.402 119.631 219.384 118.9 219.66 118.258C220.396 116.548 222.618 116.389 224.417 116.172C226.459 115.924 228.438 115.28 230.247 114.271C231.284 113.693 232.296 112.956 232.85 111.882C233.356 110.903 233.426 109.754 233.485 108.646L234.108 97.0029C234.162 96.0012 234.211 94.9655 233.869 94.0265C233.011 91.6686 230.129 90.8981 227.694 91.0106C223.161 91.2199 218.977 93.2344 214.703 94.5947C213.645 94.9397 212.57 95.2293 211.483 95.4624C210.524 95.6613 209.363 95.5788 208.449 95.8974C206.822 96.4641 206.863 100.14 206.633 101.664C206.156 104.634 205.948 107.643 206.011 110.652Z" fill="#5D6A82"/>
<path d="M230.962 164.43C231.388 164.841 231.527 165.443 231.638 166.012C232.253 169.168 232.573 172.371 232.594 175.582C232.566 175.881 232.629 176.182 232.774 176.449C232.894 176.608 233.057 176.733 233.245 176.81C234.476 177.372 235.905 176.589 236.931 175.73C238.832 174.136 240.442 171.996 240.55 169.579C240.53 168.957 240.553 168.334 240.618 167.714C240.785 166.804 241.34 166.011 241.829 165.215C242.662 163.859 243.334 162.419 243.832 160.92C244.019 160.357 244.143 159.648 243.682 159.256C243.519 159.133 243.333 159.041 243.134 158.983L237.573 157.007C237.091 156.836 235.892 159.783 235.701 160.106C235.236 160.894 234.773 161.341 233.839 161.523C232.886 161.709 231.751 161.442 230.861 161.898C229.356 162.667 230.11 163.607 230.962 164.43Z" fill="#2F2F2F"/>
<path d="M222.005 165.952C221.907 165.748 221.77 165.566 221.603 165.419C221.359 165.257 221.081 165.158 220.793 165.131C219.789 164.953 218.599 164.835 217.906 165.616C217.257 166.348 217.368 167.541 216.825 168.363C216.653 168.623 216.42 168.837 216.271 169.112C216.086 169.533 216.003 169.994 216.028 170.456C216 171.73 215.972 173.006 216.056 174.276C216.127 175.341 216.298 176.457 216.935 177.291C217.956 178.63 219.799 178.823 221.434 178.91L222.758 178.98C223.123 179.027 223.493 178.991 223.844 178.876C224.282 178.664 224.62 178.275 224.78 177.798C225.47 176.005 224.378 174.074 223.705 172.274C222.932 170.205 223.071 167.908 222.005 165.952Z" fill="#2F2F2F"/>
<path d="M211.599 38.985C211.583 38.8005 211.609 38.6145 211.675 38.4426C211.871 38.0783 212.382 38.1775 212.768 38.2798C214.32 38.6913 215.956 38.3188 217.554 38.4149C219.152 38.5111 220.952 39.3511 221.274 41C222.433 40.1353 223.433 39.055 224.224 37.8123C224.668 37.1144 225.054 36.315 224.994 35.478C224.907 34.2708 223.943 33.3679 223.051 32.6023L220.393 30.32C220.044 29.9828 219.641 29.7134 219.202 29.5242C218.588 29.3036 217.919 29.4087 217.27 29.4091C215.334 29.4104 213.271 28.4843 211.549 29.4147C210.83 29.8033 210.289 30.4693 209.768 31.1187L207.394 34.0724C207.216 34.2606 207.085 34.4933 207.015 34.7487C206.948 35.1093 207.124 35.4651 207.185 35.8268C207.297 36.4867 207.027 37.1909 207.235 37.8246C207.58 38.8765 208.795 39.0255 209.537 39.6286C209.814 39.8533 210.248 40.6151 210.578 40.6058C211.173 40.589 211.584 39.4711 211.599 38.985Z" fill="#3F3D56"/>
<circle cx="215.5" cy="39.5" r="7.5" fill="#A0616A"/>
<path d="M217.465 56.203C216.931 54.6877 215.467 53.6899 213.846 53.7371C213.621 53.7787 213.387 53.7495 213.179 53.6535C213.061 53.5639 212.967 53.4474 212.904 53.3139C212.438 52.4831 212.063 51.605 211.786 50.6948C211.663 50.2927 211.496 49.8185 211.085 49.714C210.738 49.6691 210.395 49.817 210.192 50.0987C209.996 50.377 209.783 50.6424 209.553 50.8932C208.588 51.7476 206.877 50.9689 205.853 51.7528C205.685 51.8808 205.547 52.0448 205.372 52.1613C205.196 52.2661 205.006 52.3466 204.808 52.4005C202.83 53.0399 200.891 53.7919 199 54.6528C199.681 58.7158 200.38 62.8498 201.977 66.6528C202.737 68.4626 203.598 70.2351 204.207 72.1002C205.556 76.2326 205.615 80.6542 205.631 84.997C205.641 87.9693 205.626 91.0051 204.655 93.8175C204.394 94.439 204.209 95.0897 204.106 95.7551C204.048 96.4253 204.245 97.1642 204.793 97.5613C205.111 97.7672 205.475 97.8937 205.853 97.9298C207.536 98.1743 209.232 97.7309 210.89 97.3509C215.331 96.3325 219.861 95.7498 224.382 95.1685L231.958 94.1946C232.501 94.1581 233.032 94.0221 233.525 93.7935C234.911 93.042 235.043 90.9773 234.182 89.665C233.769 89.0358 233.187 88.5197 232.84 87.8526C232.493 87.1856 232.464 86.2529 233.061 85.7909C234.275 84.8511 233.913 83.1075 233.971 81.5826C234.133 77.3186 234.111 73.0529 233.905 68.7856C233.844 67.9023 233.83 67.0164 233.862 66.1316C233.997 64.6322 234.277 63.1492 234.698 61.7028L237 52.7286C236.399 51.7877 235.247 51.1907 234.156 50.9197C233.066 50.6487 231.93 50.5689 230.855 50.2394C228.655 49.5642 226.696 47.8508 224.397 48.0104C224.224 48.0135 224.053 48.0549 223.897 48.1315C223.379 48.4222 223.461 49.1618 223.427 49.7507C223.354 51.0537 222.386 52.1427 221.317 52.9062C220.248 53.6697 219.028 54.2264 218.046 55.0971C217.694 55.36 217.48 55.7665 217.465 56.203Z" fill="#005CA4"/>
<path d="M186.101 64.6932C185.59 65.0063 185.046 65.2702 184.478 65.4808C183.923 65.6368 183.397 65.8771 182.924 66.1924C182.705 66.3705 182.522 66.5838 182.383 66.8224C181.851 67.712 181.875 68.8043 182.445 69.6728C183.015 70.5414 184.041 71.0485 185.122 70.9963C185.828 70.9217 186.514 70.7289 187.148 70.4268L192.59 68.2026C193.511 67.8262 194.506 67.385 194.941 66.5319C194.992 66.4524 195.011 66.3583 194.994 66.2668C194.95 66.17 194.871 66.0913 194.771 66.0451C193.543 65.2933 192.47 64.3386 191.602 63.227C191.379 62.9411 191.105 62.2661 190.79 62.0946C189.638 61.469 187.023 64.1289 186.101 64.6932Z" fill="#A0616A"/>
<path d="M244.159 63L246.037 65.2419C246.44 65.7232 246.844 66.205 247.212 66.7166C248.114 68.0163 248.838 69.4416 249.362 70.9511C249.771 72.0705 250.109 73.2628 249.967 74.4515C249.872 75.0608 249.715 75.6577 249.497 76.2317C249.153 77.3356 248.726 78.4095 248.221 79.4435C247.796 80.2291 247.316 80.9808 246.785 81.6924C245.331 83.7063 243.74 85.6081 242.024 87.383C241.382 88.0472 241.113 89.1211 240.834 90.0189C240.318 91.6748 239.092 92.9646 237.905 94.1876C237.524 94.6083 237.103 94.9872 236.648 95.3183C235.967 95.777 235.17 96.014 234.36 95.9994C234.005 96.0019 233.654 95.926 233.329 95.7764C232.517 95.3736 232.105 94.3927 232.02 93.4578C231.945 92.6094 232.081 91.755 232.415 90.9779C233.493 88.4831 236.26 87.4021 238.216 85.5818C239.363 84.5145 240.24 83.1738 241.106 81.8476C241.693 81.0196 242.184 80.121 242.567 79.171C243.004 77.9529 242.834 76.5109 243.215 75.2726C243.377 74.7493 243.663 74.2767 243.837 73.7575C244.01 73.2384 244.054 72.6221 243.75 72.1729C243.522 71.8874 243.23 71.6642 242.9 71.5224C241.651 70.8596 240.251 70.0066 240.012 68.5637C239.917 67.7635 240.117 66.9554 240.571 66.3039C241.025 65.6612 241.554 65.0812 242.147 64.5781C242.694 64.0731 243.613 63.505 244.159 63Z" fill="#A0616A"/>
<path d="M185.195 67.9356C184.843 67.254 184.403 66.5585 183.693 66.2196C182.997 65.9299 182.207 65.9267 181.509 66.2108C180.82 66.4955 180.175 66.8693 179.592 67.3218L177.874 68.536C177.484 68.781 177.139 69.086 176.853 69.4387C176.582 69.8666 176.401 70.3415 176.322 70.8362C176.022 71.9645 175.931 73.1344 176.052 74.2929C176.324 76.1505 177.493 77.7722 178.779 79.1862C179.582 80.0697 180.575 80.9614 181.797 80.9991C182.324 81.0153 182.911 80.816 183.131 80.3558C183.207 80.1734 183.247 79.9791 183.25 79.7826C183.382 77.7107 182.609 75.6869 181.707 73.7996C181.419 73.3054 181.249 72.7564 181.209 72.1919C181.203 72.0969 181.229 72.0024 181.283 71.9226C181.361 71.845 181.465 71.7964 181.576 71.7853C182.81 71.5513 184.936 72.4703 185.802 71.1566C186.363 70.305 185.594 68.7079 185.195 67.9356Z" fill="#A0616A"/>
<path d="M210.599 35.985C210.583 35.8005 210.609 35.6145 210.675 35.4426C210.871 35.0783 211.382 35.1775 211.768 35.2798C213.32 35.6913 214.956 35.3188 216.554 35.4149C218.152 35.5111 219.952 36.3511 220.274 38C221.433 37.1353 222.433 36.055 223.224 34.8123C223.668 34.1144 224.054 33.315 223.994 32.478C223.907 31.2708 222.943 30.368 222.051 29.6023L219.393 27.32C219.044 26.9828 218.641 26.7134 218.202 26.5242C217.588 26.3036 216.919 26.4087 216.27 26.4091C214.334 26.4104 212.271 25.4843 210.549 26.4146C209.83 26.8033 209.289 27.4693 208.768 28.1187L206.394 31.0724C206.216 31.2606 206.085 31.4933 206.015 31.7487C205.948 32.1093 206.124 32.4651 206.185 32.8268C206.297 33.4867 206.027 34.1909 206.235 34.8246C206.58 35.8765 207.795 36.0255 208.537 36.6286C208.814 36.8533 209.248 37.6151 209.578 37.6058C210.173 37.589 210.584 36.4711 210.599 35.985Z" fill="#3F3D56"/>
<path d="M194.238 56.6401C193.918 56.8468 193.637 57.1087 193.408 57.4137C193.118 57.8538 193.059 58.4095 192.809 58.8741C192.275 59.8685 191.026 60.2222 190.246 61.038C190.123 61.1501 190.037 61.298 190 61.4612C189.996 61.6826 190.07 61.8983 190.209 62.0704L193.968 67.9893C195.219 68.0997 196.42 67.3143 197.672 67.4186C198.139 67.4575 198.617 67.6193 199.065 67.4809C199.386 67.3383 199.687 67.1541 199.96 66.9328C200.707 66.4598 201.702 66.4046 202.328 65.7805C202.93 65.1815 203.006 64.2443 202.999 63.3948C203.009 62.6571 202.934 61.9206 202.776 61.2001C202.222 58.9282 200.488 57.1847 199.401 55.1722C198.871 54.1925 198.583 53.6189 197.463 54.2916C196.336 54.9679 195.298 55.8636 194.238 56.6401Z" fill="#005CA4"/>
<path d="M238.08 53.9365C238.745 54.3819 239.345 54.9235 239.861 55.5447C240.4 56.2616 240.705 57.139 241.223 57.8723C241.725 58.5832 242.408 59.1337 242.977 59.7883C243.841 60.781 244.426 61.992 245 63.1868C243.597 65.0737 242.068 66.8566 240.423 68.5223C240.239 68.7448 239.998 68.9084 239.728 68.9935C239.354 69.0345 238.985 68.8793 238.745 68.5804C238.49 68.3046 238.309 67.9647 238.066 67.6783C237.491 67.0665 236.724 66.6843 235.902 66.5992C235.088 66.518 234.268 66.5063 233.451 66.5644C233.272 66.585 233.091 66.5536 232.928 66.4736C232.807 66.3874 232.708 66.2713 232.642 66.1357C231.684 64.4543 231.992 62.3433 232.33 60.4245L233.106 56.0214C233.218 55.1805 233.435 54.3581 233.751 53.5743C234.045 52.9268 234.702 51.8288 235.51 52.0226C236.324 52.218 237.395 53.4283 238.08 53.9365Z" fill="#005CA4"/>
<circle cx="93" cy="71" r="12" fill="white"/>
<path fill-rule="evenodd" clip-rule="evenodd" d="M78 71.5C78 63.4919 84.4919 57 92.5 57C100.498 57.0234 106.977 63.5016 107 71.5C107 79.5081 100.508 86 92.5 86C84.4919 86 78 79.5081 78 71.5ZM82.0921 71.7998L89.5233 79.231L102.915 65.8534L100.831 63.769L89.5303 75.0692L84.1764 69.7154L82.0921 71.7998Z" fill="#57B894"/>
</svg>
