<svg width="313" height="164" viewBox="0 0 313 164" fill="none" xmlns="http://www.w3.org/2000/svg">
<path d="M312.336 119.413C310.7 129.842 305.629 139.965 297.26 146.371C289.024 152.68 278.473 154.921 268.286 156.848C256.07 159.162 243.819 161.277 231.535 163.194C229.794 163.472 228.052 163.741 226.308 164H154.76C154.688 163.903 154.611 163.802 154.539 163.702C154.422 163.532 154.306 163.363 154.193 163.194C154.129 163.097 154.064 162.996 154 162.895H198.878C201.53 162.893 203.679 160.74 203.684 158.082V98.0311C203.973 97.12 204.243 96.2049 204.488 95.2777C205.632 90.9601 206.377 86.5459 206.712 82.0911C206.953 78.987 207.025 75.8829 206.973 72.7747C206.824 64.2323 205.711 55.6898 204.5 47.2079C204.412 46.583 204.319 45.9541 204.231 45.3293C203.378 39.4355 202.602 33.0216 205.566 27.8574C208.956 21.9475 216.48 19.4843 223.256 20.089C235.444 21.1815 245.711 30.5383 251.047 41.5801C256.379 52.618 257.574 65.1716 258.06 77.4269C258.318 83.9254 258.289 90.7142 257.385 97.2329C260.441 90.2264 263.5 83.2199 266.561 76.2134C268.194 72.4764 269.911 68.6184 272.935 65.8851C279.257 60.1646 289.712 61.3176 296.464 66.5261C303.212 71.7386 306.911 79.9747 309.372 88.1462C312.421 98.2528 313.977 108.984 312.336 119.413Z" fill="#F2F2F2"/>
<path d="M285.424 62.8901C289.827 70.7171 291.847 79.6921 291.798 88.6485C291.73 97.5285 289.773 106.291 286.058 114.351C282.697 121.628 278.015 128.213 272.252 133.769C266.563 139.312 259.814 143.64 252.411 146.489C243.821 149.721 234.531 150.607 225.489 149.057C224.233 148.84 222.986 148.578 221.748 148.269C220.997 148.083 220.677 149.246 221.429 149.432C230.838 151.773 240.706 151.488 249.966 148.608C257.678 146.118 264.794 142.055 270.868 136.673C277.017 131.277 282.103 124.77 285.86 117.491C289.971 109.521 292.369 100.774 292.9 91.8155C293.424 82.7247 291.906 73.472 287.989 65.2255C287.514 64.2262 287.005 63.2448 286.461 62.2813C286.288 62.0063 285.929 61.9184 285.649 62.0826C285.37 62.2467 285.27 62.6038 285.424 62.8901H285.424Z" fill="white"/>
<path d="M220.837 19.907C225.707 28.9361 229.503 38.511 232.144 48.4336C237.433 68.3071 238.229 89.1194 234.475 109.343C232.601 119.447 229.544 129.292 225.369 138.674C221.206 147.976 215.212 157.778 204.974 161.035C203.819 161.401 202.634 161.667 201.434 161.831C200.673 161.936 200.997 163.098 201.753 162.993C212.343 161.531 219.702 152.682 224.317 143.661C229.093 134.328 232.493 124.192 234.754 113.959C239.236 93.5402 239.075 72.3674 234.283 52.0202C231.902 41.8839 228.344 32.0645 223.682 22.7645C223.097 21.5999 222.493 20.4445 221.872 19.2985C221.504 18.6167 220.468 19.2245 220.837 19.907V19.907Z" fill="white"/>
<path d="M170.489 18H98.5106C95.4688 18.004 93.0039 20.4835 93 23.5433V59.8228H104.077C105.725 59.8183 107.257 60.6706 108.129 62.0764L111.969 68.2244L115.64 74.0983L116.329 75.2029L120.529 81.9234L120.577 82H176V23.5433C175.996 20.4835 173.531 18.004 170.489 18Z" fill="#CCCCCC"/>
<path d="M142.418 30H106.582C104.604 30 103 31.567 103 33.5C103 35.433 104.604 37 106.582 37H142.418C144.396 37 146 35.433 146 33.5C146 31.567 144.396 30 142.418 30Z" fill="white"/>
<path d="M162.102 47H106.898C104.745 47 103 48.7909 103 51C103 53.2091 104.745 55 106.898 55H162.102C164.255 55 166 53.2091 166 51C166 48.7909 164.255 47 162.102 47V47Z" fill="white"/>
<path d="M165.627 63.304C164.979 61.8993 163.591 61.0014 162.063 61H106.252C106.166 61 106.085 61.0041 106 61.0082C106.728 61.4123 107.342 61.9999 107.782 62.7146L111.669 69H162.063C163.41 69.0004 164.664 68.3011 165.386 67.1465C166.109 65.9918 166.199 64.5422 165.627 63.304Z" fill="white"/>
<path d="M165.964 77.4621C165.702 75.4804 164.057 74.0021 162.111 74H116L116.689 75.1293L120.891 82H162.111C162.921 82.0018 163.711 81.7407 164.368 81.254C165.392 80.5038 166 79.2907 166 77.9979C166 77.8187 165.988 77.6396 165.964 77.4621Z" fill="white"/>
<path d="M209.484 49.5947L203.86 47.3984L175.817 36.4613L142.267 23.3761C139.423 22.2734 136.223 23.6776 135.111 26.5159L133.938 29.5232L131.146 36.6661L127.088 47.0611L124.043 54.8585L121.761 60.7044L118.716 68.4977L116.43 74.3477L116.366 74.5163L116 75.4478L120.21 82.141L120.259 82.2173H198.243C199.693 82.216 201.066 82.8715 201.976 84L202.305 83.1649L206.331 72.8621L212.622 56.7496C213.728 53.908 212.325 50.7079 209.484 49.5947Z" fill="#47B881"/>
<path d="M179.699 49.1449L176.653 47.9802L145.941 36.241C144.077 35.5343 141.98 36.434 141.246 38.2554C140.524 40.0827 141.445 42.1384 143.307 42.8545L153.45 46.7317L165.996 51.5263L176.653 55.6029L177.064 55.7584C178.927 56.4671 181.024 55.5639 181.751 53.7399C182.478 51.9158 181.559 49.8599 179.699 49.1449H179.699Z" fill="white"/>
<path d="M191.527 73.437L176.506 67.5237L165.784 63.3046L160.057 61.0498L145.14 55.1769L140.293 53.269C138.419 52.5309 136.296 53.3589 135.402 55.1769C135.354 55.2777 135.306 55.3826 135.266 55.4915C134.891 56.4586 134.913 57.5361 135.327 58.487C135.74 59.4379 136.511 60.1842 137.47 60.5617L138.709 61.0498L158.593 68.879L176.506 75.9298L188.703 80.7338C189.152 80.9105 189.63 81.0008 190.111 81C191.98 81.0033 193.586 79.6633 193.932 77.8113C194.279 75.9593 193.268 74.1211 191.527 73.437H191.527Z" fill="white"/>
<path d="M175.906 81.5698L174.932 81.1883L165.414 77.4545L156.72 74.0453L141.641 68.1321L134.348 65.2708C133.043 64.7576 131.564 64.9839 130.47 65.8644C129.376 66.7449 128.833 68.1457 129.046 69.5381C129.258 70.9306 130.195 72.1029 131.502 72.6127L135.152 74.0453L153.364 81.1883L155.238 81.9229L155.432 82H177L175.906 81.5698Z" fill="white"/>
<path d="M139.805 81.9258L137.962 81.2186L130.259 78.2609C129.169 77.841 127.943 77.9315 126.929 78.5069C125.915 79.0824 125.222 80.0802 125.046 81.2186C125.008 81.4523 124.993 81.6892 125.003 81.9258C125.002 81.9506 125.003 81.9754 125.007 82H140L139.805 81.9258Z" fill="white"/>
<path fill-rule="evenodd" clip-rule="evenodd" d="M153.28 163.198C153.345 163.298 153.409 163.398 153.474 163.495H82.3005C83.0315 163.829 83.8268 164.001 84.6315 164H198.364C199.17 164.001 199.967 163.829 200.7 163.495C202.707 162.587 203.997 160.599 204 158.408V87.6627C204.001 86.2299 203.445 84.8519 202.449 83.8158C201.388 82.6985 199.91 82.0657 198.364 82.0668L153.264 82.0668H123.951C123.912 82.3068 123.897 82.55 123.906 82.7929L119.899 82.7928L119.948 82.8691L155.332 82.8691H198.364C201.03 82.8713 203.19 85.0162 203.192 87.6627L203.192 158.408C203.187 161.053 201.028 163.195 198.364 163.198H153.28ZM115.665 76.1058L116.033 75.1752L115.928 75.0067L112.228 69.1621L108.083 62.6154C107.05 60.99 105.251 60.0029 103.316 60L92.1495 60H84.6315C81.5221 60.0058 79.0036 62.5084 79 65.5959V158.408L79 65.5959C79.0036 62.5084 81.5221 60.0058 84.6315 60L92.1495 60V60.8023L103.316 60.8023C104.976 60.7978 106.521 61.6459 107.4 63.0447L111.27 69.1621L114.971 75.0067L115.665 76.1058ZM79.809 65.4987C79.8083 65.531 79.808 65.5634 79.808 65.5959L79.808 158.408V65.5959C79.808 65.5634 79.8083 65.531 79.809 65.4987Z" fill="#3F3D56"/>
<path d="M63 116.079L60.6939 121L41 114.263L44.4032 107L63 116.079Z" fill="#FFB8B8"/>
<path d="M57.6675 123.714L62.3316 113.983L68.1895 116.779L60.9378 131.907L60.4899 131.694C57.5021 130.268 56.2384 126.695 57.6675 123.714Z" fill="#2F2E41"/>
<path d="M67.3338 159L62.2156 158.819L62 138L68 138.37L67.3338 159Z" fill="#FFB8B8"/>
<path d="M58.2539 156.811L69.0574 157.175L68.8384 163.651L52.0414 163.085L52.0582 162.59C52.1699 159.287 54.9438 156.7 58.2539 156.811Z" fill="#2F2E41"/>
<path d="M76.7502 71.3717C76.7502 71.3717 60.2979 67.2338 52.8395 73.3317L48.6716 85.3097L32 108.83L56.13 123.204L60.5173 112.315L49.9878 107.088L62.7109 96.1988L60.5173 153.693L68.8531 155C68.8531 155 87.2796 84.003 76.7502 71.3717Z" fill="#2F2E41"/>
<path d="M52 76L52.1968 75.6455C54.2714 71.9081 53.9352 65.822 53.288 61.3747C52.7458 57.6496 52.7621 51.085 52.8713 46.2337C52.9268 42.8609 55.2828 39.978 58.5425 39.2941C63.4546 38.2583 69.4851 38.0388 72.6426 38L72.6452 38.2182L72.6426 38C74.4271 37.9928 75.8896 39.4332 75.9334 41.241C76.0294 46.4651 75.9996 55.9916 74.7202 61.1028C72.8215 68.6888 75.7906 73.8439 75.8209 73.895L76 74.1984L52 76Z" fill="#005CA4"/>
<path d="M42.977 96.5918C44.0806 96.078 44.8934 95.1154 45.1967 93.963C45.5 92.8106 45.2627 91.5868 44.5486 90.6208L54 51H46.8545L38.5132 89.8399C36.8878 91.1423 36.5214 93.4207 37.6602 95.1432C38.799 96.8658 41.0831 97.4881 42.977 96.5918Z" fill="#FFB8B8"/>
<path d="M99 57.3372L83.866 43L79.7758 48.7349L90.0014 57.7469L76.591 68.4122C76.4942 68.4056 76.3977 68.3974 76.299 68.3974C74.0008 68.3952 72.1081 70.2053 72.0044 72.5046C71.9008 74.8039 73.6229 76.7775 75.912 76.9826C78.2011 77.1878 80.2458 75.5519 80.5515 73.2706L80.5938 73.313L99 57.3372Z" fill="#FFB8B8"/>
<path d="M57 39.141C57 39.141 47.2177 37.5593 46.3306 44.9921C45.4435 52.4249 45 52.4249 45 52.4249C45 52.4249 52.0967 51.1133 53.8708 52.8622C55.645 54.611 57 39.141 57 39.141Z" fill="#005CA4"/>
<path d="M71 38.2392C71 38.2392 79.0526 36.9368 82.6316 40.4099C86.2105 43.883 88 44.7513 88 44.7513C88 44.7513 79.9474 49.0927 83.0789 53C83.0789 53 74.5789 49.0927 73.2368 50.3952C71.8947 51.6976 71 38.2392 71 38.2392Z" fill="#005CA4"/>
<path d="M64.4309 13.1905C61.9668 11.1878 61.3193 7.3225 62.749 4.46196C64.1787 1.60142 67.411 -0.121964 70.5619 0.00673795C73.7129 0.13544 76.682 1.97648 78.5075 4.59341C81.0718 8.26949 81.6099 13.3787 85.0196 16.2567C88.0993 18.8561 92.5112 18.7816 96.5071 18.5748C97.8541 18.5051 99.2446 18.4243 100.453 17.8152C101.662 17.2062 102.649 15.9217 102.494 14.5583C103.497 16.1755 102.915 18.443 101.568 19.7774C100.221 21.1118 98.3038 21.6709 96.4369 21.8935C89.736 22.6102 83.161 19.6743 79.1418 14.1709C77.7515 12.2189 76.6785 9.94597 74.7707 8.51685C72.8629 7.08774 69.6819 6.98826 68.5107 9.08382C67.9314 10.1203 67.9883 11.4203 67.4556 12.4823C66.9229 13.5443 65.1931 14.117 64.6801 13.045" fill="#2F2E41"/>
<circle cx="64" cy="22" r="12" fill="#2F2E41"/>
<circle cx="64" cy="25" r="10" fill="#FFB8B8"/>
<path d="M55 18.2769C56.3416 18.5594 55.9026 20.7255 56.9627 21.5657C57.9191 22.3236 59.2962 21.5441 60.4999 21.262C62.0194 20.9057 63.6099 21.4276 65.0129 22.0929C66.4159 22.7582 67.7687 23.5838 69.2992 23.8938C70.8297 24.2037 72.6441 23.8544 73.5021 22.5958C74.3224 21.3924 74.0205 19.7695 73.3787 18.4695C71.7507 15.1721 68.3174 13.0515 64.5246 13.0009C60.7319 12.9503 57.2388 14.9785 55.5165 18.2313" fill="#2F2E41"/>
<path d="M288 163.5C287.999 163.776 287.82 163.999 287.598 164H0.402235C0.180087 164 0 163.776 0 163.5C0 163.224 0.180087 163 0.402235 163H287.598C287.82 163.001 287.999 163.224 288 163.5Z" fill="#3F3D56"/>
</svg>
