<svg width="308" height="180" viewBox="0 0 308 180" fill="none" xmlns="http://www.w3.org/2000/svg">
<g opacity="0.5">
<path d="M0 0V9.07412V179.845H258.933V9.07412V0H0Z" fill="url(#paint0_linear_0_11441)"/>
</g>
<rect x="4" y="11" width="252" height="166" fill="white"/>
<rect x="4" y="3" width="252" height="12" fill="#F5F5F5"/>
<circle cx="13" cy="9" r="3" fill="#FF5252"/>
<circle cx="22" cy="9" r="3" fill="#FFFF00"/>
<circle cx="29" cy="9" r="3" fill="#69F0AE"/>
<rect opacity="0.5" x="107" y="56" width="46" height="5" fill="#005CA4"/>
<rect x="73" y="77" width="51" height="5" fill="#E0E0E0"/>
<rect x="186" y="82" width="51" height="5" transform="rotate(-180 186 82)" fill="#47B881"/>
<rect x="73" y="88" width="113" height="5" fill="#E0E0E0"/>
<rect x="73" y="98" width="113" height="5" fill="#E0E0E0"/>
<rect x="106" y="122" width="47" height="9" fill="url(#paint1_linear_0_11441)"/>
<rect x="106" y="122" width="46" height="8" fill="#005CA4"/>
<g opacity="0.5">
<circle cx="256.585" cy="97.3298" r="44.3227" fill="url(#paint2_linear_0_11441)"/>
</g>
<circle cx="256" cy="97" r="41" fill="#F5F5F5"/>
<g opacity="0.5">
<path d="M261.044 86.7042L260.242 86.4201L260.199 86.4912H260.153V84.3255C260.153 84.0639 260.133 83.8028 260.092 83.5444C261.387 82.5954 262.377 81.2932 262.944 79.7953C266.054 75.7803 265.561 70.0638 261.809 66.6355C258.058 63.2071 252.297 63.2071 248.546 66.6355C244.795 70.0638 244.302 75.7803 247.411 79.7953C247.978 81.2932 248.968 82.5954 250.263 83.5444C250.222 83.8028 250.202 84.0639 250.202 84.3255V86.6971C241.38 89.1175 235.271 97.1111 235.278 106.224V123.975H275.922V106.224C275.932 97.1268 269.845 89.1412 261.044 86.7042Z" fill="url(#paint3_linear_0_11441)"/>
</g>
<path d="M256.5 87C261.672 87 266.632 89.0201 270.289 92.6159C273.946 96.2117 276 101.089 276 106.174V123H237V106.174C237 95.5845 245.73 87 256.5 87V87Z" fill="#005CA4"/>
<rect x="252" y="81" width="9" height="12" rx="4.5" fill="#FDA57D"/>
<path opacity="0.05" d="M247 89.1852L250.51 96L254 92.8395L250.51 88L247 89.1852Z" fill="black"/>
<path d="M247 88.1972L250.5 95L254 91.831L250.5 87L248.898 87.4437C248.741 87.4868 248.588 87.5385 248.439 87.5986L247 88.1972Z" fill="white"/>
<path opacity="0.05" d="M264 88.211L260.483 96L257 92.5553L260.58 87L264 88.211Z" fill="black"/>
<path d="M264 88.2205L260.5 96L257 92.5458L260.582 87L261.239 87.1842C261.947 87.385 262.642 87.6299 263.319 87.9173L264 88.2205Z" fill="white"/>
<path d="M254 92L255.946 95L258 92H254Z" fill="#FDA57D"/>
<path opacity="0.1" d="M244 101C244 101 242.25 119.777 243.38 121L244 101Z" fill="black"/>
<path opacity="0.1" d="M267 101C267 101 268.75 119.777 267.62 121L267 101Z" fill="black"/>
<path opacity="0.05" d="M256.503 85.9999C258.12 86.005 259.696 85.4242 261 84.3427C260.646 81.841 258.738 80.0003 256.497 80C254.258 80.0041 252.353 81.8439 252 84.3427C253.306 85.4258 254.884 86.0067 256.503 85.9999Z" fill="black"/>
<circle cx="256.5" cy="74.5" r="9.5" fill="black"/>
<circle cx="256" cy="78" r="8" fill="#FDA57D"/>
<path opacity="0.05" d="M250 70.309L252.022 72.8455C252.022 72.8455 260.887 73.6531 261.898 71.5754C262.909 69.4977 256.062 68 256.062 68L250 70.309Z" fill="black"/>
<path d="M250 70.309L252.022 72.8455C252.022 72.8455 260.887 73.6531 261.898 71.5754C262.909 69.4977 256.062 68 256.062 68L250 70.309Z" fill="black"/>
<ellipse cx="248.5" cy="78" rx="0.5" ry="1" fill="#FDA57D"/>
<ellipse cx="264.5" cy="78" rx="0.5" ry="1" fill="#FDA57D"/>
<g opacity="0.5">
<path d="M307.91 73.747H297.17V63.0103H290.996V73.747H280.256V79.9243H290.996V90.6611H297.17V79.9243H307.91V73.747Z" fill="url(#paint4_linear_0_11441)"/>
</g>
<rect x="291" y="64" width="6" height="24" fill="#47B881"/>
<path d="M306 73V79H282V73H306Z" fill="#47B881"/>
<defs>
<linearGradient id="paint0_linear_0_11441" x1="258.931" y1="179.845" x2="258.931" y2="0" gradientUnits="userSpaceOnUse">
<stop stop-color="#808080" stop-opacity="0.25"/>
<stop offset="0.54" stop-color="#808080" stop-opacity="0.12"/>
<stop offset="1" stop-color="#808080" stop-opacity="0.1"/>
</linearGradient>
<linearGradient id="paint1_linear_0_11441" x1="152.998" y1="131" x2="152.998" y2="122" gradientUnits="userSpaceOnUse">
<stop stop-color="#808080" stop-opacity="0.25"/>
<stop offset="0.54" stop-color="#808080" stop-opacity="0.12"/>
<stop offset="1" stop-color="#808080" stop-opacity="0.1"/>
</linearGradient>
<linearGradient id="paint2_linear_0_11441" x1="300.908" y1="141.652" x2="300.908" y2="53.0071" gradientUnits="userSpaceOnUse">
<stop stop-color="#808080" stop-opacity="0.25"/>
<stop offset="0.54" stop-color="#808080" stop-opacity="0.12"/>
<stop offset="1" stop-color="#808080" stop-opacity="0.1"/>
</linearGradient>
<linearGradient id="paint3_linear_0_11441" x1="235.264" y1="123.966" x2="275.908" y2="123.966" gradientUnits="userSpaceOnUse">
<stop stop-color="#808080" stop-opacity="0.25"/>
<stop offset="0.54" stop-color="#808080" stop-opacity="0.12"/>
<stop offset="1" stop-color="#808080" stop-opacity="0.1"/>
</linearGradient>
<linearGradient id="paint4_linear_0_11441" x1="307.912" y1="90.6611" x2="307.912" y2="63.0068" gradientUnits="userSpaceOnUse">
<stop stop-color="#808080" stop-opacity="0.25"/>
<stop offset="0.54" stop-color="#808080" stop-opacity="0.12"/>
<stop offset="1" stop-color="#808080" stop-opacity="0.1"/>
</linearGradient>
</defs>
</svg>
