<svg width="210" height="175" viewBox="0 0 210 175" fill="none" xmlns="http://www.w3.org/2000/svg">
<circle cx="126.759" cy="83.2413" r="83.2413" fill="#F2F2F2"/>
<path d="M203.528 163.358C203.528 166.809 157.967 174.07 101.764 174.07C45.5613 174.07 0 166.809 0 163.358C0 159.907 45.5613 161.573 101.764 161.573C157.967 161.573 203.528 159.907 203.528 163.358Z" fill="#3F3D56"/>
<path opacity="0.1" d="M203.528 163.358C203.528 166.809 157.967 174.07 101.764 174.07C45.5613 174.07 0 166.809 0 163.358C0 159.907 45.5613 161.573 101.764 161.573C157.967 161.573 203.528 159.907 203.528 163.358Z" fill="#282D40"/>
<ellipse cx="101.764" cy="163.358" rx="101.764" ry="6.24867" fill="#2F2E41"/>
<path d="M161.169 133.769C161.169 147.874 170.017 159.288 180.953 159.288L161.169 133.769Z" fill="#282D40"/>
<path d="M180.953 159.288C180.953 145.024 190.827 133.482 203.031 133.482L180.953 159.288Z" fill="#005CA4"/>
<path d="M168.337 135.048C168.337 148.446 173.979 159.288 180.953 159.288L168.337 135.048Z" fill="#005CA4"/>
<path d="M180.953 159.288C180.953 141.062 192.366 126.314 206.471 126.314L180.953 159.288Z" fill="#282D40"/>
<path d="M176.791 159.468C176.791 159.468 179.596 159.381 180.442 158.779C181.288 158.177 184.758 157.458 184.968 158.424C185.177 159.389 189.184 163.227 186.016 163.252C182.849 163.278 178.656 162.759 177.812 162.245C176.968 161.731 176.791 159.468 176.791 159.468Z" fill="#A8A8A8"/>
<path opacity="0.2" d="M186.073 162.916C182.905 162.941 178.713 162.422 177.869 161.908C177.226 161.517 176.97 160.112 176.884 159.464C176.825 159.466 176.791 159.468 176.791 159.468C176.791 159.468 176.968 161.73 177.812 162.244C178.656 162.759 182.849 163.277 186.016 163.252C186.931 163.245 187.247 162.919 187.229 162.437C187.102 162.729 186.754 162.91 186.073 162.916Z" fill="black"/>
<path d="M127.793 52.5148C127.793 52.5148 130.648 58.5099 129.506 61.3647C128.364 64.2196 133.788 67.3599 133.788 67.3599L140.925 63.3631V58.2244L139.783 55.9406C139.783 55.9406 135.216 53.3712 135.787 49.3745C136.358 45.3778 127.793 52.5148 127.793 52.5148Z" fill="#FFB9B9"/>
<path opacity="0.1" d="M127.793 52.5148C127.793 52.5148 130.648 58.5099 129.506 61.3647C128.364 64.2196 133.788 67.3599 133.788 67.3599L140.925 63.3631V58.2244L139.783 55.9406C139.783 55.9406 135.216 53.3712 135.787 49.3745C136.358 45.3778 127.793 52.5148 127.793 52.5148Z" fill="black"/>
<path d="M122.369 77.6372C122.369 77.6372 121.798 83.9178 121.798 84.7743C121.798 85.6307 120.942 88.4855 120.942 88.4855C120.942 88.4855 117.801 103.045 115.803 104.473C113.805 105.9 112.663 114.75 115.803 114.179C118.943 113.608 119.8 105.9 119.8 105.9L126.3 93.6265L127.222 78.7791L122.369 77.6372Z" fill="#FFB9B9"/>
<path d="M124.653 65.0757H122.369C122.369 65.0757 120.085 78.7788 122.369 79.3498C124.653 79.9208 128.935 79.9208 128.935 79.9208L124.653 65.0757Z" fill="#005CA4"/>
<path d="M137.5 153.29L138.641 158.714L140.925 157.001L139.783 152.148L137.5 153.004V153.29Z" fill="#FFB9B9"/>
<path d="M127.222 95.3369L125.509 96.4788C125.509 96.4788 124.653 106.471 126.651 114.179C128.65 121.887 130.077 131.022 130.077 131.022C130.077 131.022 133.503 153.861 134.359 154.432C135.216 155.003 140.64 155.288 140.925 154.146C141.211 153.004 138.927 131.593 138.927 131.593C138.927 131.593 137.214 113.608 138.642 111.324C138.642 111.324 143.209 131.022 144.637 133.021C144.637 133.021 146.635 154.717 147.777 155.288C148.919 155.859 154.343 156.145 154.629 155.003C154.914 153.861 152.916 129.309 152.059 127.311C151.203 125.313 150.917 95.6224 148.919 95.9079C146.92 96.1934 127.222 95.3369 127.222 95.3369Z" fill="#2F2E41"/>
<circle cx="130.648" cy="48.5177" r="6.56609" fill="#FFB9B9"/>
<path d="M133.217 63.0775L131.79 60.5081C131.79 60.5081 130.077 58.2243 129.221 58.7952C128.364 59.3662 128.364 61.3646 128.364 61.3646C128.364 61.3646 121.798 63.6484 122.369 66.7887C122.94 69.929 126.651 75.3532 126.651 75.3532C126.651 75.3532 127.222 79.9209 126.651 81.0629C126.08 82.2048 124.938 83.0612 125.795 84.2032C126.651 85.3451 126.937 85.6306 126.651 87.058C126.366 88.4854 125.795 89.0564 126.366 89.6273C126.937 90.1983 126.08 96.1934 125.509 96.4789C124.938 96.7644 143.78 99.6192 145.208 98.7628C146.635 97.9063 150.632 97.9063 150.346 97.0499C150.061 96.1934 148.919 91.0547 148.919 90.1983C148.919 89.3418 148.919 85.6306 148.633 85.3451C148.348 85.0596 148.919 80.7774 148.919 80.7774L147.491 68.7871L152.059 61.6501C152.059 61.6501 150.917 57.6533 145.493 57.0824C140.069 56.5114 138.568 55.084 138.568 55.084C138.568 55.084 138.071 57.6533 136.929 58.2243C135.787 58.7953 133.217 63.0775 133.217 63.0775Z" fill="#005CA4"/>
<path d="M154.058 70.7856L155.77 83.6323L152.059 102.189C152.059 102.189 150.632 112.752 147.777 112.466C144.922 112.181 147.777 101.047 147.777 101.047L150.061 83.6323C150.061 83.6323 146.35 74.7824 147.206 73.6405C148.062 72.4985 154.058 70.7856 154.058 70.7856Z" fill="#FFB9B9"/>
<path d="M140.069 156.145C140.069 156.145 136.358 154.146 135.501 154.432C134.645 154.717 133.788 158.714 133.788 158.714C133.788 158.714 127.222 163.567 131.504 164.709C135.787 165.851 137.5 163.282 137.5 163.282C137.5 163.282 141.782 160.998 141.782 160.427C141.782 159.856 141.211 156.145 141.211 156.145L140.069 156.145Z" fill="#2F2E41"/>
<path d="M148.633 154.717C148.633 154.717 146.921 164.138 148.062 164.709C149.204 165.28 154.058 166.137 154.629 164.709C155.2 163.282 155.2 159.856 154.914 158.714C154.629 157.572 153.772 154.717 153.772 154.717L148.633 154.717Z" fill="#2F2E41"/>
<path d="M129.503 38.1322C129.247 38.0555 128.976 38.0472 128.716 38.1083C128.389 38.2153 128.173 38.5181 127.923 38.7554C127.269 39.377 126.333 39.5715 125.48 39.866C124.626 40.1605 123.729 40.6815 123.515 41.5587C123.463 41.9117 123.432 42.2674 123.422 42.624C123.295 43.6587 122.505 44.5905 122.647 45.6235C122.739 46.2983 123.22 46.8708 123.319 47.5447C123.429 48.2961 123.049 49.0781 123.261 49.8074C123.468 50.5221 124.17 50.9576 124.817 51.3257C125.094 49.5651 125.428 47.8145 125.817 46.0739C125.861 45.7594 125.983 45.461 126.172 45.2061C126.746 44.5558 127.872 44.9261 128.617 44.4819C128.9 44.3132 129.11 44.0346 129.408 43.8926C130.268 43.4812 131.199 44.3926 132.153 44.4011C132.574 44.4048 133.035 44.2377 133.391 44.4629C133.548 44.5778 133.673 44.7311 133.753 44.9082C134.093 45.5462 134.28 46.263 134.676 46.8674C135.073 47.4719 135.782 47.965 136.485 47.7957C136.378 47.2507 136.805 46.7603 136.975 46.2318C137.269 45.3225 136.789 44.3354 136.905 43.3868C137.013 42.4961 137.594 41.4505 136.957 40.8182C136.739 40.6345 136.481 40.5049 136.204 40.4401C133.951 39.725 131.87 38.5266 129.503 38.1322Z" fill="#2F2E41"/>
<path d="M149.204 60.5083L152.059 61.6502C152.059 61.6502 155.771 73.6405 154.914 73.6405C154.058 73.6405 146.35 75.6389 146.35 74.7824C146.35 73.926 146.921 60.5083 149.204 60.5083Z" fill="#005CA4"/>
<path d="M15.6216 36.1528V65.1645H18.9691H26.5568H103.996V36.1528H15.6216Z" fill="#2F2E41"/>
<path d="M15.6216 114.261V143.273H18.9691H26.5568H103.996V114.261H15.6216Z" fill="#2F2E41"/>
<path d="M119.617 75.4302V104.442H116.27H108.682H31.2434V75.4302H119.617Z" fill="#2F2E41"/>
<rect opacity="0.3" x="25.8875" y="40.9512" width="67.8427" height="2.678" fill="#F2F2F2"/>
<rect opacity="0.3" x="25.8875" y="46.084" width="33.9214" height="2.678" fill="#F2F2F2"/>
<circle opacity="0.3" cx="29.6813" cy="56.5726" r="3.79384" fill="#F2F2F2"/>
<rect x="39.2773" y="79.7822" width="67.8427" height="2.678" fill="#F2F2F2"/>
<rect x="39.2773" y="84.915" width="33.9214" height="2.678" fill="#F2F2F2"/>
<circle cx="43.0712" cy="95.4037" r="3.79384" fill="#F2F2F2"/>
<rect opacity="0.3" x="25.8875" y="119.06" width="67.8427" height="2.678" fill="#F2F2F2"/>
<rect opacity="0.3" x="25.8875" y="124.192" width="33.9214" height="2.678" fill="#F2F2F2"/>
<circle opacity="0.3" cx="29.6813" cy="134.681" r="3.79384" fill="#F2F2F2"/>
</svg>
