<svg width="156" height="186" viewBox="0 0 156 186" fill="none" xmlns="http://www.w3.org/2000/svg">
<g clip-path="url(#clip0_1771_1384)">
<path d="M60.43 152.66C57.3366 149.457 52.8321 147.61 48.0835 147.61H47.8935C44.773 147.61 41.7067 146.796 39.0204 145.221L38.749 145.058L38.9661 144.814C40.1872 143.538 41.2183 142.099 42.0052 140.524C40.8655 141.583 39.346 142.072 37.8264 141.882C36.1983 141.692 34.7601 140.769 33.9189 139.384C32.2637 136.696 30.2828 132.868 30.2828 129.963C30.2828 124.995 32.3722 120.271 36.0626 116.905C38.3962 114.814 39.6987 111.828 39.6987 108.705V108.488C39.6987 106.452 39.943 104.416 40.4314 102.434L40.4857 102.244H40.7027C42.0324 102.298 43.362 102.19 44.6373 101.918C43.4162 101.755 42.2223 101.457 41.1098 100.968L40.8927 100.887L40.9741 100.669C46.1298 97.4657 57.7979 99.1218 64.5817 83.6195C70.063 71.0494 89.4375 94.7779 89.4375 108.488C89.4375 109.9 88.0536 111.746 89.0847 112.669C100.292 122.66 92.558 129.095 90.1158 135.529C89.546 137.049 90.7942 138.733 90.7942 140.389C90.7942 140.66 90.7942 140.959 90.7671 141.258L90.7399 141.692L90.3601 141.448C89.6274 140.959 88.949 140.389 88.3249 139.764C89.6274 142.751 89.4917 146.172 87.9722 149.077C86.8054 151.303 85.6657 152.877 84.6074 153.801C77.4709 159.882 66.8882 159.393 60.43 152.66Z" fill="#E6E6E6"/>
<path d="M79.1803 186C79.3432 186 79.4788 185.892 79.506 185.729C79.506 185.647 80.8356 176.118 79.6416 163.439C78.5562 151.738 75.0287 134.905 64.5002 121.086C64.3917 120.95 64.2017 120.923 64.0661 121.032C63.9304 121.14 63.9033 121.33 64.0118 121.466C74.4588 135.177 77.9321 151.901 79.0175 163.493C80.1843 176.091 78.8819 185.539 78.8819 185.62C78.8547 185.783 78.9904 185.946 79.1532 185.973C79.1261 186 79.1532 186 79.1803 186Z" fill="#3F3D56"/>
<path d="M70.5785 140.607C70.7413 140.607 70.9041 140.471 70.9041 140.281C70.9041 140.172 70.8498 140.091 70.7684 140.036C67.7564 138 64.5274 136.344 61.1083 135.122C55.7898 133.168 47.6764 131.403 39.3459 134.064C39.1831 134.118 39.0746 134.281 39.1289 134.471C39.1831 134.634 39.3459 134.742 39.5359 134.688C47.7036 132.082 55.6542 133.819 60.8913 135.747C64.256 136.969 67.4308 138.57 70.3886 140.579C70.4428 140.579 70.4971 140.607 70.5785 140.607Z" fill="#3F3D56"/>
<path d="M85.096 104.443C85.096 104.28 84.9874 104.117 84.7975 104.09C84.6889 104.09 84.6075 104.117 84.5261 104.198C82.2739 107.049 80.4016 110.171 78.9363 113.484C76.6026 118.669 74.269 126.597 76.3042 135.122C76.3313 135.284 76.5212 135.393 76.684 135.366C76.8469 135.339 76.9554 135.149 76.9283 134.986C74.9203 126.651 77.2268 118.832 79.5061 113.755C80.9443 110.497 82.7895 107.429 85.0145 104.633C85.0688 104.551 85.096 104.497 85.096 104.443Z" fill="#3F3D56"/>
<path d="M146.258 185.675H121.023L120.914 185.484C120.589 184.887 120.29 184.29 119.992 183.638C117.387 178.073 116.301 171.693 115.324 166.073L114.592 161.837C114.348 160.426 115.297 159.068 116.735 158.824C117.441 158.715 118.146 158.878 118.716 159.285C122.542 162.082 126.396 164.878 130.222 167.647C131.687 168.706 133.342 169.928 134.916 171.258C135.079 170.525 135.242 169.765 135.377 169.032C135.676 167.62 137.087 166.724 138.498 167.023C139.176 167.186 139.8 167.593 140.153 168.19L143.111 172.941C145.254 176.417 147.154 179.837 146.774 183.503C146.774 183.557 146.774 183.584 146.774 183.638C146.693 184.236 146.557 184.833 146.34 185.403L146.258 185.675Z" fill="#F0F0F0"/>
<path d="M134.509 86.3617L129.625 68.3074C129.19 66.7056 127.562 65.7825 125.961 66.1897C124.36 66.597 123.384 68.2531 123.791 69.8549C123.791 69.9092 123.818 69.9635 123.845 70.0178L129.489 88.6151L132.447 100.045C131.28 100.941 131.063 102.57 131.958 103.737C132.854 104.905 134.482 105.122 135.649 104.226C136.815 103.33 137.033 101.701 136.137 100.534C136.056 100.398 135.947 100.289 135.811 100.181L134.509 86.3617Z" fill="#A0616A"/>
<path d="M93.5078 82.4793L108.324 71.0765C109.626 70.072 109.87 68.1987 108.893 66.8684C107.889 65.5381 106.017 65.2666 104.66 66.2711C104.606 66.2983 104.579 66.3254 104.525 66.3797L89.5189 78.7055L80.0759 85.7915C78.8277 85.0585 77.1996 85.4928 76.4669 86.7417C75.7343 87.9906 76.1684 89.6195 77.4166 90.3526C78.6649 91.0856 80.293 90.6512 81.0256 89.4023C81.107 89.2666 81.1613 89.1309 81.2156 88.968L93.5078 82.4793Z" fill="#A0616A"/>
<path d="M105.556 85.086L104.905 99.6652L125.392 95.2127C123.655 89.3484 122.461 88.3439 123.763 84.2715L105.556 85.086Z" fill="#A0616A"/>
<path d="M118.174 58.3438H111.336L108.405 63.3664L107.021 63.2849C104.253 63.122 101.865 65.2668 101.73 68.0361C101.73 68.1175 101.73 68.2261 101.73 68.3076L103.439 70.9682C103.439 70.9682 100.373 76.3438 104.796 78.9772C104.796 78.9772 105.203 84.6243 105.203 86.0904C105.176 88.5067 105.284 91.9546 105.094 95.7555C113.316 100.832 125.12 93.8008 125.12 93.8008C125.12 93.8008 124.116 84.9772 124.17 84.3257C124.225 83.6741 123.818 85.2759 124.225 83.6741C124.632 82.0723 125.229 82.6695 124.632 82.0451C124.035 81.4207 128.566 73.9003 126.694 70.9953L129.679 68.0632C129.679 65.2668 125.174 62.9863 122.38 62.9863H122.027L118.174 58.3438Z" fill="#E6E6E6"/>
<path d="M101.73 180.054H98.962L97.6323 169.385H101.73V180.054Z" fill="#A0616A"/>
<path d="M93.3722 184.127C93.3722 184.779 93.8877 185.295 94.539 185.295H99.7489L99.9117 184.969L100.644 183.448L100.943 184.969L100.997 185.295H102.951L102.924 184.969L102.408 178.697L101.73 178.643L98.7721 178.48L98.0394 178.426V180.299C97.4696 180.896 93.1551 183.095 93.3722 184.127Z" fill="#2F2E41"/>
<path d="M142.785 172.805L140.452 174.298L133.586 166.045L137.033 163.846L142.785 172.805Z" fill="#A0616A"/>
<path d="M137.982 180.76C138.335 181.303 139.04 181.466 139.61 181.113L143.979 178.289L143.925 177.909L143.735 176.226L144.793 177.339L145.037 177.584L146.693 176.525L146.475 176.253L142.649 171.258L142.052 171.584L139.475 173.05L138.851 173.403L139.855 174.977C139.692 175.792 137.25 180 137.982 180.76Z" fill="#2F2E41"/>
<path d="M155.674 185.864L70.09 185.946C69.9001 185.946 69.7644 185.81 69.7644 185.62C69.7644 185.43 69.9001 185.294 70.09 185.294L155.674 185.213C155.864 185.213 156 185.349 156 185.539C156 185.729 155.864 185.864 155.674 185.864Z" fill="#CACACA"/>
<path d="M125.093 93.5566C125.093 93.5566 111.987 100.48 105.067 95.7557C105.067 95.7557 103.548 103.086 102.951 103.71C102.354 104.335 101.377 104.579 102.055 105.258C102.734 105.937 103.114 106.86 101.811 108.027C100.509 109.195 99.2061 108.815 100.454 110.009C101.702 111.204 96.6554 140.579 96.6554 140.579C96.6554 140.579 97.4694 167.892 96.6554 168.706C95.8413 169.52 94.7559 169.711 95.8142 170.742C96.8724 171.774 96.8724 170.959 96.8724 172.371V173.783L97.3609 175.195H103.928C103.928 175.195 105.501 173.349 103.928 171.747C102.354 170.145 104.416 169.71 104.904 168.217C105.393 166.724 106.207 168.326 105.393 166.724C104.579 165.122 104.199 165.421 104.199 164.335C104.199 163.249 116.138 121.548 116.138 121.548L117.577 144.652L134.97 169.955L140.099 166.1C140.099 166.1 136.381 160.86 137.25 160.127C138.118 159.394 134.672 158.498 135.757 157.683C136.843 156.869 134.238 156.054 135.214 154.968C136.191 153.882 133.858 151.168 132.501 151.168C131.144 151.168 129.245 146.634 129.245 146.634L132.094 110.796L125.093 93.5566Z" fill="#2F2E41"/>
<path d="M111.2 43.6017C111.119 43.7103 110.359 43.656 109.49 43.5202C107.727 43.2759 107.482 43.5745 106.18 44.7691C104.28 46.5067 105.366 57.0677 104.416 59.3483L104.118 59.5655C104.715 59.4569 105.312 59.294 105.881 59.0768C106.207 58.0451 106.533 57.0406 106.858 56.0089C107.157 56.7963 107.347 57.6379 107.428 58.4795C107.889 58.2895 108.324 57.8551 110.223 57.2849C111.173 56.6334 118.065 55.9818 118.933 55.7103C121.186 48.0813 117.55 44.9863 111.2 43.6017Z" fill="#2F2E41"/>
<path d="M113.534 55.3844C117.16 55.3844 120.1 52.4429 120.1 48.8143C120.1 45.1857 117.16 42.2441 113.534 42.2441C109.907 42.2441 106.967 45.1857 106.967 48.8143C106.967 52.4429 109.907 55.3844 113.534 55.3844Z" fill="#A0616A"/>
<path d="M117.658 43.0313C117.278 42.977 116.925 42.8412 116.6 42.6512C116.274 42.4612 116.084 42.0811 116.111 41.701C116.193 41.2394 116.708 40.9679 117.197 40.9951C117.658 41.0765 118.119 41.2394 118.499 41.5109C118.418 40.5879 117.712 39.8277 116.79 39.6919C117.414 39.6648 118.065 39.6376 118.635 39.8548C119.205 40.072 119.693 40.6965 119.585 41.2937C120.561 41.158 121.511 41.8367 121.918 42.7326C122.325 43.6286 122.244 44.6602 121.918 45.5833C121.864 45.882 121.674 46.1263 121.403 46.2621C121.077 46.3978 120.724 46.1806 120.453 45.9634C118.988 44.9046 117.631 43.6557 116.464 42.2711" fill="#2F2E41"/>
<path d="M120.534 55.8186C120.263 55.9544 120.399 56.4431 120.182 56.6603C120.1 56.7417 119.965 56.8232 119.856 56.8775C119.829 56.4702 119.72 56.063 119.585 55.6829C119.558 55.6014 119.503 55.5472 119.449 55.5472C119.368 55.5472 119.341 55.6557 119.341 55.7643C119.313 56.1716 119.232 56.5788 119.069 56.9589C119.069 56.9589 119.069 56.9589 119.069 56.9861C119.015 56.9861 118.933 56.9861 118.879 56.9861C118.418 56.9589 117.36 55.7643 117.143 56.1716C117.957 54.7327 118.961 52.5607 119.096 50.9046C119.151 50.5517 119.123 50.1987 119.015 49.8729C118.906 49.52 118.608 49.2757 118.255 49.2485C117.929 49.2214 117.658 49.4928 117.658 49.7915C117.658 49.8186 117.658 49.8729 117.658 49.9001L117.55 49.8729C116.464 48.977 117.387 47.4567 116.139 46.8322C115.704 46.615 113.072 47.3209 112.611 47.1852C112.611 46.6965 112.502 46.2078 112.312 45.7734C112.285 45.6919 112.231 45.6376 112.177 45.6376C112.095 45.6376 112.068 45.7462 112.068 45.8548C112.041 46.2621 111.96 46.6693 111.797 47.0494C111.146 46.968 110.494 46.9951 109.87 47.158C109.328 47.2938 108.785 47.5652 108.242 47.701C107.7 47.8639 107.075 47.8096 106.587 47.511C105.881 47.0494 105.746 45.9906 106.099 45.2033C106.343 44.7146 106.696 44.253 107.103 43.9001C107.428 43.6014 107.754 43.3028 108.079 43.0042C108.378 42.7327 108.676 42.4612 108.975 42.2168C109.355 41.8639 109.735 41.5381 110.169 41.2395C111.526 40.3435 113.181 40.072 114.728 40.4521C115.65 40.6693 116.898 40.3707 117.767 40.8051C118.201 41.0223 119.205 41.9182 119.585 42.2168C120.589 43.0042 119.91 42.3526 120.996 42.8141C123.574 43.8458 122.407 54.9227 120.534 55.8186Z" fill="#2F2E41"/>
<path d="M47.7308 103.845C70.2552 103.845 88.5149 85.576 88.5149 63.0398C88.5149 40.5036 70.2552 22.2344 47.7308 22.2344C25.2063 22.2344 6.94666 40.5036 6.94666 63.0398C6.94666 85.576 25.2063 103.845 47.7308 103.845Z" fill="white"/>
<path d="M47.7307 104.226C25.0186 104.226 6.53955 85.7376 6.53955 63.0136C6.53955 40.2897 25.0186 21.8281 47.7307 21.8281C70.4428 21.8281 88.9219 40.3168 88.9219 63.0408C88.9219 85.7647 70.4428 104.226 47.7307 104.226ZM47.7307 22.6426C25.4799 22.6426 7.35361 40.7512 7.35361 63.0408C7.35361 85.3304 25.4527 103.439 47.7307 103.439C70.0087 103.439 88.1078 85.3304 88.1078 63.0408C88.1078 40.7512 69.9815 22.6426 47.7307 22.6426Z" fill="#57B894"/>
<path d="M42.168 84.2706C40.7299 84.2706 39.4002 83.5919 38.5319 82.4516L27.4065 67.6009C25.9141 65.5919 26.3211 62.7412 28.302 61.248C30.2828 59.7548 33.1592 60.162 34.6516 62.1439L41.9238 71.8634L60.6199 43.8181C62.0038 41.7276 64.8259 41.1846 66.9153 42.5692C69.0047 43.9539 69.5474 46.7774 68.1635 48.8679L45.9127 82.2615C45.0986 83.4833 43.7419 84.2434 42.2766 84.2706C42.2494 84.2706 42.2223 84.2706 42.168 84.2706Z" fill="#57B894"/>
<path d="M89.7543 24.7953C89.8687 24.0089 89.0477 23.2383 87.9206 23.0742C86.7935 22.9101 85.787 23.4146 85.6727 24.201C85.5583 24.9875 86.3793 25.758 87.5064 25.9221C88.6335 26.0862 89.6399 25.5817 89.7543 24.7953Z" fill="#E6E6E6"/>
<path d="M103.098 23.4848C103.212 22.6983 102.391 21.9278 101.264 21.7637C100.137 21.5996 99.1306 22.1041 99.0162 22.8905C98.9018 23.6769 99.7228 24.4475 100.85 24.6116C101.977 24.7757 102.983 24.2712 103.098 23.4848Z" fill="#3F3D56"/>
<path d="M86.1049 13.9711C86.2193 13.1847 85.3983 12.4141 84.2712 12.25C83.1441 12.0859 82.1376 12.5904 82.0233 13.3768C81.9089 14.1633 82.7299 14.9338 83.857 15.0979C84.9841 15.262 85.9905 14.7575 86.1049 13.9711Z" fill="#FF6584"/>
<path d="M80.2717 9.5385C80.2772 8.81878 79.8807 8.23231 79.3861 8.22856C78.8916 8.22482 78.4862 8.80523 78.4808 9.52495C78.4754 10.2447 78.8719 10.8312 79.3664 10.8349C79.861 10.8386 80.2663 10.2582 80.2717 9.5385Z" fill="#E6E6E6"/>
<path d="M78.3247 1.30804C78.3301 0.588322 77.9336 0.00183604 77.4391 -0.00190548C76.9445 -0.005647 76.5392 0.574773 76.5338 1.29449C76.5283 2.01421 76.9248 2.60069 77.4194 2.60443C77.9139 2.60817 78.3193 2.02776 78.3247 1.30804Z" fill="#3F3D56"/>
<path d="M93.6006 15.8041C93.606 15.0844 93.2095 14.4979 92.715 14.4942C92.2204 14.4904 91.8151 15.0709 91.8097 15.7906C91.8042 16.5103 92.2007 17.0968 92.6953 17.1005C93.1898 17.1043 93.5951 16.5238 93.6006 15.8041Z" fill="#E6E6E6"/>
<path d="M87.1626 19.0346C87.168 18.3149 86.7715 17.7284 86.277 17.7247C85.7824 17.7209 85.3771 18.3013 85.3717 19.0211C85.3662 19.7408 85.7627 20.3273 86.2573 20.331C86.7518 20.3347 87.1571 19.7543 87.1626 19.0346Z" fill="#FF6584"/>
<path d="M96.1308 24.9819C96.1363 24.2621 95.7398 23.6757 95.2452 23.6719C94.7507 23.6682 94.3454 24.2486 94.3399 24.9683C94.3345 25.688 94.731 26.2745 95.2255 26.2783C95.7201 26.282 96.1254 25.7016 96.1308 24.9819Z" fill="#3F3D56"/>
<path d="M13.2336 121.452C13.3479 120.665 12.527 119.895 11.3998 119.73C10.2727 119.566 9.2663 120.071 9.15192 120.857C9.03754 121.644 9.85853 122.414 10.9856 122.578C12.1128 122.742 13.1192 122.238 13.2336 121.452Z" fill="#E6E6E6"/>
<path d="M26.5771 120.141C26.6914 119.355 25.8705 118.584 24.7433 118.42C23.6162 118.256 22.6098 118.76 22.4954 119.547C22.381 120.333 23.202 121.104 24.3292 121.268C25.4563 121.432 26.4627 120.927 26.5771 120.141Z" fill="#3F3D56"/>
<path d="M9.58428 110.625C9.69866 109.839 8.87767 109.068 7.75055 108.904C6.62343 108.74 5.617 109.245 5.50263 110.031C5.38825 110.818 6.20924 111.588 7.33636 111.752C8.46348 111.916 9.46991 111.412 9.58428 110.625Z" fill="#FF6584"/>
<path d="M3.75341 106.191C3.75885 105.471 3.36235 104.885 2.8678 104.881C2.37325 104.877 1.96792 105.458 1.96249 106.177C1.95705 106.897 2.35355 107.484 2.8481 107.487C3.34265 107.491 3.74797 106.911 3.75341 106.191Z" fill="#E6E6E6"/>
<path d="M1.80639 97.9604C1.81183 97.2407 1.41532 96.6542 0.92077 96.6505C0.426221 96.6467 0.0209035 97.2271 0.0154641 97.9468C0.0100247 98.6666 0.406523 99.253 0.901072 99.2568C1.39562 99.2605 1.80095 98.6801 1.80639 97.9604Z" fill="#3F3D56"/>
<path d="M17.0821 112.456C17.0876 111.737 16.6911 111.15 16.1965 111.147C15.702 111.143 15.2967 111.723 15.2912 112.443C15.2858 113.163 15.6823 113.749 16.1768 113.753C16.6714 113.757 17.0767 113.176 17.0821 112.456Z" fill="#E6E6E6"/>
<path d="M10.6442 115.689C10.6496 114.969 10.2531 114.383 9.75855 114.379C9.264 114.375 8.85867 114.956 8.85323 115.675C8.84779 116.395 9.2443 116.982 9.73885 116.985C10.2334 116.989 10.6387 116.409 10.6442 115.689Z" fill="#FF6584"/>
<path d="M19.6124 121.636C19.6178 120.916 19.2213 120.33 18.7268 120.326C18.2323 120.322 17.8269 120.903 17.8215 121.623C17.8161 122.342 18.2126 122.929 18.7071 122.933C19.2017 122.936 19.607 122.356 19.6124 121.636Z" fill="#3F3D56"/>
</g>
<defs>
<clipPath id="clip0_1771_1384">
<rect width="156" height="186" fill="white"/>
</clipPath>
</defs>
</svg>
