<svg width="22" height="22" viewBox="0 0 22 22" fill="none"   xmlns="http://www.w3.org/2000/svg">
<path d="M8.85833 18.5H3.08333C1.935 18.5 1 17.5658 1 16.4167V3.08333C1 1.93417 1.935 1 3.08333 1H13.0833C14.2317 1 15.1667 1.93417 15.1667 3.08333V10.85C15.1667 11.08 14.98 11.2667 14.75 11.2667C14.52 11.2667 14.3333 11.08 14.3333 10.85V3.08333C14.3333 2.39417 13.7725 1.83333 13.0833 1.83333H3.08333C2.39417 1.83333 1.83333 2.39417 1.83333 3.08333V16.4167C1.83333 17.1058 2.39417 17.6667 3.08333 17.6667H8.85833C9.08833 17.6667 9.275 17.8533 9.275 18.0833C9.275 18.3133 9.08917 18.5 8.85833 18.5Z" fill="#90979D" stroke="#90979D" stroke-width="0.5"/>
<path d="M12.25 8.49996H3.91667C3.68667 8.49996 3.5 8.31329 3.5 8.08329C3.5 7.85329 3.68667 7.66663 3.91667 7.66663H12.25C12.48 7.66663 12.6667 7.85329 12.6667 8.08329C12.6667 8.31329 12.48 8.49996 12.25 8.49996Z" fill="#90979D" stroke="#90979D" stroke-width="0.5"/>
<path d="M8.91667 11.8333H3.91667C3.68667 11.8333 3.5 11.6467 3.5 11.4167C3.5 11.1867 3.68667 11 3.91667 11H8.91667C9.14667 11 9.33333 11.1867 9.33333 11.4167C9.33333 11.6467 9.14667 11.8333 8.91667 11.8333Z" fill="#90979D" stroke="#90979D" stroke-width="0.5"/>
<path d="M8.08333 5.16671H3.91667C3.68667 5.16671 3.5 4.98004 3.5 4.75004C3.5 4.52004 3.68667 4.33337 3.91667 4.33337H8.08333C8.31333 4.33337 8.5 4.52004 8.5 4.75004C8.5 4.98004 8.31333 5.16671 8.08333 5.16671Z" fill="#90979D" stroke="#90979D" stroke-width="0.5"/>
<path fill-rule="evenodd" clip-rule="evenodd" d="M10.6167 20.8784C10.6959 20.9567 10.8026 21 10.9117 21C10.9384 21 10.9659 20.9975 10.9934 20.9925L13.9392 20.4034C14.0192 20.3867 14.0934 20.3475 14.1517 20.2892L20.6334 13.8075C21.1209 13.32 21.1209 12.5275 20.6334 12.04L19.4551 10.8617C18.9834 10.39 18.1584 10.39 17.6876 10.8617L11.2059 17.3434C11.1476 17.4009 11.1084 17.475 11.0917 17.5567L10.5026 20.5025C10.4759 20.6384 10.5184 20.78 10.6167 20.8784ZM11.4426 20.0517L11.8842 17.8425L18.2767 11.45C18.4334 11.2925 18.7076 11.2925 18.8659 11.45L20.0442 12.6284C20.2067 12.7909 20.2067 13.055 20.0442 13.2175L13.6517 19.61L11.4426 20.0517Z" fill="#90979D"/>
<path d="M10.6167 20.8784L10.4399 21.0551L10.4409 21.0561L10.6167 20.8784ZM10.9934 20.9925L11.0381 21.2385L11.0424 21.2377L10.9934 20.9925ZM13.9392 20.4034L13.9883 20.6485L13.9902 20.6481L13.9392 20.4034ZM20.6334 13.8075L20.4566 13.6307L20.6334 13.8075ZM20.6334 12.04L20.4566 12.2168V12.2168L20.6334 12.04ZM19.4551 10.8617L19.2783 11.0385V11.0385L19.4551 10.8617ZM17.6876 10.8617L17.8643 11.0385L17.8645 11.0383L17.6876 10.8617ZM11.2059 17.3434L11.3814 17.5214L11.3827 17.5201L11.2059 17.3434ZM11.0917 17.5567L10.8468 17.5067L10.8466 17.5077L11.0917 17.5567ZM10.5026 20.5025L10.2574 20.4535L10.2572 20.4544L10.5026 20.5025ZM11.8842 17.8425L11.7075 17.6657L11.6539 17.7193L11.6391 17.7935L11.8842 17.8425ZM11.4426 20.0517L11.1974 20.0027L11.1239 20.3703L11.4916 20.2968L11.4426 20.0517ZM18.2767 11.45L18.4535 11.6268L18.454 11.6263L18.2767 11.45ZM18.8659 11.45L19.0427 11.2732L19.0422 11.2728L18.8659 11.45ZM20.0442 12.6284L20.221 12.4516V12.4516L20.0442 12.6284ZM20.0442 13.2175L20.221 13.3943V13.3943L20.0442 13.2175ZM13.6517 19.61L13.7007 19.8552L13.775 19.8403L13.8285 19.7868L13.6517 19.61ZM10.9117 20.75C10.8683 20.75 10.8249 20.7326 10.7926 20.7006L10.4409 21.0561C10.5669 21.1808 10.7368 21.25 10.9117 21.25V20.75ZM10.9487 20.7466C10.9355 20.749 10.9229 20.75 10.9117 20.75V21.25C10.9539 21.25 10.9963 21.2461 11.0381 21.2385L10.9487 20.7466ZM13.8902 20.1582L10.9444 20.7474L11.0424 21.2377L13.9883 20.6485L13.8902 20.1582ZM13.975 20.1124C13.9521 20.1353 13.922 20.1516 13.8882 20.1586L13.9902 20.6481C14.1164 20.6218 14.2347 20.5597 14.3285 20.466L13.975 20.1124ZM20.4566 13.6307L13.975 20.1124L14.3285 20.466L20.8102 13.9843L20.4566 13.6307ZM20.4566 12.2168C20.8465 12.6067 20.8465 13.2409 20.4566 13.6307L20.8102 13.9843C21.3953 13.3992 21.3953 12.4484 20.8102 11.8632L20.4566 12.2168ZM19.2783 11.0385L20.4566 12.2168L20.8102 11.8632L19.6318 10.6849L19.2783 11.0385ZM17.8645 11.0383C18.2376 10.6646 18.9042 10.6643 19.2783 11.0385L19.6318 10.6849C19.0626 10.1157 18.0792 10.1155 17.5106 10.6851L17.8645 11.0383ZM11.3827 17.5201L17.8643 11.0385L17.5108 10.6849L11.0291 17.1666L11.3827 17.5201ZM11.3367 17.6067C11.3439 17.5712 11.3601 17.5424 11.3814 17.5214L11.0304 17.1653C10.935 17.2593 10.8729 17.3788 10.8468 17.5067L11.3367 17.6067ZM10.7477 20.5515L11.3369 17.6057L10.8466 17.5077L10.2574 20.4535L10.7477 20.5515ZM10.7935 20.7016C10.7545 20.6626 10.7371 20.6055 10.7479 20.5507L10.2572 20.4544C10.2147 20.6712 10.2823 20.8974 10.44 21.0551L10.7935 20.7016ZM11.6391 17.7935L11.1974 20.0027L11.6877 20.1007L12.1294 17.8915L11.6391 17.7935ZM18.0999 11.2732L11.7075 17.6657L12.061 18.0193L18.4535 11.6268L18.0999 11.2732ZM19.0422 11.2728C18.7869 11.0188 18.3544 11.0174 18.0995 11.2737L18.454 11.6263C18.5124 11.5676 18.6283 11.5663 18.6896 11.6273L19.0422 11.2728ZM20.221 12.4516L19.0427 11.2732L18.6891 11.6268L19.8674 12.8051L20.221 12.4516ZM20.221 13.3943C20.4811 13.1342 20.4811 12.7117 20.221 12.4516L19.8674 12.8051C19.9323 12.87 19.9323 12.9759 19.8674 13.0407L20.221 13.3943ZM13.8285 19.7868L20.221 13.3943L19.8674 13.0407L13.475 19.4332L13.8285 19.7868ZM11.4916 20.2968L13.7007 19.8552L13.6027 19.3649L11.3935 19.8065L11.4916 20.2968Z" fill="#90979D"/>
</svg>
