<svg width="64" height="64" viewBox="0 0 64 64" fill="none" xmlns="http://www.w3.org/2000/svg">
<circle cx="32" cy="32" r="32" fill="#47B881"/>
<circle cx="32.0001" cy="42.8667" r="1.46667" fill="white"/>
<path d="M29.5852 28.4149L26.6519 25.4815C26.3652 25.1948 25.9017 25.1948 25.615 25.4815C25.3282 25.7683 25.3282 26.2317 25.615 26.5185L28.0298 28.9333L25.615 31.3482C25.3282 31.6349 25.3282 32.0984 25.615 32.3851C25.758 32.5281 25.9457 32.6 26.1334 32.6C26.3212 32.6 26.5089 32.5281 26.6519 32.3851L29.5852 29.4518C29.872 29.1651 29.872 28.7016 29.5852 28.4149Z" fill="white"/>
<path d="M37.8666 31.1333H31.9999C31.5951 31.1333 31.2666 31.4618 31.2666 31.8666C31.2666 32.2714 31.5951 32.6 31.9999 32.6H37.8666C38.2714 32.6 38.5999 32.2714 38.5999 31.8666C38.5999 31.4618 38.2714 31.1333 37.8666 31.1333Z" fill="white"/>
<path d="M37.8667 26.7333H33.4667C33.0619 26.7333 32.7334 27.0618 32.7334 27.4666C32.7334 27.8714 33.0619 28.1999 33.4667 28.1999H37.8667C38.2715 28.1999 38.6001 27.8714 38.6001 27.4666C38.6001 27.0618 38.2715 26.7333 37.8667 26.7333Z" fill="white"/>
<path d="M37.8666 35.5333H26.1332C25.7284 35.5333 25.3999 35.8619 25.3999 36.2667C25.3999 36.6715 25.7284 37 26.1332 37H37.8666C38.2714 37 38.5999 36.6715 38.5999 36.2667C38.5999 35.8619 38.2714 35.5333 37.8666 35.5333Z" fill="white"/>
<path fill-rule="evenodd" clip-rule="evenodd" d="M39.3304 15H24.6667H24.6659C23.6869 15 22.7666 15.3813 22.0743 16.0736C21.3821 16.7659 21 17.6877 21 18.6667V20.1319V20.1333V20.1348V45.0667C21 47.0885 22.6449 48.7333 24.6667 48.7333H39.3333C41.3551 48.7333 43 47.0885 43 45.0667V18.6667C43 16.6449 41.3551 15 39.3304 15ZM22.4667 18.6667C22.4667 18.0793 22.6955 17.5263 23.1113 17.1113C23.5263 16.6962 24.0785 16.4667 24.6659 16.4667H31.9993C36.8789 16.4667 38.6411 16.4667 39.3326 16.4102V16.4667C40.5455 16.4667 41.5326 17.4537 41.5326 18.6667V19.4H22.4667V18.6667ZM39.3333 47.2667C40.5463 47.2667 41.5333 46.2796 41.5333 45.0667V20.8667H22.4667V45.0667C22.4667 46.2796 23.4537 47.2667 24.6667 47.2667H39.3333Z" fill="white"/>
</svg>
