<svg width="64" height="64" viewBox="0 0 64 64" fill="none" xmlns="http://www.w3.org/2000/svg">
<circle cx="32" cy="32" r="32" fill="currentColor"/>
<path d="M21.8373 44.4707C21.2645 44.4706 20.7482 44.1255 20.529 43.5963C20.3098 43.0671 20.4309 42.458 20.8359 42.0529L41.8339 21.045C42.1895 20.6768 42.7161 20.5291 43.2114 20.6587C43.7066 20.7884 44.0933 21.1751 44.2229 21.6703C44.3525 22.1655 44.2049 22.6922 43.8367 23.0478L22.8387 44.0585C22.5726 44.3231 22.2125 44.4714 21.8373 44.4707Z" fill="white"/>
<path fill-rule="evenodd" clip-rule="evenodd" d="M34.9834 40.615C35.6505 42.2257 37.2222 43.2758 38.9656 43.2758C41.3461 43.2758 43.2758 41.3461 43.2758 38.9656C43.2758 37.2222 42.2257 35.6505 40.615 34.9834C39.0044 34.3162 37.1505 34.685 35.9177 35.9177C34.685 37.1505 34.3162 39.0044 34.9834 40.615ZM37.0255 38.1719C37.3505 37.3872 38.1162 36.8756 38.9656 36.8756C40.1253 36.8756 41.0654 37.8158 41.0654 38.9755C41.0654 39.8248 40.5538 40.5905 39.7691 40.9155C38.9845 41.2406 38.0813 41.0609 37.4807 40.4603C36.8802 39.8598 36.7005 38.9566 37.0255 38.1719Z" fill="white"/>
<path fill-rule="evenodd" clip-rule="evenodd" d="M21.7241 26.0345C21.7241 28.415 23.6539 30.3448 26.0345 30.3448C28.415 30.3448 30.3448 28.415 30.3448 26.0345C30.3448 23.6539 28.415 21.7241 26.0345 21.7241C23.6539 21.7241 21.7241 23.6539 21.7241 26.0345ZM24.0944 25.2408C24.4194 24.4561 25.1851 23.9445 26.0345 23.9445V23.9423C26.5918 23.9423 27.1262 24.1638 27.5201 24.5581C27.914 24.9524 28.135 25.4871 28.1344 26.0444C28.1344 26.8937 27.6228 27.6595 26.8381 27.9845C26.0534 28.3095 25.1502 28.1298 24.5496 27.5293C23.949 26.9287 23.7694 26.0255 24.0944 25.2408Z" fill="white"/>
</svg>
