<svg width="64" height="64" viewBox="0 0 64 64" fill="none" xmlns="http://www.w3.org/2000/svg">
<circle cx="32" cy="32" r="32" fill="#EC4C47"/>
<path fill-rule="evenodd" clip-rule="evenodd" d="M47.375 43.75H46.125V19.5C46.125 19.1548 45.8451 18.875 45.5 18.875H40.8958V16.625C40.8958 16.2798 40.6159 16 40.2708 16H23.7292C23.3841 16 23.1042 16.2798 23.1042 16.625V18.875H18.5C18.1549 18.875 17.875 19.1548 17.875 19.5V43.75H16.625C16.2798 43.75 16 44.0298 16 44.375V47.375C16 47.7202 16.2798 48 16.625 48H29.1877C29.5329 48 29.8127 47.7202 29.8127 47.375C29.8127 47.0298 29.5329 46.75 29.1877 46.75H17.25V45H46.75V46.75H34.8124C34.4672 46.75 34.1874 47.0298 34.1874 47.375C34.1874 47.7202 34.4672 48 34.8124 48H47.375C47.7201 48 48 47.7202 48 47.375V44.375C48 44.0298 47.7201 43.75 47.375 43.75ZM24.3542 17.25H39.6458V18.875H24.3542V17.25ZM28.125 43.75H31.375V36.1761C29.5346 36.4759 28.125 38.0761 28.125 40V43.75ZM32.625 43.75V36.1761C34.4654 36.4759 35.875 38.0761 35.875 40V43.75H32.625ZM37.125 40V43.75H44.875V20.125H19.125V43.75H26.875V40C26.875 37.1741 29.1741 34.875 32 34.875C34.8259 34.875 37.125 37.1741 37.125 40Z" fill="white"/>
<path fill-rule="evenodd" clip-rule="evenodd" d="M21.5 22.875H24.5C24.8452 22.875 25.125 23.1548 25.125 23.5V26.5C25.125 26.8452 24.8452 27.125 24.5 27.125H21.5C21.1549 27.125 20.875 26.8452 20.875 26.5V23.5C20.875 23.1548 21.1549 22.875 21.5 22.875ZM22.125 25.875H23.875V24.125H22.125V25.875Z" fill="white"/>
<path fill-rule="evenodd" clip-rule="evenodd" d="M27.5 22.875H30.5C30.8452 22.875 31.125 23.1548 31.125 23.5V26.5C31.125 26.8452 30.8452 27.125 30.5 27.125H27.5C27.1548 27.125 26.875 26.8452 26.875 26.5V23.5C26.875 23.1548 27.1548 22.875 27.5 22.875ZM28.125 25.875H29.875V24.125H28.125V25.875Z" fill="white"/>
<path fill-rule="evenodd" clip-rule="evenodd" d="M33.5 22.875H36.5C36.8451 22.875 37.125 23.1548 37.125 23.5V26.5C37.125 26.8452 36.8451 27.125 36.5 27.125H33.5C33.1549 27.125 32.875 26.8452 32.875 26.5V23.5C32.875 23.1548 33.1549 22.875 33.5 22.875ZM34.125 25.875H35.875V24.125H34.125V25.875Z" fill="white"/>
<path fill-rule="evenodd" clip-rule="evenodd" d="M39.5 22.875H42.5C42.8451 22.875 43.125 23.1548 43.125 23.5V26.5C43.125 26.8452 42.8451 27.125 42.5 27.125H39.5C39.1549 27.125 38.875 26.8452 38.875 26.5V23.5C38.875 23.1548 39.1549 22.875 39.5 22.875ZM40.125 25.875H41.875V24.125H40.125V25.875Z" fill="white"/>
<path fill-rule="evenodd" clip-rule="evenodd" d="M21.5 28.875H24.5C24.8452 28.875 25.125 29.1548 25.125 29.5V32.5C25.125 32.8452 24.8452 33.125 24.5 33.125H21.5C21.1549 33.125 20.875 32.8452 20.875 32.5V29.5C20.875 29.1548 21.1549 28.875 21.5 28.875ZM22.125 31.875H23.875V30.125H22.125V31.875Z" fill="white"/>
<path fill-rule="evenodd" clip-rule="evenodd" d="M27.5 28.875H30.5C30.8452 28.875 31.125 29.1548 31.125 29.5V32.5C31.125 32.8452 30.8452 33.125 30.5 33.125H27.5C27.1548 33.125 26.875 32.8452 26.875 32.5V29.5C26.875 29.1548 27.1548 28.875 27.5 28.875ZM28.125 31.875H29.875V30.125H28.125V31.875Z" fill="white"/>
<path fill-rule="evenodd" clip-rule="evenodd" d="M33.5 28.875H36.5C36.8451 28.875 37.125 29.1548 37.125 29.5V32.5C37.125 32.8452 36.8451 33.125 36.5 33.125H33.5C33.1549 33.125 32.875 32.8452 32.875 32.5V29.5C32.875 29.1548 33.1549 28.875 33.5 28.875ZM34.125 31.875H35.875V30.125H34.125V31.875Z" fill="white"/>
<path fill-rule="evenodd" clip-rule="evenodd" d="M39.5 28.875H42.5C42.8451 28.875 43.125 29.1548 43.125 29.5V32.5C43.125 32.8452 42.8451 33.125 42.5 33.125H39.5C39.1549 33.125 38.875 32.8452 38.875 32.5V29.5C38.875 29.1548 39.1549 28.875 39.5 28.875ZM40.125 31.875H41.875V30.125H40.125V31.875Z" fill="white"/>
<path fill-rule="evenodd" clip-rule="evenodd" d="M21.5 34.875H24.5C24.8452 34.875 25.125 35.1548 25.125 35.5V38.5C25.125 38.8452 24.8452 39.125 24.5 39.125H21.5C21.1549 39.125 20.875 38.8452 20.875 38.5V35.5C20.875 35.1548 21.1549 34.875 21.5 34.875ZM22.125 37.875H23.875V36.125H22.125V37.875Z" fill="white"/>
<path fill-rule="evenodd" clip-rule="evenodd" d="M39.5 34.875H42.5C42.8451 34.875 43.125 35.1548 43.125 35.5V38.5C43.125 38.8452 42.8451 39.125 42.5 39.125H39.5C39.1549 39.125 38.875 38.8452 38.875 38.5V35.5C38.875 35.1548 39.1549 34.875 39.5 34.875ZM40.125 37.875H41.875V36.125H40.125V37.875Z" fill="white"/>
<path d="M32 46.75C31.8356 46.75 31.6744 46.8169 31.5581 46.9331C31.4419 47.0494 31.375 47.2106 31.375 47.375C31.375 47.5394 31.4418 47.7006 31.5581 47.8169C31.6744 47.9331 31.8356 48 32 48C32.1644 48 32.3256 47.9331 32.4418 47.8169C32.5581 47.7006 32.625 47.5394 32.625 47.375C32.625 47.2106 32.5581 47.0494 32.4418 46.9331C32.3256 46.8169 32.1644 46.75 32 46.75Z" fill="white"/>
</svg>
