<svg width="18" height="18" viewBox="0 0 18 18" fill="none" xmlns="http://www.w3.org/2000/svg">
<path fill-rule="evenodd" clip-rule="evenodd" d="M16.6935 12.7042L17.9292 16.3004C18.0897 16.7674 17.9724 17.2744 17.6234 17.6234C17.3777 17.8692 17.0537 18 16.7206 18C16.5804 18 16.4387 17.9768 16.3004 17.9293L12.7041 16.6936C11.5027 17.288 10.1635 17.6023 8.81604 17.6044H8.80219C6.4868 17.6044 4.2984 16.7069 2.63818 15.0763C0.974408 13.4421 0.0378804 11.2646 0.00114211 8.94482C-0.0180884 7.73003 0.205611 6.55008 0.666052 5.43774C1.11015 4.36487 1.75347 3.40275 2.57813 2.57813C3.40276 1.7535 4.36488 1.11018 5.43774 0.666048C6.55008 0.205607 7.72943 -0.0183385 8.94482 0.00117326C11.2646 0.0379819 13.4421 0.974474 15.0762 2.63824C16.7101 4.3017 17.6079 6.49576 17.6043 8.81615C17.6022 10.1636 17.2879 11.5028 16.6935 12.7042ZM16.6471 16.92C16.7575 16.9579 16.8333 16.9042 16.8687 16.8688C16.9042 16.8335 16.9579 16.7576 16.9199 16.6472L15.6105 12.8365C15.5626 12.697 15.5745 12.5439 15.6435 12.4135C16.2261 11.3123 16.5351 10.0677 16.5371 8.81449C16.5436 4.60988 13.1301 1.13493 8.92788 1.06831C6.81302 1.03487 4.82655 1.83897 3.33272 3.33276C1.8389 4.82658 1.03467 6.81365 1.06817 8.92791C1.13476 13.1302 4.61143 16.5439 8.81436 16.5372C10.0676 16.5353 11.3121 16.2262 12.4134 15.6436C12.4911 15.6025 12.5768 15.5816 12.663 15.5816C12.7214 15.5816 12.78 15.5913 12.8364 15.6106L16.6471 16.92Z" fill="#005CA4"/>
<path d="M8.71569 12.7529C8.43659 12.7529 8.16919 12.9984 8.18209 13.2865C8.19503 13.5756 8.41655 13.8201 8.71569 13.8201C8.9948 13.8201 9.26219 13.5747 9.24929 13.2865C9.23635 12.9974 9.01484 12.7529 8.71569 12.7529Z" fill="#005CA4"/>
<path d="M8.71537 4.48853C7.2515 4.48853 6.06055 5.67948 6.06055 7.14335C6.06055 7.43803 6.29947 7.67695 6.59415 7.67695C6.88883 7.67695 7.12775 7.43803 7.12775 7.14335C7.12775 6.26796 7.83998 5.55573 8.71537 5.55573C9.59076 5.55573 10.303 6.26796 10.303 7.14335C10.303 8.01874 9.59076 8.73097 8.71537 8.73097C8.42069 8.73097 8.18177 8.96989 8.18177 9.26457V11.4409C8.18177 11.7356 8.42069 11.9745 8.71537 11.9745C9.01005 11.9745 9.24897 11.7356 9.24897 11.4409V9.74428C10.458 9.4966 11.3702 8.42451 11.3702 7.14335C11.3702 5.67948 10.1792 4.48853 8.71537 4.48853Z" fill="#005CA4"/>
</svg>
