<svg width="28" height="28" viewBox="0 0 28 28" fill="none" xmlns="http://www.w3.org/2000/svg">
<mask id="mask0_0_862" style="mask-type:alpha" maskUnits="userSpaceOnUse" x="3" y="2" width="23" height="24">
<path fill-rule="evenodd" clip-rule="evenodd" d="M3.5 2.3335H25.0864V25.4637H3.5V2.3335Z" fill="white"/>
</mask>
<g mask="url(#mask0_0_862)">
<path fill-rule="evenodd" clip-rule="evenodd" d="M5.81112 20.8369L8.12705 16.2098V10.0436C8.12705 6.63672 10.8863 3.87745 14.2932 3.87745C17.7002 3.87745 20.4642 6.63672 20.4642 10.0436V16.2098L22.7754 20.8369H5.81112ZM14.2932 23.92C13.288 23.92 12.4409 23.2762 12.1209 22.3808H16.4656C16.1456 23.2762 15.2984 23.92 14.2932 23.92V23.92ZM22.0034 16.2098V10.0436C22.0034 5.78571 18.5512 2.3335 14.2932 2.3335C10.0353 2.3335 6.58309 5.78571 6.58309 10.0436V16.2098L3.5 22.3808H10.5172C10.8748 24.1388 12.4303 25.4639 14.2932 25.4639C16.161 25.4639 17.7156 24.1388 18.0731 22.3808H25.0865L22.0034 16.2098Z" fill="#F7F7F7"/>
</g>
<path d="M21.3822 5.33337H20.9296V4.09412L20.934 3.8905L20.9413 3.66785C20.8661 3.74304 20.8139 3.79236 20.7846 3.8158L20.5385 4.01355L20.3202 3.74109L21.0102 3.19177H21.3822V5.33337Z" fill="white"/>
<circle cx="21" cy="6" r="6" fill="#EC4C47"/>
</svg>
