<svg width="85" height="85" viewBox="0 0 85 85" fill="none" xmlns="http://www.w3.org/2000/svg">
<circle cx="42.5" cy="42.5" r="42.5" fill="#DEDEDE" fill-opacity="0.534222"/>
<path d="M52.7083 36.6667C52.7083 31.0288 48.4644 26.4584 43.2292 26.4584C37.994 26.4584 33.75 31.0288 33.75 36.6667" stroke="#005CA4" stroke-width="2" stroke-linecap="round" stroke-linejoin="round"/>
<path d="M33.7503 36.6667V51.2501" stroke="#005CA4" stroke-width="2" stroke-linecap="round" stroke-linejoin="round"/>
<path d="M33.75 51.25C33.75 54.8744 36.6881 57.8125 40.3125 57.8125V57.8125C43.9369 57.8125 46.875 54.8744 46.875 51.25" stroke="#005CA4" stroke-width="2" stroke-linecap="round" stroke-linejoin="round"/>
<path d="M46.8753 51.2501V36.6667" stroke="#005CA4" stroke-width="2" stroke-linecap="round" stroke-linejoin="round"/>
<path d="M46.8757 36.6667C46.8757 34.6532 45.2434 33.0209 43.2298 33.0209C41.2163 33.0209 39.584 34.6532 39.584 36.6667" stroke="#005CA4" stroke-width="2" stroke-linecap="round" stroke-linejoin="round"/>
<path d="M39.5833 36.6667V49.7917" stroke="#005CA4" stroke-width="2" stroke-linecap="round" stroke-linejoin="round"/>
<path d="M52.7083 36.6667V49.7917" stroke="#005CA4" stroke-width="2" stroke-linecap="round" stroke-linejoin="round"/>
</svg>
