<svg width="18" height="14" viewBox="0 0 18 14" fill="none" xmlns="http://www.w3.org/2000/svg">
<path fill-rule="evenodd" clip-rule="evenodd" d="M16.2805 0.032959H1.6842C0.755475 0.032959 0 0.788434 0 1.71716V11.8223C0 12.751 0.755475 13.5065 1.6842 13.5065H16.2805C17.2092 13.5065 17.9647 12.751 17.9647 11.8223V1.71716C17.9647 0.788434 17.2092 0.032959 16.2805 0.032959ZM16.2805 1.15575C16.3568 1.15575 16.4293 1.17157 16.4957 1.19921L8.98234 7.71105L1.46899 1.19921C1.53532 1.17161 1.60789 1.15575 1.68416 1.15575H16.2805ZM1.12279 11.8222C1.12279 12.132 1.37445 12.3837 1.6842 12.3837H16.2805C16.5902 12.3837 16.8419 12.132 16.8419 11.8223V2.38545L9.35021 8.87823C9.24439 8.96981 9.11336 9.0153 8.98234 9.0153C8.85131 9.0153 8.72029 8.96977 8.61446 8.87823L1.12279 2.38545V11.8222Z" fill="#90979D"/>
</svg>
