<svg width="20" height="25" viewBox="0 0 20 25" fill="none" xmlns="http://www.w3.org/2000/svg">
<path fill-rule="evenodd" clip-rule="evenodd" d="M17.2727 6.59091V9.14227C18.8186 9.40864 20 10.7559 20 12.3768V21.2595C20 23.0714 18.5259 24.5455 16.7141 24.5455H3.28591C1.47409 24.5455 0 23.0714 0 21.2595V12.3768C0 10.565 1.47409 9.09091 3.28591 9.09091H16.3636V6.59091C16.3636 3.45773 13.5091 0.909091 10 0.909091C6.49091 0.909091 3.63636 3.45773 3.63636 6.59091C3.63636 6.84227 3.43318 7.04545 3.18182 7.04545C2.93045 7.04545 2.72727 6.84227 2.72727 6.59091C2.72727 2.95682 5.99 0 10 0C14.01 0 17.2727 2.95682 17.2727 6.59091ZM16.7141 23.6364C18.0245 23.6364 19.0909 22.57 19.0909 21.2595V12.3768C19.0909 11.0664 18.0245 10 16.7141 10H3.28591C1.97545 10 0.909091 11.0664 0.909091 12.3768V21.2595C0.909091 22.57 1.97545 23.6364 3.28591 23.6364H16.7141Z" fill="#47B881"/>
<path fill-rule="evenodd" clip-rule="evenodd" d="M8.18164 14.5452C8.18164 13.5425 8.9971 12.7271 9.99982 12.7271C11.0025 12.7271 11.818 13.5425 11.818 14.5452V17.2725C11.818 18.2752 11.0025 19.0907 9.99982 19.0907C8.9971 19.0907 8.18164 18.2752 8.18164 17.2725V14.5452ZM9.99982 18.1816C10.5012 18.1816 10.9089 17.7739 10.9089 17.2725V14.5452C10.9089 14.0439 10.5012 13.6361 9.99982 13.6361C9.49846 13.6361 9.09073 14.0439 9.09073 14.5452V17.2725C9.09073 17.7739 9.49846 18.1816 9.99982 18.1816Z" fill="#47B881"/>
</svg>
