<svg width="26" height="27" viewBox="0 0 26 27" fill="none" xmlns="http://www.w3.org/2000/svg">
<path fill-rule="evenodd" clip-rule="evenodd" d="M20.2727 9.14227V6.59091C20.2727 2.95682 17.01 0 13 0C8.99 0 5.72727 2.95682 5.72727 6.59091V9.14227C4.18136 9.40864 3 10.7559 3 12.3773V21.26C3 23.0714 4.47409 24.5455 6.28591 24.5455H19.7141C21.5259 24.5455 23 23.0714 23 21.2595V12.3768C23 10.7559 21.8186 9.40864 20.2727 9.14227ZM6.63636 6.59091C6.63636 3.45773 9.49091 0.909091 13 0.909091C16.5091 0.909091 19.3636 3.45773 19.3636 6.59091V9.09091H6.63636V6.59091ZM19.7141 23.6364C21.0245 23.6364 22.0909 22.57 22.0909 21.2595V12.3768C22.0909 11.0664 21.0245 10 19.7141 10H6.28591C4.97545 10 3.90909 11.0664 3.90909 12.3768V21.2595C3.90909 22.57 4.97545 23.6364 6.28591 23.6364H19.7141Z" fill="#9FA1A6"/>
<path fill-rule="evenodd" clip-rule="evenodd" d="M11.1816 14.5452C11.1816 13.5425 11.9971 12.7271 12.9998 12.7271C14.0025 12.7271 14.818 13.5425 14.818 14.5452V17.2725C14.818 18.2752 14.0025 19.0907 12.9998 19.0907C11.9971 19.0907 11.1816 18.2752 11.1816 17.2725V14.5452ZM12.9998 18.1816C13.5012 18.1816 13.9089 17.7739 13.9089 17.2725V14.5452C13.9089 14.0439 13.5012 13.6361 12.9998 13.6361C12.4985 13.6361 12.0907 14.0439 12.0907 14.5452V17.2725C12.0907 17.7739 12.4985 18.1816 12.9998 18.1816Z" fill="#9FA1A6"/>
<rect x="0.448655" y="24.5332" width="33" height="2.5" rx="1.25" transform="rotate(-45 0.448655 24.5332)" fill="#9FA1A6" stroke="white" stroke-linejoin="round"/>
</svg>
