<svg width="22" height="22" viewBox="0 0 22 22" fill="none" xmlns="http://www.w3.org/2000/svg">
<path d="M18.9167 16H16.4167C16.1867 16 16 15.8133 16 15.5833C16 15.3533 16.1867 15.1667 16.4167 15.1667H18.9167C19.6058 15.1667 20.1667 14.6058 20.1667 13.9167V8.08333C20.1667 7.39417 19.6058 6.83333 18.9167 6.83333H3.08333C2.39417 6.83333 1.83333 7.39417 1.83333 8.08333V13.9167C1.83333 14.6058 2.39417 15.1667 3.08333 15.1667H5.58333C5.81333 15.1667 6 15.3533 6 15.5833C6 15.8133 5.81333 16 5.58333 16H3.08333C1.93417 16 1 15.065 1 13.9167V8.08333C1 6.935 1.93417 6 3.08333 6H18.9167C20.0658 6 21 6.935 21 8.08333V13.9167C21 15.065 20.0658 16 18.9167 16Z" fill="#005CA4" stroke="#005CA4" stroke-width="0.2"/>
<path d="M13.0832 18.5001H8.08317C7.85317 18.5001 7.6665 18.3134 7.6665 18.0834C7.6665 17.8534 7.85317 17.6667 8.08317 17.6667H13.0832C13.3132 17.6667 13.4998 17.8534 13.4998 18.0834C13.4998 18.3134 13.3132 18.5001 13.0832 18.5001Z" fill="#005CA4" stroke="#005CA4" stroke-width="0.2"/>
<path d="M13.0832 16.8333H8.08317C7.85317 16.8333 7.6665 16.6467 7.6665 16.4167C7.6665 16.1867 7.85317 16 8.08317 16H13.0832C13.3132 16 13.4998 16.1867 13.4998 16.4167C13.4998 16.6467 13.3132 16.8333 13.0832 16.8333Z" fill="#005CA4" stroke="#005CA4" stroke-width="0.2"/>
<path d="M9.74984 15.1666H8.08317C7.85317 15.1666 7.6665 14.9799 7.6665 14.7499C7.6665 14.5199 7.85317 14.3333 8.08317 14.3333H9.74984C9.97984 14.3333 10.1665 14.5199 10.1665 14.7499C10.1665 14.9799 9.97984 15.1666 9.74984 15.1666Z" fill="#005CA4" stroke="#005CA4" stroke-width="0.2"/>
<path d="M16.4165 6.83333C16.1865 6.83333 15.9998 6.64667 15.9998 6.41667V3.08333C15.9998 2.39417 15.439 1.83333 14.7498 1.83333H7.24984C6.56067 1.83333 5.99984 2.39417 5.99984 3.08333V6.41667C5.99984 6.64667 5.81317 6.83333 5.58317 6.83333C5.35317 6.83333 5.1665 6.64667 5.1665 6.41667V3.08333C5.1665 1.935 6.10067 1 7.24984 1H14.7498C15.899 1 16.8332 1.935 16.8332 3.08333V6.41667C16.8332 6.64667 16.6465 6.83333 16.4165 6.83333Z" fill="#005CA4" stroke="#005CA4" stroke-width="0.2"/>
<path fill-rule="evenodd" clip-rule="evenodd" d="M7.24984 20.9999H14.7498C15.899 20.9999 16.8332 20.0649 16.8332 18.9166V12.2499C16.8332 12.0199 16.6465 11.8333 16.4165 11.8333H5.58317C5.35317 11.8333 5.1665 12.0199 5.1665 12.2499V18.9166C5.1665 20.0649 6.10067 20.9999 7.24984 20.9999ZM5.99984 18.9166V12.6666H15.9998V18.9166C15.9998 19.6058 15.439 20.1666 14.7498 20.1666H7.24984C6.56067 20.1666 5.99984 19.6058 5.99984 18.9166Z" fill="#005CA4"/>
<path d="M5.99984 12.6666V12.5666H5.89984V12.6666H5.99984ZM15.9998 12.6666H16.0998V12.5666H15.9998V12.6666ZM14.7498 20.8999H7.24984V21.0999H14.7498V20.8999ZM16.7332 18.9166C16.7332 20.0097 15.8437 20.8999 14.7498 20.8999V21.0999C15.9543 21.0999 16.9332 20.1201 16.9332 18.9166H16.7332ZM16.7332 12.2499V18.9166H16.9332V12.2499H16.7332ZM16.4165 11.9333C16.5913 11.9333 16.7332 12.0751 16.7332 12.2499H16.9332C16.9332 11.9647 16.7017 11.7333 16.4165 11.7333V11.9333ZM5.58317 11.9333H16.4165V11.7333H5.58317V11.9333ZM5.2665 12.2499C5.2665 12.0751 5.4084 11.9333 5.58317 11.9333V11.7333C5.29794 11.7333 5.0665 11.9647 5.0665 12.2499H5.2665ZM5.2665 18.9166V12.2499H5.0665V18.9166H5.2665ZM7.24984 20.8999C6.15592 20.8999 5.2665 20.0097 5.2665 18.9166H5.0665C5.0665 20.1201 6.04542 21.0999 7.24984 21.0999V20.8999ZM5.89984 12.6666V18.9166H6.09984V12.6666H5.89984ZM15.9998 12.5666H5.99984V12.7666H15.9998V12.5666ZM16.0998 18.9166V12.6666H15.8998V18.9166H16.0998ZM14.7498 20.2666C15.4942 20.2666 16.0998 19.661 16.0998 18.9166H15.8998C15.8998 19.5505 15.3838 20.0666 14.7498 20.0666V20.2666ZM7.24984 20.2666H14.7498V20.0666H7.24984V20.2666ZM5.89984 18.9166C5.89984 19.661 6.50544 20.2666 7.24984 20.2666V20.0666C6.6159 20.0666 6.09984 19.5505 6.09984 18.9166H5.89984Z" fill="#005CA4"/>
</svg>
