<svg width="24" height="22" viewBox="0 0 24 22" fill="none" xmlns="http://www.w3.org/2000/svg">
<mask id="mask0_0_12867" style="mask-type:alpha" maskUnits="userSpaceOnUse" x="2" y="0" width="19" height="19">
<path fill-rule="evenodd" clip-rule="evenodd" d="M14.3819 11.6918H15.1498L20 16.5517L18.5517 18L13.6918 13.1498V12.3819L13.4294 12.1098C12.3213 13.0623 10.8828 13.6358 9.3179 13.6358C5.82847 13.6358 3 10.8073 3 7.3179C3 3.82847 5.82847 1 9.3179 1C12.8073 1 15.6358 3.82847 15.6358 7.3179C15.6358 8.88279 15.0623 10.3213 14.1098 11.4294L14.3819 11.6918ZM5 7.5C5 9.99 7.01 12 9.5 12C11.99 12 14 9.99 14 7.5C14 5.01 11.99 3 9.5 3C7.01 3 5 5.01 5 7.5Z" fill="white"/>
<path d="M15.1498 11.6918L15.5037 11.3386L15.3572 11.1918H15.1498V11.6918ZM14.3819 11.6918L14.0349 12.0517L14.1801 12.1918H14.3819V11.6918ZM20 16.5517L20.3536 16.9053L20.7068 16.5521L20.3539 16.1985L20 16.5517ZM18.5517 18L18.1985 18.3539L18.5521 18.7068L18.9053 18.3536L18.5517 18ZM13.6918 13.1498H13.1918V13.3572L13.3386 13.5037L13.6918 13.1498ZM13.6918 12.3819H14.1918V12.1801L14.0517 12.0349L13.6918 12.3819ZM13.4294 12.1098L13.7893 11.7627L13.4615 11.4228L13.1034 11.7306L13.4294 12.1098ZM14.1098 11.4294L13.7306 11.1034L13.4228 11.4615L13.7627 11.7893L14.1098 11.4294ZM15.1498 11.1918H14.3819V12.1918H15.1498V11.1918ZM20.3539 16.1985L15.5037 11.3386L14.7959 12.045L19.6461 16.9049L20.3539 16.1985ZM18.9053 18.3536L20.3536 16.9053L19.6464 16.1982L18.1982 17.6464L18.9053 18.3536ZM13.3386 13.5037L18.1985 18.3539L18.9049 17.6461L14.045 12.7959L13.3386 13.5037ZM13.1918 12.3819V13.1498H14.1918V12.3819H13.1918ZM13.0695 12.4568L13.3319 12.729L14.0517 12.0349L13.7893 11.7627L13.0695 12.4568ZM9.3179 14.1358C11.0071 14.1358 12.5602 13.5164 13.7553 12.4889L13.1034 11.7306C12.0825 12.6083 10.7585 13.1358 9.3179 13.1358V14.1358ZM2.5 7.3179C2.5 11.0835 5.55233 14.1358 9.3179 14.1358V13.1358C6.10462 13.1358 3.5 10.5312 3.5 7.3179H2.5ZM9.3179 0.5C5.55233 0.5 2.5 3.55233 2.5 7.3179H3.5C3.5 4.10462 6.10462 1.5 9.3179 1.5V0.5ZM16.1358 7.3179C16.1358 3.55233 13.0835 0.5 9.3179 0.5V1.5C12.5312 1.5 15.1358 4.10462 15.1358 7.3179H16.1358ZM14.4889 11.7553C15.5164 10.5602 16.1358 9.00705 16.1358 7.3179H15.1358C15.1358 8.75853 14.6083 10.0825 13.7306 11.1034L14.4889 11.7553ZM14.729 11.3319L14.4568 11.0695L13.7627 11.7893L14.0349 12.0517L14.729 11.3319ZM9.5 11.5C7.28614 11.5 5.5 9.71386 5.5 7.5H4.5C4.5 10.2661 6.73386 12.5 9.5 12.5V11.5ZM13.5 7.5C13.5 9.71386 11.7139 11.5 9.5 11.5V12.5C12.2661 12.5 14.5 10.2661 14.5 7.5H13.5ZM9.5 3.5C11.7139 3.5 13.5 5.28614 13.5 7.5H14.5C14.5 4.73386 12.2661 2.5 9.5 2.5V3.5ZM5.5 7.5C5.5 5.28614 7.28614 3.5 9.5 3.5V2.5C6.73386 2.5 4.5 4.73386 4.5 7.5H5.5Z" fill="white"/>
</mask>
<g mask="url(#mask0_0_12867)">
<rect y="-2" width="24" height="24" fill="#9EA0A5"/>
</g>
</svg>
