<svg width="20" height="22" viewBox="0 0 20 22" fill="none" xmlns="http://www.w3.org/2000/svg">
<path fill-rule="evenodd" clip-rule="evenodd" d="M4.08493 21.7872H15.8864C17.1382 21.7872 18.1559 20.7687 18.1559 19.5177V6.80851C18.1559 6.55796 17.9525 6.35461 17.702 6.35461H2.26933C2.01878 6.35461 1.81543 6.55796 1.81543 6.80851V19.5177C1.81543 20.7687 2.83308 21.7872 4.08493 21.7872ZM2.72323 19.5177V7.26242H17.2481V19.5177C17.2481 20.2685 16.6371 20.8794 15.8864 20.8794H4.08493C3.33418 20.8794 2.72323 20.2685 2.72323 19.5177Z" fill="#D9D9D9"/>
<path fill-rule="evenodd" clip-rule="evenodd" d="M0.453901 7.2624H19.5177C19.7683 7.2624 19.9716 7.05905 19.9716 6.8085V4.99289C19.9716 3.74194 18.954 2.72339 17.7021 2.72339H2.2695C1.01765 2.72339 0 3.74194 0 4.99289V6.8085C0 7.05905 0.203348 7.2624 0.453901 7.2624ZM19.0638 6.35459H0.907801V4.99289C0.907801 4.24214 1.51875 3.63119 2.2695 3.63119H17.7021C18.4529 3.63119 19.0638 4.24214 19.0638 4.99289V6.35459Z" fill="#D9D9D9"/>
<path fill-rule="evenodd" clip-rule="evenodd" d="M6.80839 3.63121H13.163C13.4136 3.63121 13.6169 3.42786 13.6169 3.1773V1.3617C13.6169 0.61095 13.006 0 12.2552 0H7.71619C6.96544 0 6.35449 0.61095 6.35449 1.3617V3.1773C6.35449 3.42786 6.55784 3.63121 6.80839 3.63121ZM12.7091 2.7234H7.26229V1.3617C7.26229 1.11115 7.46655 0.907801 7.71619 0.907801H12.2552C12.5048 0.907801 12.7091 1.11115 12.7091 1.3617V2.7234Z" fill="#D9D9D9"/>
<path d="M5.90068 18.1561C5.65012 18.1561 5.44678 17.9527 5.44678 17.7022V10.4397C5.44678 10.1892 5.65012 9.98584 5.90068 9.98584C6.15123 9.98584 6.35458 10.1892 6.35458 10.4397V17.7022C6.35458 17.9527 6.15123 18.1561 5.90068 18.1561Z" fill="#D9D9D9"/>
<path d="M9.98564 18.1561C9.73509 18.1561 9.53174 17.9527 9.53174 17.7022V10.4397C9.53174 10.1892 9.73509 9.98584 9.98564 9.98584C10.2362 9.98584 10.4395 10.1892 10.4395 10.4397V17.7022C10.4395 17.9527 10.2362 18.1561 9.98564 18.1561Z" fill="#D9D9D9"/>
<path d="M14.0711 18.1561C13.8205 18.1561 13.6172 17.9527 13.6172 17.7022V10.4397C13.6172 10.1892 13.8205 9.98584 14.0711 9.98584C14.3216 9.98584 14.525 10.1892 14.525 10.4397V17.7022C14.525 17.9527 14.3216 18.1561 14.0711 18.1561Z" fill="#D9D9D9"/>
</svg>
